<svg width="637" height="422" viewBox="0 0 637 422" fill="none" xmlns="http://www.w3.org/2000/svg">
<path d="M61.3 418.8C95.1551 418.8 122.6 415.576 122.6 411.6C122.6 407.623 95.1551 404.4 61.3 404.4C27.4449 404.4 0 407.623 0 411.6C0 415.576 27.4449 418.8 61.3 418.8Z" fill="#E6E6E6"/>
<path d="M544.9 408.6C544.9 415.9 471.7 421.8 380.2 421.8C288.7 421.8 214.5 415.9 214.5 408.6C214.5 401.3 288.7 395.4 380.2 395.4C471.8 395.5 544.9 401.4 544.9 408.6Z" fill="#E6E6E6"/>
<path d="M566.5 137.5C569.8 146.4 574 157.4 568.9 166.4C563.5 175.7 550.8 179.9 542.3 185.7C542.2 185.8 541.8 186 541.7 186.1C536.1 164.3 529.8 142.6 522.6 121.2C530.6 120.5 538.7 119.4 546.8 119.3C550.8 119.2 554.3 119.1 557.3 121.9C561.8 126 564.3 131.8 566.5 137.5Z" fill="white"/>
<path d="M539.3 177.1C540.1 180.1 540.9 183.1 541.6 186.1C541.7 186 542.1 185.8 542.2 185.7C550.7 179.9 563.4 175.8 568.8 166.4C573.2 158.8 570.8 149.7 568 141.7C565.8 160.2 551.2 171.2 539.3 177.1Z" fill="#E6E6E6"/>
<path d="M301.2 386.8C293.2 391.6 285.3 397.1 277 401.3C272.2 403.7 265.9 406.2 261.1 402.3C258.5 400.1 256.5 396.8 254.6 394C245.1 380.4 238.5 365.4 231.3 350.6C222.7 333 216.2 314.9 210.5 296.2C230.3 292.7 250 288.6 269.6 283.8C277.1 303.4 285.6 322.4 297.4 339.8C300.2 343.9 303.1 347.9 306.1 351.9C309.5 356.4 314.8 360.5 316.8 365.9C320.5 376.2 308.3 382.5 301.2 386.8Z" fill="white"/>
<path d="M535.6 311.4C534.1 311 532.7 310.6 531.3 310.3C515.1 306.2 499 301.7 482.9 297C456.4 289.4 429.9 281.4 402.6 276.8C372.7 271.7 342.3 271.2 312.1 274C304.6 274.7 297.1 275.6 289.7 276.6C278.4 238.6 267.4 200.4 257.9 161.9C313.3 137.3 359.3 94.6 401.2 51.7C408.7 44 416.2 36.1 423.7 28.4C428.4 23.6 433.1 18.8 438.4 14.6C440.3 13 442.4 11.4 444.6 10C453.6 24 459.5 40.4 465.7 55.8C474 76.6 481.8 97.7 489.3 118.9C494.3 133 499.4 147.1 503.5 161.4C510.2 184.5 515.7 207.9 521 231.3C526.8 257.5 532.9 284.4 535.6 311.4Z" fill="white"/>
<path d="M611.7 143.5C619.7 144.2 627.7 144.6 635.7 145.6C637.4 145.8 637.4 148.5 635.7 148.3C627.7 147.3 619.7 146.9 611.7 146.2C610 146 610 143.3 611.7 143.5Z" fill="#333333"/>
<path d="M596.7 99.0999C602.7 93.2999 608.7 87.4999 614.6 81.6999C615.8 80.4999 617.7 82.3999 616.5 83.5999C610.5 89.3999 604.5 95.1999 598.6 101.1C597.3 102.2 595.4 100.3 596.7 99.0999Z" fill="#333333"/>
<path d="M590.4 191.7C597.3 197.4 603.7 203.6 610 210C611.2 211.2 609.3 213.1 608.1 211.9C601.9 205.5 595.5 199.3 588.5 193.6C587.2 192.5 589.1 190.6 590.4 191.7Z" fill="#333333"/>
<path d="M556.4 49.7C555.7 59.9 555.2 70.2 554.5 80.4C554.4 82.1 551.7 82.1 551.8 80.4C552.5 70.2 553 59.9 553.7 49.7C553.9 48 556.5 48 556.4 49.7Z" fill="#333333"/>
<path d="M222.2 222.8C223.7 222 227.2 220.3 223.7 217.7C222.7 217 218.6 218.2 217.2 218.5C214.2 219.3 211.2 220.4 208.2 221.4C203.4 223 197.7 223.9 193.2 226.3C189.7 228.1 188.8 231.2 193.3 231.6C194.6 231.7 196.3 231 197.5 230.7C200.3 230.1 203.1 229.3 205.9 228.4C211.3 226.8 217.3 225.3 222.2 222.8ZM207.5 218.8C210.7 217.7 230.1 210.2 228.1 220.1C227.4 223.4 224.1 225 221.3 226C216.3 228 211.1 229.6 206 231.1C201.9 232.4 186.8 238.5 187.5 229.1C187.8 226 189.9 224.8 192.6 223.7C197.4 221.7 202.6 220.5 207.5 218.8Z" fill="#333333"/>
<path d="M219.4 198.6C219 198.2 217.4 198.1 216.9 198.1C211.4 197.7 205 200.8 199.8 202.5C195.8 203.6 189.1 204.8 186.1 208C184.8 209.4 185.3 211.4 187 211.9C187.6 212 188.7 211.6 189.3 211.5C194.9 210.4 200.5 209 205.9 207.3C209 206.4 212 205.4 215 204.1C215.9 203.7 217.1 203.3 217.9 202.7C218.6 202 220.6 199.9 219.4 198.6ZM199.1 199.9C204.2 198.2 217.8 191.7 222.5 197.5C227.8 204.1 210 208.9 206.8 209.9C202.3 211.3 197.7 212.4 193 213.5C190.9 214 188.2 215 186.1 214.7C182 214.1 181.3 209.7 183.7 207C187 202.7 194.2 201.3 199.1 199.9Z" fill="#333333"/>
<path d="M285.5 277.1C285.6 277.1 285.7 277 285.8 277C286.1 277 286.5 276.9 286.9 276.9C275.6 239 264.7 201 255.2 162.7C232 168.3 208.8 174.1 185.8 180.4C177.4 182.7 165.5 184.1 159.3 190.8C152.9 197.7 155 210.5 156 219C158.1 237.8 164.4 256.1 174 272.3C178.4 279.7 183.6 288.1 190.2 293.9C194.8 298 203.1 294.8 208.5 293.9C213.6 293 218.6 292.1 223.7 291.1C244.4 287.2 264.9 282.5 285.3 277.1C285.3 277.1 285.4 277.1 285.5 277.1ZM301.2 386.8C308.3 382.5 320.5 376.2 316.7 366C314.7 360.6 309.4 356.5 306 352C303 348.1 300.1 344 297.3 339.9C285.5 322.5 277 303.5 269.5 283.9C249.9 288.7 230.2 292.8 210.4 296.3C216.1 315 222.6 333.1 231.2 350.7C238.5 365.6 245.1 380.5 254.5 394.1C256.4 396.9 258.4 400.2 261 402.4C265.7 406.3 272.1 403.8 276.9 401.4C285.3 397.1 293.2 391.6 301.2 386.8ZM531.2 310.3C532.6 310.7 534 311.1 535.5 311.4C532.8 284.4 526.7 257.5 520.8 231C515.5 207.6 510 184.1 503.3 161.1C499.1 146.8 494 132.7 489.1 118.6C481.6 97.3999 473.9 76.3999 465.5 55.4999C459.4 40.0999 453.4 23.6999 444.4 9.69995C442.2 11.1999 440.1 12.7999 438.2 14.2999C432.9 18.4999 428.2 23.2999 423.5 28.0999C416 35.7999 408.5 43.6999 401 51.3999C359.1 94.2999 313.1 137 257.7 161.6C267.2 200.1 278.2 238.3 289.5 276.3C297 275.3 304.4 274.4 311.9 273.7C342.1 270.9 372.5 271.4 402.4 276.5C429.7 281.1 456.2 289.1 482.7 296.7C498.9 301.6 515 306.2 531.2 310.3ZM542.2 185.7C550.7 179.9 563.4 175.8 568.8 166.4C574 157.4 569.8 146.4 566.4 137.5C564.2 131.8 561.7 126 557.2 121.7C554.2 118.9 550.6 119.1 546.7 119.1C538.6 119.2 530.6 120.3 522.5 121C529.6 142.4 536 164.1 541.6 185.9C541.8 186 542.1 185.8 542.2 185.7ZM571.7 166.9C566.3 177.3 552.8 181.8 543.6 188C543.4 188.1 542.7 188.7 542.4 188.8C546 203.2 549.3 217.7 552.2 232.2C555.3 247.9 557.6 263.7 559.7 279.5C561 289.4 563.1 303.8 554.8 311.5C551.7 314.4 547.5 315.4 543.4 315.3C535.9 315.1 528.1 312.2 520.9 310.3C504.8 306.1 488.8 301.5 472.9 296.9C445.1 288.9 417.1 281 388.3 277.4C354.4 273.1 320.1 275 286.3 279.7C281.6 280.9 276.9 282.1 272.2 283.3C281.8 308.3 293.3 333.5 311 353.9C316.5 360.3 323.5 367.7 318.3 376.6C314.1 383.7 304.3 388.2 297.4 392.1C288.6 397.1 279.8 405.2 269.5 406.8C261.4 408.1 257.3 402.5 253.2 396.6C242.8 381.9 235.6 365.6 227.8 349.4C219.6 332.4 213.4 314.8 207.9 296.7C207.8 296.7 207.7 296.7 207.6 296.7C203.2 297.5 197.7 299.3 193.2 298.4C189.5 297.6 187.1 294.5 184.8 291.8C178.4 284.2 172.8 276 168.2 267.2C159.2 250.1 153.9 231 152.8 211.7C152.3 203.3 151.9 193.7 158.9 187.7C165.9 181.7 176.7 180.3 185.3 177.9C208.8 171.5 232.4 165.5 256 159.8C263.4 156.5 270.7 152.9 277.7 149C330.9 119.5 374.4 75.6999 416.2 32.1999C425.3 22.7999 434.3 12.7999 445.6 6.09995C455 0.499948 466.9 -2.40005 474.3 7.59995C484.4 21.1999 490.8 38.1999 497.3 53.5999C506.2 74.8999 514.4 96.4999 521.8 118.5C531.5 117.6 541.5 115.8 551.3 116.6C561.5 117.3 566 128.4 569.2 136.8C572.6 146.1 576.6 157.4 571.7 166.9ZM557.6 299.2C558.7 292.3 557.6 285.3 556.8 278.4C555.8 270.2 554.7 262 553.3 253.8C550.7 238.1 547.5 222.6 543.9 207.1C530.8 150.8 512.9 94.7999 489.3 41.9999C485.7 33.9999 482 25.9999 477.7 18.3999C473.8 11.3999 469.5 2.79995 460.1 3.49995C455.4 3.89995 450.9 5.79995 446.7 8.39995C457.1 24.5999 463.8 43.7999 470.8 61.5999C479 82.4999 486.7 103.5 494.1 124.7C498.9 138.5 503.8 152.4 507.7 166.6C514.6 191.7 520.6 217 526.1 242.5C531.1 265.5 536 288.7 538.3 312.2C542.4 313.1 546.5 313.4 550.3 311.6C554.9 309.2 556.9 304 557.6 299.2Z" fill="#333333"/>
<path d="M219.4 198.6C220.6 199.9 218.6 202 217.9 202.6C217.1 203.2 215.9 203.6 215 204C212.1 205.3 209 206.3 205.9 207.2C200.4 208.8 194.9 210.3 189.3 211.4C188.7 211.5 187.6 212 187 211.8C185.2 211.3 184.8 209.3 186.1 207.9C189 204.7 195.7 203.5 199.8 202.4C204.9 200.7 211.4 197.6 216.9 198C217.4 198.1 219 198.2 219.4 198.6Z" fill="#C3AE7C"/>
<path d="M223.7 217.7C227.2 220.3 223.7 222 222.2 222.8C217.2 225.3 211.3 226.8 205.9 228.4C203.1 229.3 200.3 230 197.5 230.7C196.2 231 194.6 231.7 193.3 231.6C188.8 231.2 189.8 228.2 193.2 226.3C197.7 223.9 203.3 223 208.2 221.4C211.2 220.4 214.1 219.3 217.2 218.5C218.6 218.1 222.7 217 223.7 217.7Z" fill="#C3AE7C"/>
<path d="M556.8 278.4C557.7 285.3 558.7 292.3 557.6 299.2C556.8 304 554.9 309.2 550.3 311.4C546.5 313.2 542.4 312.9 538.3 312C536 288.6 531.1 265.3 526.1 242.3C520.6 216.9 514.6 191.5 507.7 166.4C503.8 152.3 498.9 138.4 494.1 124.5C486.7 103.3 479 82.2999 470.8 61.3999C463.8 43.5999 457.2 24.3999 446.7 8.19988C450.9 5.69988 455.4 3.69988 460.1 3.29988C469.4 2.59988 473.8 11.1999 477.7 18.1999C481.9 25.8999 485.7 33.7999 489.3 41.7999C512.9 94.5999 530.8 150.6 544 206.9C547.6 222.4 550.8 237.9 553.4 253.6C554.7 261.9 555.8 270.2 556.8 278.4Z" fill="#D0B87D"/>
<path d="M286.9 276.9C286.5 276.9 286.2 277 285.8 277C285.7 277 285.6 277 285.5 277.1C285.4 277.1 285.3 277.1 285.2 277.2C264.9 282.6 244.3 287.2 223.6 291.2C218.5 292.2 213.5 293.1 208.4 294C203 294.9 194.6 298 190.1 294C183.6 288.2 178.4 279.8 173.9 272.4C164.3 256.2 158 237.9 155.9 219.1C154.9 210.6 152.8 197.8 159.2 190.9C165.5 184.2 177.3 182.8 185.7 180.5C208.8 174.2 231.9 168.3 255.1 162.8C264.8 201.1 275.7 239 286.9 276.9ZM228.1 220.1C230.1 210.2 210.7 217.8 207.5 218.8C202.5 220.4 197.4 221.7 192.5 223.7C189.8 224.8 187.7 226 187.4 229.1C186.6 238.5 201.8 232.4 205.9 231.1C211 229.6 216.3 228 221.2 226C224.1 225 227.5 223.4 228.1 220.1ZM206.7 209.8C210 208.8 227.8 204 222.4 197.4C217.7 191.6 204.1 198.2 199 199.8C194.2 201.2 186.9 202.6 183.5 206.7C181.1 209.5 181.9 213.9 185.9 214.4C188.1 214.7 190.8 213.7 192.8 213.2C197.5 212.4 202.1 211.2 206.7 209.8Z" fill="#D0B87D"/>
<path d="M538.3 312.1C542.4 313 546.5 313.3 550.3 311.5C555 309.2 556.9 304.1 557.6 299.3C558.7 292.4 557.6 285.4 556.8 278.5C556.2 273.3 555.5 268.1 554.7 262.9C546.2 259.4 537.4 256.3 528.5 253.6C532.6 272.9 536.4 292.4 538.3 312.1Z" fill="#E6E6E6"/>
<path d="M281.4 248.6C284.1 257.9 286.9 267.3 289.6 276.6C297.1 275.6 304.5 274.7 312 274C342.2 271.2 372.6 271.7 402.5 276.8C429.8 281.4 456.3 289.4 482.8 297C498.9 301.6 515 306.2 531.2 310.3C532.6 310.7 534 311.1 535.5 311.4C533.6 291.7 529.8 272.1 525.6 252.6C449.2 230.4 359 235.6 281.4 248.6Z" fill="#E6E6E6"/>
<path d="M190.2 293.9C194.8 298 203.1 294.8 208.5 293.9C213.6 293 218.6 292.1 223.7 291.1C244.4 287.2 264.9 282.5 285.3 277.1C285.4 277.1 285.5 277 285.6 277C285.7 277 285.8 276.9 285.9 276.9C286.2 276.9 286.6 276.8 287 276.8C284.2 267.5 281.5 258.2 278.8 248.9C239.4 255.6 203.4 264.2 174.1 272.3C178.5 279.8 183.7 288.1 190.2 293.9Z" fill="#E6E6E6"/>
<path d="M233.5 319.9C232.9 305.8 257 297 273 292.7C271.8 289.8 270.7 286.8 269.5 283.9C249.9 288.7 230.2 292.8 210.4 296.3C216.1 315 222.6 333.1 231.2 350.7C238.5 365.6 245.1 380.5 254.5 394.1C256.4 396.9 258.4 400.2 261 402.4C265.4 406 271.2 404.1 275.8 401.9C261.8 380.1 234.2 335.6 233.5 319.9Z" fill="#E6E6E6"/>
<path d="M177.6 237.4C181.3 242 176.2 246.9 172.8 249.6C164.3 256.6 153.9 261.6 144.1 266.4C136.2 270.3 127.9 268.5 119.5 267.4C113.7 266.7 106.2 264.7 101.8 269.5C95.7998 276 93.3998 285.3 92.5998 293.9C92.2998 297.6 92.2998 301 92.6998 304.4C92.7998 304.7 92.7998 305 92.8998 305.3C93.3998 308.1 94.0998 310.9 95.2998 313.7C99.2998 323 104.3 331.8 107.9 341.3C110.6 348.3 109.9 355.8 107.8 363.2C105.2 372 100.5 380.5 96.5998 387.7C93.8998 392.8 91.0998 398.1 87.5998 402.7C85.3998 405.8 81.1998 409 77.1998 408.8C72.6998 408.6 72.3998 404.2 72.8998 400.7C74.9998 386.6 85.6998 374.6 86.7998 360.3C87.3998 353.3 81.0998 348.4 75.7998 344.9C70.8998 341.6 65.5998 339 60.3998 336.1C55.3998 333.4 49.6998 330.7 46.1998 326.1C38.1998 315.3 42.2998 303.6 46.1998 292.2C50.2998 280.4 54.9998 268.5 61.6998 257.9C64.0998 254.1 66.7998 250.3 70.3998 247.6C73.5998 245.5 77.4998 244.4 81.6998 244.1C88.2998 243.5 95.3998 244.5 101.1 245.5C111.4 247.1 121.2 251.8 131.5 252.7C141.5 253.6 150.6 246.6 159.1 242.2C162.8 240.5 174.3 233.3 177.6 237.4Z" fill="white"/>
<path d="M152.7 211.7C152.7 211.2 152.6 210.8 152.6 210.3C151.8 211 150.9 211.8 150.2 212.3C143.3 217.8 136.1 223.5 128 227C127.9 227 127.9 227 127.8 227.1C126 234.7 122 241.6 115.8 246.2C117.2 246.6 118.6 247 119.9 247.5C132.5 242.1 144.1 234.6 154.1 225.2C153.4 220.7 152.9 216.2 152.7 211.7Z" fill="white"/>
<path d="M109 190.6C129.7 200 132.3 233 112.5 245.2C102.6 242.5 91.8 240.9 81.6 241.8C81.3 241.8 81.1 241.8 80.8 241.9C78.9 242.1 76.9 242.4 75 242.9C59.6 234.9 59.4 214.5 68 201.4C75.8 189.5 90.4 185.8 103.8 188.9C105.7 189.3 107.4 189.9 109 190.6ZM113.1 217.9C113.3 219.6 115.9 218.9 115.7 217.2C115.3 214.5 114.7 212 113.7 209.5C113.1 207.9 110.5 208.6 111.1 210.2C112.1 212.7 112.8 215.2 113.1 217.9Z" fill="white"/>
<path d="M113.7 209.4C114.7 211.9 115.3 214.5 115.7 217.1C115.9 218.8 113.4 219.5 113.1 217.8C112.7 215.1 112.1 212.6 111.1 210.1C110.5 208.5 113.1 207.9 113.7 209.4Z" fill="#333333"/>
<path d="M104.2 299.9C104.6 302.2 102.5 304.4 100.9 306.3C98.8999 305.4 96.9999 304.5 94.9999 303.6C93.9999 295.9 95.6999 287.2 98.2999 280.5C98.8999 278.8 99.7999 276.7 101 274.8C101 280.1 101.2 285.4 102 290.6C102.4 293.8 103.6 296.8 104.2 299.9Z" fill="#659CD0"/>
<path d="M73.1999 346.3C72.1999 350.8 71.5999 355.4 70.1999 359.9C68.1999 366.2 64.4999 371 59.9999 375.7C51.4999 384.5 41.9999 392.9 31.5999 399.5C29.5999 400.8 26.7999 402.8 24.3999 402.7C20.4999 402.7 19.2999 398.5 20.0999 395.3C21.1999 391 24.5999 387.2 27.3999 383.9C32.9999 377.4 39.7999 372 45.1999 365.3C52.2999 356.5 51.1999 345 51.5999 334.4C58.3999 338.6 66.2999 341.8 73.1999 346.3Z" fill="white"/>
<path d="M178.2 234.3C174.7 231.7 169.1 234.8 165.7 236.3C160.3 238.6 155.1 241.5 149.9 244.2C144.3 247.1 138.8 250.6 132.3 250.1C129.4 249.9 126.6 249.3 123.9 248.5C134.7 243.6 144.7 237.1 153.6 229.1C154 228.8 154.3 228.4 154.7 228.1C154.5 227.1 154.3 226.1 154.2 225C144.3 234.4 132.6 242 120 247.3C118.6 246.9 117.3 246.5 115.9 246C122.1 241.4 126.2 234.5 127.9 226.9C128 226.9 128 226.9 128.1 226.8C136.2 223.3 143.4 217.5 150.3 212.1C151 211.5 151.9 210.8 152.7 210.1C152.6 209.1 152.6 208 152.6 206.9C144.9 212.8 137.4 219.5 128.6 223.7C130.2 212.9 127.1 201.5 118.8 194.1C116.1 191.7 113.2 189.8 110.1 188.3C103.5 185.2 95.9999 184.2 88.3999 185.5C75.8999 187.6 66.6999 195.5 61.9999 207.2C56.8999 219.9 59.9999 236.3 71.7999 243.9C70.9999 244.2 70.2999 244.7 69.4999 245.1C69.3999 245.1 69.2999 245.2 69.1999 245.3C61.2999 251.2 56.3999 261.3 52.2999 270C49.5999 275.8 47.1999 281.8 44.9999 287.8C42.6999 294.1 39.8999 300.7 38.8999 307.4C37.4999 316.5 41.2999 327 48.8999 332.4C48.8999 332.5 48.8999 332.6 48.8999 332.7C48.5999 339.5 49.0999 346.5 47.7999 353.2C46.6999 358.8 43.5999 363 39.7999 367C32.6999 374.3 24.1999 381.2 19.2999 390.2C15.5999 396.8 17.2999 407.9 27.0999 404.5C32.5999 402.6 37.4999 398.5 41.9999 395C47.3999 390.8 52.5999 386.4 57.4999 381.6C62.7999 376.5 68.1999 371.2 71.1999 364.4C73.5999 359 74.2999 353.3 75.5999 347.7C77.3999 349 79.0999 350.4 80.5999 352C83.6999 355.2 84.7999 357.9 83.8999 362.2C83.1999 366 81.6999 369.6 80.2999 373.1C77.0999 380.9 73.1999 388.5 71.0999 396.7C69.7999 401.5 68.7999 408.8 74.7999 411C80.9999 413.3 87.5999 407.7 90.6999 402.9C98.4999 391.1 106 377.6 110.1 363.8C110.6 362.1 111.1 360.3 111.5 358.6C113.4 350.5 112.2 344.3 109 336.7C104.9 327.2 99.2999 318.1 96.1999 308.3C95.9999 307.8 95.8999 307.3 95.6999 306.7C97.3999 307.5 99.0999 308.2 100.8 309C101.5 309.3 102.2 309.2 102.6 308.5C104 306.4 105.6 304.4 107.4 302.6C107.7 302.3 107.9 301.7 107.7 301.3C103.9 291.8 103.8 281.7 103.7 271.6C103.7 271.5 103.7 271.4 103.6 271.2C104.8 270.1 106.1 269.3 107.7 269.1C111.6 268.7 115.7 269.5 119.6 269.9C127.5 270.9 136.4 272.9 143.9 269.3C154.1 264.4 164.5 259.2 173.5 252.3C178.4 248.6 185.9 240 178.2 234.3ZM68.0999 201.4C75.8999 189.5 90.4999 185.8 103.9 188.9C105.7 189.3 107.4 189.9 109 190.6C129.7 200 132.3 233 112.5 245.2C102.6 242.5 91.7999 240.9 81.5999 241.8C81.2999 241.8 81.0999 241.8 80.7999 241.9C78.8999 242.1 76.8999 242.4 74.9999 242.9C59.5999 234.9 59.3999 214.5 68.0999 201.4ZM70.0999 359.8C68.0999 366.1 64.3999 370.9 59.8999 375.6C51.3999 384.4 41.8999 392.8 31.4999 399.4C29.4999 400.7 26.6999 402.7 24.2999 402.6C20.3999 402.6 19.1999 398.4 19.9999 395.2C21.0999 390.9 24.4999 387.1 27.2999 383.8C32.8999 377.3 39.6999 371.9 45.0999 365.2C52.1999 356.4 51.0999 344.9 51.4999 334.3C58.3999 338.6 66.2999 341.8 73.0999 346.3C72.0999 350.8 71.5999 355.4 70.0999 359.8ZM104.2 299.9C104.6 302.2 102.5 304.4 100.9 306.3C98.8999 305.4 96.9999 304.5 94.9999 303.6C93.9999 295.9 95.6999 287.2 98.2999 280.5C98.8999 278.8 99.7999 276.7 101 274.8C101 280.1 101.2 285.4 102 290.6C102.4 293.8 103.6 296.8 104.2 299.9ZM172.8 249.6C164.3 256.6 153.9 261.6 144.1 266.4C136.2 270.3 127.9 268.5 119.5 267.4C113.7 266.7 106.2 264.7 101.8 269.5C95.7999 276 93.3999 285.3 92.5999 294C92.2999 297.7 92.2999 301.1 92.6999 304.5C92.6999 304.8 92.7999 305.1 92.8999 305.4C93.3999 308.2 94.0999 311 95.2999 313.8C99.2999 323.1 104.3 331.9 107.9 341.4C110.6 348.4 109.9 355.9 107.8 363.3C105.2 372.1 100.5 380.6 96.5999 387.8C93.8999 392.9 91.0999 398.2 87.5999 402.8C85.3999 405.9 81.1999 409.1 77.1999 408.9C72.6999 408.7 72.3999 404.3 72.8999 400.8C74.9999 386.7 85.6999 374.7 86.7999 360.4C87.3999 353.4 81.0999 348.5 75.7999 345C70.8999 341.7 65.5999 339.1 60.3999 336.2C55.3999 333.5 49.6999 330.8 46.1999 326.2C38.1999 315.4 42.2999 303.7 46.1999 292.3C50.2999 280.5 54.9999 268.6 61.6999 258C64.0999 254.2 66.7999 250.4 70.3999 247.7C73.5999 245.6 77.4999 244.5 81.6999 244.2C88.2999 243.6 95.3999 244.6 101.1 245.6C111.4 247.3 121.2 251.9 131.5 252.8C141.5 253.7 150.6 246.7 159.1 242.3C162.6 240.5 174.1 233.3 177.4 237.5C181.2 242 176.1 246.9 172.8 249.6Z" fill="#333333"/>
<path d="M152.7 211.7C152.7 211.2 152.6 210.8 152.6 210.3C151.8 211 150.9 211.8 150.2 212.3C149.4 212.9 148.6 213.6 147.7 214.3C147.6 219.4 147.5 225.7 147.6 230.7C149.8 228.9 152 227 154.1 225.1C153.4 220.7 152.9 216.2 152.7 211.7Z" fill="#E6E6E6"/>
<path d="M169.5 264C175.8 259 184.7 249.5 183.5 244.2C183 242.1 182.4 241.3 181.5 240.5C181.3 245.1 176.8 249.8 173.4 252.4C171.1 254.1 168.8 255.8 166.3 257.3C167.3 259.7 168.4 261.9 169.5 264Z" fill="#E6E6E6"/>
</svg>
