<svg width="18" height="18" viewBox="0 0 18 18" fill="none" xmlns="http://www.w3.org/2000/svg">
<path fill-rule="evenodd" clip-rule="evenodd" d="M15.7641 16.0718C14.5514 17.2053 12.9377 17.8965 11.1663 17.8965C7.3991 17.8965 4.34521 14.7703 4.34521 10.9138C4.34521 7.05732 7.3991 3.93103 11.1663 3.93103C12.9377 3.93103 14.5514 4.62231 15.7641 5.75574V7.80913C14.7786 6.28275 13.0873 5.27586 11.1662 5.27586C8.1246 5.27586 5.65887 7.80005 5.65887 10.9138C5.65887 14.0275 8.1246 16.5517 11.1662 16.5517C13.0873 16.5517 14.7786 15.5448 15.7641 14.0185V16.0718Z" fill="#707A8A"/>
<rect x="1.41467" width="1.21263" height="18" fill="#707A8A"/>
<path d="M17.2799 0L16.5725 1.24138L1.41464 1.24138L1.41464 -7.09933e-07L17.2799 0Z" fill="#707A8A"/>
<path d="M16.3705 2.06897L15.7136 3.31035L1.4147 3.31035L1.4147 2.06897L16.3705 2.06897Z" fill="#707A8A"/>
<path d="M14.1473 11.5862L13.3293 12.8276L-2.86483e-05 12.8276L-2.85953e-05 11.5862L14.1473 11.5862Z" fill="#707A8A"/>
<path d="M14.8546 9.51721L14.3494 10.7586L-0.000120864 10.7586L-0.000120811 9.51721L14.8546 9.51721Z" fill="#707A8A"/>
</svg>
