<svg width="80" height="71" viewBox="0 0 80 71" fill="none" xmlns="http://www.w3.org/2000/svg">
<path d="M2.72363 56.0312C3.13379 56.0312 3.84473 56.013 4.85645 55.9766C5.86816 55.9401 6.62923 55.9219 7.13965 55.9219C7.17611 56.1862 7.24447 56.5371 7.34473 56.9746C7.4541 57.403 7.5179 57.6719 7.53613 57.7812C7.49056 57.8268 7.40853 57.8496 7.29004 57.8496C7.17155 57.8496 7.10775 57.8177 7.09863 57.7539C6.96191 57.2526 6.77051 56.9336 6.52441 56.7969C6.27832 56.651 5.94108 56.5781 5.5127 56.5781H4.59668C3.81283 56.5781 3.41178 56.6374 3.39355 56.7559C3.34798 56.9746 3.3252 57.3574 3.3252 57.9043V60.1328C3.3252 60.1875 3.5166 60.2148 3.89941 60.2148H4.62402C5.2347 60.2148 5.6084 60.1738 5.74512 60.0918C5.88184 60.0007 6.00033 59.75 6.10059 59.3398C6.1097 59.2852 6.11882 59.2441 6.12793 59.2168C6.13704 59.153 6.2054 59.1211 6.33301 59.1211C6.44238 59.1211 6.51986 59.1439 6.56543 59.1895V61.8418C6.52897 61.8783 6.45605 61.8965 6.34668 61.8965C6.22819 61.8965 6.15527 61.86 6.12793 61.7871C6.06413 61.541 6.00944 61.3587 5.96387 61.2402C5.91829 61.1126 5.88184 61.0397 5.85449 61.0215C5.83626 60.9941 5.7998 60.9622 5.74512 60.9258C5.62663 60.8529 5.14355 60.8164 4.2959 60.8164C3.64876 60.8164 3.3252 60.8574 3.3252 60.9395V63.0996C3.3252 63.6283 3.36621 64.0521 3.44824 64.3711C3.46647 64.4349 3.59408 64.4987 3.83105 64.5625C4.06803 64.6172 4.2321 64.6445 4.32324 64.6445C4.3597 64.6445 4.37793 64.7129 4.37793 64.8496C4.37793 64.9225 4.36882 64.9863 4.35059 65.041C3.43913 64.9954 2.91048 64.9727 2.76465 64.9727C2.71908 64.9727 2.1722 64.9954 1.12402 65.041C1.08757 65.0046 1.06934 64.9362 1.06934 64.8359C1.06934 64.7083 1.08757 64.6445 1.12402 64.6445C1.24251 64.6445 1.41569 64.6172 1.64355 64.5625C1.88053 64.5078 2.0127 64.444 2.04004 64.3711C2.10384 64.125 2.13574 63.7148 2.13574 63.1406V57.877C2.13574 57.3392 2.10384 56.9473 2.04004 56.7012C2.0127 56.6283 1.87598 56.5599 1.62988 56.4961C1.3929 56.4323 1.21517 56.4004 1.09668 56.4004C1.06022 56.4004 1.04199 56.3457 1.04199 56.2363C1.04199 56.1178 1.06022 56.0404 1.09668 56.0039C1.57064 56.0221 2.11296 56.0312 2.72363 56.0312ZM9.38184 57.3848C9.25423 57.248 9.19043 57.084 9.19043 56.8926C9.19043 56.7012 9.25423 56.5417 9.38184 56.4141C9.51855 56.2773 9.68262 56.209 9.87402 56.209C10.0654 56.209 10.2249 56.2773 10.3525 56.4141C10.4893 56.5417 10.5576 56.7012 10.5576 56.8926C10.5576 57.084 10.4893 57.248 10.3525 57.3848C10.2249 57.5124 10.0654 57.5762 9.87402 57.5762C9.68262 57.5762 9.51855 57.5124 9.38184 57.3848ZM10.5029 63.1543C10.5029 63.6829 10.5394 64.0885 10.6123 64.3711C10.6305 64.4349 10.749 64.4987 10.9678 64.5625C11.1865 64.6172 11.3415 64.6445 11.4326 64.6445C11.46 64.6445 11.4782 64.6992 11.4873 64.8086C11.4964 64.918 11.4919 64.9954 11.4736 65.041C10.5622 64.9954 10.0745 64.9727 10.0107 64.9727C9.94694 64.9727 9.4502 64.9954 8.52051 65.041C8.48405 65.0046 8.46582 64.9316 8.46582 64.8223C8.46582 64.7038 8.48405 64.6445 8.52051 64.6445C8.62988 64.6445 8.78939 64.6172 8.99902 64.5625C9.21777 64.4987 9.33626 64.4349 9.35449 64.3711C9.41829 64.1068 9.4502 63.7878 9.4502 63.4141V60.8301C9.4502 60.4746 9.38639 60.2285 9.25879 60.0918C9.16764 59.9824 9.05371 59.9095 8.91699 59.873C8.78939 59.8275 8.68001 59.8047 8.58887 59.8047C8.50684 59.8047 8.46582 59.7956 8.46582 59.7773C8.46582 59.5586 8.49316 59.4447 8.54785 59.4355C9.514 59.2897 10.1429 59.1712 10.4346 59.0801L10.4619 59.0664C10.4801 59.0664 10.4938 59.0664 10.5029 59.0664C10.5394 59.0664 10.5622 59.1074 10.5713 59.1895C10.5804 59.2624 10.5804 59.3171 10.5713 59.3535C10.5257 59.7181 10.5029 60.0462 10.5029 60.3379V63.1543ZM16.1084 59.0117C16.7464 59.0117 17.193 59.2396 17.4482 59.6953C17.7035 60.151 17.8311 60.8893 17.8311 61.9102V63.1543C17.8311 63.6829 17.8675 64.0885 17.9404 64.3711C17.9587 64.4349 18.0771 64.4987 18.2959 64.5625C18.5146 64.6172 18.6696 64.6445 18.7607 64.6445C18.7881 64.6445 18.8063 64.6992 18.8154 64.8086C18.8245 64.918 18.82 64.9954 18.8018 65.041C17.8903 64.9954 17.4027 64.9727 17.3389 64.9727C17.3206 64.9727 16.8421 64.9954 15.9033 65.041C15.8669 65.0046 15.8486 64.9316 15.8486 64.8223C15.8486 64.7038 15.8669 64.6445 15.9033 64.6445C16.0127 64.6445 16.1631 64.6172 16.3545 64.5625C16.555 64.4987 16.6644 64.4349 16.6826 64.3711C16.7464 64.1068 16.7783 63.7878 16.7783 63.4141V62.0469C16.7783 61.1992 16.6689 60.6204 16.4502 60.3105C16.2314 60.0007 15.876 59.8457 15.3838 59.8457C15.0921 59.8457 14.8096 59.9551 14.5361 60.1738C14.2718 60.3835 14.1396 60.5749 14.1396 60.748V63.1543C14.1396 63.6829 14.1761 64.0885 14.249 64.3711C14.2673 64.4349 14.3857 64.4987 14.6045 64.5625C14.8232 64.6172 14.9782 64.6445 15.0693 64.6445C15.0967 64.6445 15.1149 64.6992 15.124 64.8086C15.1331 64.918 15.1286 64.9954 15.1104 65.041C14.1989 64.9954 13.7113 64.9727 13.6475 64.9727C13.5928 64.9727 13.096 64.9954 12.1572 65.041C12.1208 65.0046 12.1025 64.9316 12.1025 64.8223C12.1025 64.7038 12.1208 64.6445 12.1572 64.6445C12.2666 64.6445 12.4261 64.6172 12.6357 64.5625C12.8545 64.4987 12.973 64.4349 12.9912 64.3711C13.055 64.1068 13.0869 63.7878 13.0869 63.4141V60.8301C13.0869 60.4746 13.0231 60.2285 12.8955 60.0918C12.8044 59.9824 12.6904 59.9095 12.5537 59.873C12.4261 59.8275 12.3167 59.8047 12.2256 59.8047C12.1436 59.8047 12.1025 59.7956 12.1025 59.7773C12.1025 59.5586 12.1299 59.4447 12.1846 59.4355C13.1507 59.2897 13.7796 59.1712 14.0713 59.0801C14.0804 59.0801 14.0941 59.0801 14.1123 59.0801C14.1305 59.071 14.1396 59.0664 14.1396 59.0664C14.1761 59.0664 14.1989 59.1074 14.208 59.1895C14.2171 59.2624 14.2171 59.3171 14.208 59.3535C14.1715 59.6087 14.1533 59.791 14.1533 59.9004C14.1533 59.9368 14.1624 59.9551 14.1807 59.9551C14.1898 59.9551 14.2035 59.946 14.2217 59.9277C14.4313 59.709 14.7139 59.5039 15.0693 59.3125C15.4339 59.112 15.7803 59.0117 16.1084 59.0117ZM22.5205 59.5586C21.9919 59.5586 21.5771 59.7956 21.2764 60.2695C20.9756 60.7435 20.8252 61.2949 20.8252 61.9238C20.8252 62.5892 21.0029 63.168 21.3584 63.6602C21.7139 64.1432 22.2061 64.3848 22.835 64.3848C23.1449 64.3848 23.3864 64.3164 23.5596 64.1797C23.7327 64.0339 23.8193 63.8424 23.8193 63.6055V60.3516C23.8193 60.1602 23.7145 59.9824 23.5049 59.8184C23.3044 59.6452 22.9762 59.5586 22.5205 59.5586ZM22.6982 58.9844C23.0902 58.9844 23.432 59.0618 23.7236 59.2168C23.7874 59.2168 23.8193 59.1348 23.8193 58.9707V57.4941C23.8193 57.1842 23.792 56.8926 23.7373 56.6191C23.6917 56.4733 23.4593 56.4004 23.04 56.4004H22.917C22.8623 56.4004 22.835 56.3503 22.835 56.25C22.835 56.1042 22.8623 56.0312 22.917 56.0312C23.1904 56.0039 23.4411 55.9674 23.6689 55.9219C23.9059 55.8763 24.0882 55.8307 24.2158 55.7852C24.3525 55.7396 24.4665 55.6986 24.5576 55.6621C24.6488 55.6165 24.7171 55.5801 24.7627 55.5527L24.8174 55.5117H24.8447C24.8812 55.5117 24.9176 55.5391 24.9541 55.5938C24.9906 55.6393 25.0133 55.6849 25.0225 55.7305C24.9222 56.0221 24.8721 56.4186 24.8721 56.9199V63.0723C24.8721 63.5098 24.8994 63.8561 24.9541 64.1113C24.9723 64.1751 25.0225 64.2253 25.1045 64.2617C25.1865 64.2982 25.2686 64.321 25.3506 64.3301C25.4417 64.3392 25.5283 64.3438 25.6104 64.3438L25.7334 64.3574C25.7607 64.3665 25.7744 64.4212 25.7744 64.5215C25.7744 64.6582 25.7471 64.7266 25.6924 64.7266C25.5557 64.7357 25.4007 64.7539 25.2275 64.7812C25.0635 64.8086 24.904 64.8405 24.749 64.877C24.6032 64.9043 24.4665 64.9362 24.3389 64.9727C24.2113 65 24.1064 65.0273 24.0244 65.0547L23.9014 65.082C23.8467 65.082 23.8193 65.0046 23.8193 64.8496V64.6855C23.8193 64.6309 23.8011 64.6126 23.7646 64.6309C23.2542 64.9134 22.7712 65.0547 22.3154 65.0547C21.5589 65.0547 20.9255 64.7858 20.415 64.248C19.9046 63.7103 19.6494 63.0677 19.6494 62.3203C19.6494 61.4362 19.9593 60.6615 20.5791 59.9961C21.208 59.3216 21.9144 58.9844 22.6982 58.9844ZM32.3779 59.5586C31.8949 59.5586 31.4984 59.7819 31.1885 60.2285C30.8877 60.666 30.7373 61.2038 30.7373 61.8418C30.7373 62.5892 30.9287 63.2318 31.3115 63.7695C31.7035 64.2982 32.1592 64.5625 32.6787 64.5625C33.1618 64.5625 33.5583 64.3346 33.8682 63.8789C34.1781 63.4232 34.333 62.8763 34.333 62.2383C34.333 61.5 34.137 60.8711 33.7451 60.3516C33.3532 59.8229 32.8975 59.5586 32.3779 59.5586ZM32.5283 59.0254C33.3486 59.0254 34.0505 59.3216 34.6338 59.9141C35.2171 60.5065 35.5088 61.2174 35.5088 62.0469C35.5088 62.8854 35.2217 63.6055 34.6475 64.207C34.0824 64.7995 33.3851 65.0957 32.5557 65.0957C31.7262 65.0957 31.0199 64.7995 30.4365 64.207C29.8532 63.6055 29.5615 62.8854 29.5615 62.0469C29.5615 61.1992 29.8441 60.4837 30.4092 59.9004C30.9743 59.3171 31.6807 59.0254 32.5283 59.0254ZM41.9756 60.3379V63.0723C41.9756 63.4642 42.0075 63.8105 42.0713 64.1113C42.0895 64.1751 42.1396 64.2253 42.2217 64.2617C42.3037 64.2982 42.3903 64.321 42.4814 64.3301C42.5726 64.3392 42.6637 64.3438 42.7549 64.3438L42.8779 64.3574C42.9053 64.3665 42.9189 64.4167 42.9189 64.5078C42.9189 64.5352 42.9053 64.5807 42.8779 64.6445C42.8597 64.6992 42.8369 64.7266 42.8096 64.7266C42.6729 64.7357 42.5179 64.7539 42.3447 64.7812C42.1807 64.8086 42.0257 64.8405 41.8799 64.877C41.734 64.9134 41.5973 64.9499 41.4697 64.9863C41.3421 65.0228 41.2419 65.0547 41.1689 65.082L41.0459 65.1094C40.973 65.1094 40.9365 65.0365 40.9365 64.8906V64.1934L40.9092 64.125C40.3076 64.7721 39.7106 65.0957 39.1182 65.0957C38.7809 65.0957 38.4893 65.0137 38.2432 64.8496C38.0062 64.6764 37.8285 64.4531 37.71 64.1797C37.6006 63.8971 37.5231 63.6283 37.4775 63.373C37.432 63.1087 37.4092 62.8353 37.4092 62.5527V60.8301C37.4092 60.4746 37.3454 60.2285 37.2178 60.0918C37.1266 59.9824 37.0127 59.9095 36.876 59.873C36.7484 59.8275 36.639 59.8047 36.5479 59.8047C36.4658 59.8047 36.4248 59.7956 36.4248 59.7773C36.4248 59.5586 36.4521 59.4447 36.5068 59.4355C37.473 59.2897 38.1019 59.1712 38.3936 59.0801C38.4027 59.0801 38.4163 59.0801 38.4346 59.0801C38.4528 59.071 38.4619 59.0664 38.4619 59.0664C38.4984 59.0664 38.5212 59.1074 38.5303 59.1895C38.5394 59.2624 38.5394 59.3171 38.5303 59.3535C38.4756 59.791 38.4482 60.1283 38.4482 60.3652V62.2109C38.4482 62.9128 38.5531 63.4323 38.7627 63.7695C38.9723 64.0977 39.3141 64.2617 39.7881 64.2617C40.0615 64.2617 40.3213 64.1569 40.5674 63.9473C40.8135 63.7285 40.9365 63.5417 40.9365 63.3867V60.8301C40.9365 60.4746 40.8727 60.2285 40.7451 60.0918C40.654 59.9824 40.54 59.9095 40.4033 59.873C40.2757 59.8275 40.1663 59.8047 40.0752 59.8047C39.9932 59.8047 39.9521 59.7956 39.9521 59.7773C39.9521 59.5586 39.9795 59.4447 40.0342 59.4355C41.0003 59.2897 41.6292 59.1712 41.9209 59.0801C41.93 59.0801 41.9437 59.0801 41.9619 59.0801C41.9801 59.071 41.9893 59.0664 41.9893 59.0664C42.0257 59.0664 42.0485 59.1074 42.0576 59.1895C42.0667 59.2624 42.0667 59.3171 42.0576 59.3535C42.0029 59.791 41.9756 60.1191 41.9756 60.3379ZM44.1904 59.8867H43.3975C43.3519 59.8867 43.3291 59.791 43.3291 59.5996C43.3291 59.5449 43.3337 59.513 43.3428 59.5039C43.6071 59.3854 43.8942 59.1439 44.2041 58.7793C44.3044 58.6608 44.4001 58.5286 44.4912 58.3828C44.5915 58.2279 44.6735 58.0957 44.7373 57.9863C44.8011 57.877 44.833 57.8177 44.833 57.8086C45.1064 57.8086 45.2432 57.8314 45.2432 57.877V59.2305C45.4801 59.2305 45.8402 59.235 46.3232 59.2441C46.8063 59.2441 47.0615 59.2441 47.0889 59.2441C47.1618 59.2441 47.1982 59.2852 47.1982 59.3672C47.1982 59.5312 47.1527 59.7044 47.0615 59.8867H45.2432V63.2363C45.2432 63.6009 45.3343 63.8926 45.5166 64.1113C45.708 64.3301 45.9541 64.4395 46.2549 64.4395C46.5283 64.4395 46.8109 64.3529 47.1025 64.1797C47.1299 64.1615 47.1709 64.2025 47.2256 64.3027C47.2803 64.3939 47.3031 64.444 47.2939 64.4531C47.1572 64.599 46.9476 64.7448 46.665 64.8906C46.3825 65.0273 46.0908 65.0957 45.79 65.0957C45.3343 65.0957 44.9515 64.9453 44.6416 64.6445C44.3408 64.3438 44.1904 63.9154 44.1904 63.3594V59.8867ZM54.8955 59.0117C55.2601 59.0117 55.5609 59.112 55.7979 59.3125C56.0439 59.5039 56.2126 59.7272 56.3037 59.9824C56.9873 59.3353 57.6937 59.0117 58.4229 59.0117C59.5713 59.0117 60.1455 59.8867 60.1455 61.6367V63.1543C60.1455 63.6829 60.182 64.0885 60.2549 64.3711C60.2731 64.4349 60.3916 64.4987 60.6104 64.5625C60.8291 64.6172 60.984 64.6445 61.0752 64.6445C61.1025 64.6445 61.1208 64.6992 61.1299 64.8086C61.139 64.918 61.1344 64.9954 61.1162 65.041C60.2048 64.9954 59.7171 64.9727 59.6533 64.9727C59.5986 64.9727 59.1019 64.9954 58.1631 65.041C58.1266 65.0046 58.1084 64.9316 58.1084 64.8223C58.1084 64.7038 58.1266 64.6445 58.1631 64.6445C58.2725 64.6445 58.432 64.6172 58.6416 64.5625C58.8604 64.4987 58.9788 64.4349 58.9971 64.3711C59.0609 64.1068 59.0928 63.8151 59.0928 63.4961V61.9512C59.0928 60.5475 58.6325 59.8457 57.7119 59.8457C57.3747 59.8457 57.083 59.946 56.8369 60.1465C56.5908 60.3379 56.4678 60.4974 56.4678 60.625L56.4814 60.6797C56.4814 60.7161 56.4814 60.7389 56.4814 60.748C56.5179 60.9759 56.5361 61.304 56.5361 61.7324V63.2773C56.5361 63.724 56.5726 64.0885 56.6455 64.3711C56.6637 64.4349 56.7822 64.4987 57.001 64.5625C57.2197 64.6172 57.3747 64.6445 57.4658 64.6445C57.4932 64.6445 57.5114 64.6992 57.5205 64.8086C57.5296 64.918 57.5251 64.9954 57.5068 65.041C56.5954 64.9954 56.1077 64.9727 56.0439 64.9727C55.9893 64.9727 55.4925 64.9954 54.5537 65.041C54.5173 65.0046 54.499 64.9316 54.499 64.8223C54.499 64.7038 54.5173 64.6445 54.5537 64.6445C54.6631 64.6445 54.8226 64.6172 55.0322 64.5625C55.251 64.4987 55.3695 64.4349 55.3877 64.3711C55.4515 64.1068 55.4834 63.7878 55.4834 63.4141V62.0195C55.4834 60.5703 55.0459 59.8457 54.1709 59.8457C53.8975 59.8457 53.6195 59.9505 53.3369 60.1602C53.0635 60.3607 52.9268 60.5566 52.9268 60.748V63.1543C52.9268 63.6829 52.9632 64.0885 53.0361 64.3711C53.0544 64.4349 53.1729 64.4987 53.3916 64.5625C53.6104 64.6172 53.7653 64.6445 53.8564 64.6445C53.8838 64.6445 53.902 64.6992 53.9111 64.8086C53.9202 64.918 53.9157 64.9954 53.8975 65.041C52.986 64.9954 52.4984 64.9727 52.4346 64.9727C52.3799 64.9727 51.8831 64.9954 50.9443 65.041C50.9079 65.0046 50.8896 64.9316 50.8896 64.8223C50.8896 64.7038 50.9079 64.6445 50.9443 64.6445C51.0537 64.6445 51.2132 64.6172 51.4229 64.5625C51.6416 64.4987 51.7601 64.4349 51.7783 64.3711C51.8421 64.1068 51.874 63.7878 51.874 63.4141V60.8301C51.874 60.4746 51.8102 60.2285 51.6826 60.0918C51.5915 59.9824 51.4775 59.9095 51.3408 59.873C51.2132 59.8275 51.1038 59.8047 51.0127 59.8047C50.9307 59.8047 50.8896 59.7956 50.8896 59.7773C50.8896 59.5586 50.917 59.4447 50.9717 59.4355C51.9378 59.2897 52.5667 59.1712 52.8584 59.0801C52.8675 59.0801 52.8812 59.0801 52.8994 59.0801C52.9176 59.071 52.9268 59.0664 52.9268 59.0664C52.9632 59.0664 52.986 59.1074 52.9951 59.1895C53.0042 59.2624 53.0042 59.3171 52.9951 59.3535C52.9587 59.6087 52.9404 59.791 52.9404 59.9004C52.9404 59.9368 52.9495 59.9551 52.9678 59.9551C52.9769 59.9551 52.9906 59.946 53.0088 59.9277C53.2184 59.709 53.501 59.5039 53.8564 59.3125C54.221 59.112 54.5674 59.0117 54.8955 59.0117ZM64.7803 59.5586C64.2972 59.5586 63.9007 59.7819 63.5908 60.2285C63.29 60.666 63.1396 61.2038 63.1396 61.8418C63.1396 62.5892 63.3311 63.2318 63.7139 63.7695C64.1058 64.2982 64.5615 64.5625 65.0811 64.5625C65.5641 64.5625 65.9606 64.3346 66.2705 63.8789C66.5804 63.4232 66.7354 62.8763 66.7354 62.2383C66.7354 61.5 66.5394 60.8711 66.1475 60.3516C65.7555 59.8229 65.2998 59.5586 64.7803 59.5586ZM64.9307 59.0254C65.751 59.0254 66.4528 59.3216 67.0361 59.9141C67.6195 60.5065 67.9111 61.2174 67.9111 62.0469C67.9111 62.8854 67.624 63.6055 67.0498 64.207C66.4847 64.7995 65.7874 65.0957 64.958 65.0957C64.1286 65.0957 63.4222 64.7995 62.8389 64.207C62.2555 63.6055 61.9639 62.8854 61.9639 62.0469C61.9639 61.1992 62.2464 60.4837 62.8115 59.9004C63.3766 59.3171 64.083 59.0254 64.9307 59.0254ZM72.4365 59.0254C72.9743 59.0254 73.3298 59.1576 73.5029 59.4219C73.5029 59.7409 73.4528 59.9733 73.3525 60.1191C73.2523 60.265 73.1292 60.3379 72.9834 60.3379C72.8193 60.3379 72.6689 60.2604 72.5322 60.1055C72.3955 59.9505 72.2087 59.873 71.9717 59.873C71.6891 59.873 71.443 60.0052 71.2334 60.2695C71.0238 60.5339 70.9189 60.8118 70.9189 61.1035V63.1543C70.9189 63.6829 70.9554 64.0885 71.0283 64.3711C71.0465 64.4349 71.165 64.4987 71.3838 64.5625C71.6117 64.6172 71.7712 64.6445 71.8623 64.6445C71.8896 64.6445 71.9079 64.6992 71.917 64.8086C71.9261 64.918 71.9215 64.9954 71.9033 65.041C70.9919 64.9954 70.4997 64.9727 70.4268 64.9727C70.3721 64.9727 69.8753 64.9954 68.9365 65.041C68.9001 65.0046 68.8818 64.9316 68.8818 64.8223C68.8818 64.7038 68.9001 64.6445 68.9365 64.6445C69.0459 64.6445 69.2054 64.6172 69.415 64.5625C69.6338 64.4987 69.7523 64.4349 69.7705 64.3711C69.8343 64.1068 69.8662 63.7878 69.8662 63.4141V60.8301C69.8662 60.4746 69.8024 60.2285 69.6748 60.0918C69.5837 59.9824 69.4697 59.9095 69.333 59.873C69.2054 59.8275 69.096 59.8047 69.0049 59.8047C68.9229 59.8047 68.8818 59.7956 68.8818 59.7773C68.8818 59.5586 68.9092 59.4447 68.9639 59.4355C69.93 59.2897 70.5589 59.1712 70.8506 59.0801C70.8597 59.0801 70.8734 59.0801 70.8916 59.0801C70.9098 59.071 70.9189 59.0664 70.9189 59.0664C70.9554 59.0664 70.9782 59.1074 70.9873 59.1895C70.9964 59.2624 70.9964 59.3171 70.9873 59.3535L70.9053 60.0371C71.0693 59.791 71.2926 59.5632 71.5752 59.3535C71.8669 59.1348 72.154 59.0254 72.4365 59.0254ZM76.7021 59.5449C76.2282 59.5449 75.8636 59.75 75.6084 60.1602C75.3623 60.5612 75.2393 60.8939 75.2393 61.1582C75.2393 61.222 75.2666 61.2539 75.3213 61.2539H77.9873C78.0329 61.2539 78.0557 61.2083 78.0557 61.1172C78.0557 60.8255 77.9326 60.4928 77.6865 60.1191C77.4404 59.7363 77.1123 59.5449 76.7021 59.5449ZM76.8389 59.0391C77.2581 59.0391 77.6273 59.1211 77.9463 59.2852C78.2653 59.4401 78.5068 59.6452 78.6709 59.9004C78.8441 60.1465 78.9671 60.4017 79.04 60.666C79.1221 60.9212 79.1631 61.1764 79.1631 61.4316C79.1631 61.6139 79.1357 61.7279 79.0811 61.7734C79.0264 61.8099 78.9215 61.8281 78.7666 61.8281H75.3213C75.2484 61.8281 75.2119 61.8509 75.2119 61.8965C75.2119 62.4707 75.3851 62.9993 75.7314 63.4824C76.0778 63.9655 76.5791 64.207 77.2354 64.207C77.4268 64.207 77.609 64.1888 77.7822 64.1523C77.9554 64.1159 78.1012 64.0749 78.2197 64.0293C78.3473 63.9746 78.4521 63.9245 78.5342 63.8789C78.6253 63.8242 78.7028 63.7741 78.7666 63.7285L78.8623 63.6602C78.917 63.6602 78.9443 63.7194 78.9443 63.8379C78.9443 63.9108 78.917 63.9928 78.8623 64.084C78.68 64.3392 78.4111 64.5716 78.0557 64.7812C77.7002 64.9818 77.3128 65.082 76.8936 65.082C76.137 65.082 75.4854 64.7995 74.9385 64.2344C74.4007 63.6602 74.1318 62.9629 74.1318 62.1426C74.1318 61.1855 74.387 60.429 74.8975 59.873C75.417 59.3171 76.0641 59.0391 76.8389 59.0391Z" fill="white"/>
<path d="M24.2069 0H23V1.2069H24.2069V0Z" fill="white"/>
<path d="M25.4138 0H24.2069V1.2069H25.4138V0Z" fill="white"/>
<path d="M26.6207 0H25.4138V1.2069H26.6207V0Z" fill="white"/>
<path d="M27.8276 0H26.6207V1.2069H27.8276V0Z" fill="white"/>
<path d="M29.0345 0H27.8276V1.2069H29.0345V0Z" fill="white"/>
<path d="M30.2414 0H29.0345V1.2069H30.2414V0Z" fill="white"/>
<path d="M31.4483 0H30.2414V1.2069H31.4483V0Z" fill="white"/>
<path d="M33.8621 0H32.6552V1.2069H33.8621V0Z" fill="white"/>
<path d="M35.069 0H33.8621V1.2069H35.069V0Z" fill="white"/>
<path d="M38.6897 0H37.4828V1.2069H38.6897V0Z" fill="white"/>
<path d="M43.5172 0H42.3103V1.2069H43.5172V0Z" fill="white"/>
<path d="M44.7241 0H43.5172V1.2069H44.7241V0Z" fill="white"/>
<path d="M45.931 0H44.7241V1.2069H45.931V0Z" fill="white"/>
<path d="M47.1379 0H45.931V1.2069H47.1379V0Z" fill="white"/>
<path d="M48.3448 0H47.1379V1.2069H48.3448V0Z" fill="white"/>
<path d="M50.7586 0H49.5517V1.2069H50.7586V0Z" fill="white"/>
<path d="M51.9655 0H50.7586V1.2069H51.9655V0Z" fill="white"/>
<path d="M53.1724 0H51.9655V1.2069H53.1724V0Z" fill="white"/>
<path d="M54.3793 0H53.1724V1.2069H54.3793V0Z" fill="white"/>
<path d="M55.5862 0H54.3793V1.2069H55.5862V0Z" fill="white"/>
<path d="M56.7931 0H55.5862V1.2069H56.7931V0Z" fill="white"/>
<path d="M58 0H56.7931V1.2069H58V0Z" fill="white"/>
<path d="M24.2069 1.2069H23V2.41379H24.2069V1.2069Z" fill="white"/>
<path d="M31.4483 1.2069H30.2414V2.41379H31.4483V1.2069Z" fill="white"/>
<path d="M35.069 1.2069H33.8621V2.41379H35.069V1.2069Z" fill="white"/>
<path d="M39.8966 1.2069H38.6897V2.41379H39.8966V1.2069Z" fill="white"/>
<path d="M41.1034 1.2069H39.8966V2.41379H41.1034V1.2069Z" fill="white"/>
<path d="M45.931 1.2069H44.7241V2.41379H45.931V1.2069Z" fill="white"/>
<path d="M47.1379 1.2069H45.931V2.41379H47.1379V1.2069Z" fill="white"/>
<path d="M48.3448 1.2069H47.1379V2.41379H48.3448V1.2069Z" fill="white"/>
<path d="M50.7586 1.2069H49.5517V2.41379H50.7586V1.2069Z" fill="white"/>
<path d="M58 1.2069H56.7931V2.41379H58V1.2069Z" fill="white"/>
<path d="M24.2069 2.41379H23V3.62069H24.2069V2.41379Z" fill="white"/>
<path d="M26.6207 2.41379H25.4138V3.62069H26.6207V2.41379Z" fill="white"/>
<path d="M27.8276 2.41379H26.6207V3.62069H27.8276V2.41379Z" fill="white"/>
<path d="M29.0345 2.41379H27.8276V3.62069H29.0345V2.41379Z" fill="white"/>
<path d="M31.4483 2.41379H30.2414V3.62069H31.4483V2.41379Z" fill="white"/>
<path d="M38.6897 2.41379H37.4828V3.62069H38.6897V2.41379Z" fill="white"/>
<path d="M39.8966 2.41379H38.6897V3.62069H39.8966V2.41379Z" fill="white"/>
<path d="M43.5172 2.41379H42.3103V3.62069H43.5172V2.41379Z" fill="white"/>
<path d="M48.3448 2.41379H47.1379V3.62069H48.3448V2.41379Z" fill="white"/>
<path d="M50.7586 2.41379H49.5517V3.62069H50.7586V2.41379Z" fill="white"/>
<path d="M53.1724 2.41379H51.9655V3.62069H53.1724V2.41379Z" fill="white"/>
<path d="M54.3793 2.41379H53.1724V3.62069H54.3793V2.41379Z" fill="white"/>
<path d="M55.5862 2.41379H54.3793V3.62069H55.5862V2.41379Z" fill="white"/>
<path d="M58 2.41379H56.7931V3.62069H58V2.41379Z" fill="white"/>
<path d="M24.2069 3.62069H23V4.82759H24.2069V3.62069Z" fill="white"/>
<path d="M26.6207 3.62069H25.4138V4.82759H26.6207V3.62069Z" fill="white"/>
<path d="M27.8276 3.62069H26.6207V4.82759H27.8276V3.62069Z" fill="white"/>
<path d="M29.0345 3.62069H27.8276V4.82759H29.0345V3.62069Z" fill="white"/>
<path d="M31.4483 3.62069H30.2414V4.82759H31.4483V3.62069Z" fill="white"/>
<path d="M33.8621 3.62069H32.6552V4.82759H33.8621V3.62069Z" fill="white"/>
<path d="M35.069 3.62069H33.8621V4.82759H35.069V3.62069Z" fill="white"/>
<path d="M36.2759 3.62069H35.069V4.82759H36.2759V3.62069Z" fill="white"/>
<path d="M37.4828 3.62069H36.2759V4.82759H37.4828V3.62069Z" fill="white"/>
<path d="M44.7241 3.62069H43.5172V4.82759H44.7241V3.62069Z" fill="white"/>
<path d="M47.1379 3.62069H45.931V4.82759H47.1379V3.62069Z" fill="white"/>
<path d="M48.3448 3.62069H47.1379V4.82759H48.3448V3.62069Z" fill="white"/>
<path d="M50.7586 3.62069H49.5517V4.82759H50.7586V3.62069Z" fill="white"/>
<path d="M53.1724 3.62069H51.9655V4.82759H53.1724V3.62069Z" fill="white"/>
<path d="M54.3793 3.62069H53.1724V4.82759H54.3793V3.62069Z" fill="white"/>
<path d="M55.5862 3.62069H54.3793V4.82759H55.5862V3.62069Z" fill="white"/>
<path d="M58 3.62069H56.7931V4.82759H58V3.62069Z" fill="white"/>
<path d="M24.2069 4.82759H23V6.03448H24.2069V4.82759Z" fill="white"/>
<path d="M26.6207 4.82759H25.4138V6.03448H26.6207V4.82759Z" fill="white"/>
<path d="M27.8276 4.82759H26.6207V6.03448H27.8276V4.82759Z" fill="white"/>
<path d="M29.0345 4.82759H27.8276V6.03448H29.0345V4.82759Z" fill="white"/>
<path d="M31.4483 4.82759H30.2414V6.03448H31.4483V4.82759Z" fill="white"/>
<path d="M33.8621 4.82759H32.6552V6.03448H33.8621V4.82759Z" fill="white"/>
<path d="M36.2759 4.82759H35.069V6.03448H36.2759V4.82759Z" fill="white"/>
<path d="M38.6897 4.82759H37.4828V6.03448H38.6897V4.82759Z" fill="white"/>
<path d="M39.8966 4.82759H38.6897V6.03448H39.8966V4.82759Z" fill="white"/>
<path d="M41.1034 4.82759H39.8966V6.03448H41.1034V4.82759Z" fill="white"/>
<path d="M45.931 4.82759H44.7241V6.03448H45.931V4.82759Z" fill="white"/>
<path d="M47.1379 4.82759H45.931V6.03448H47.1379V4.82759Z" fill="white"/>
<path d="M50.7586 4.82759H49.5517V6.03448H50.7586V4.82759Z" fill="white"/>
<path d="M53.1724 4.82759H51.9655V6.03448H53.1724V4.82759Z" fill="white"/>
<path d="M54.3793 4.82759H53.1724V6.03448H54.3793V4.82759Z" fill="white"/>
<path d="M55.5862 4.82759H54.3793V6.03448H55.5862V4.82759Z" fill="white"/>
<path d="M58 4.82759H56.7931V6.03448H58V4.82759Z" fill="white"/>
<path d="M24.2069 6.03448H23V7.24138H24.2069V6.03448Z" fill="white"/>
<path d="M31.4483 6.03448H30.2414V7.24138H31.4483V6.03448Z" fill="white"/>
<path d="M33.8621 6.03448H32.6552V7.24138H33.8621V6.03448Z" fill="white"/>
<path d="M35.069 6.03448H33.8621V7.24138H35.069V6.03448Z" fill="white"/>
<path d="M36.2759 6.03448H35.069V7.24138H36.2759V6.03448Z" fill="white"/>
<path d="M37.4828 6.03448H36.2759V7.24138H37.4828V6.03448Z" fill="white"/>
<path d="M38.6897 6.03448H37.4828V7.24138H38.6897V6.03448Z" fill="white"/>
<path d="M43.5172 6.03448H42.3103V7.24138H43.5172V6.03448Z" fill="white"/>
<path d="M50.7586 6.03448H49.5517V7.24138H50.7586V6.03448Z" fill="white"/>
<path d="M58 6.03448H56.7931V7.24138H58V6.03448Z" fill="white"/>
<path d="M24.2069 7.24138H23V8.44828H24.2069V7.24138Z" fill="white"/>
<path d="M25.4138 7.24138H24.2069V8.44828H25.4138V7.24138Z" fill="white"/>
<path d="M26.6207 7.24138H25.4138V8.44828H26.6207V7.24138Z" fill="white"/>
<path d="M27.8276 7.24138H26.6207V8.44828H27.8276V7.24138Z" fill="white"/>
<path d="M29.0345 7.24138H27.8276V8.44828H29.0345V7.24138Z" fill="white"/>
<path d="M30.2414 7.24138H29.0345V8.44828H30.2414V7.24138Z" fill="white"/>
<path d="M31.4483 7.24138H30.2414V8.44828H31.4483V7.24138Z" fill="white"/>
<path d="M33.8621 7.24138H32.6552V8.44828H33.8621V7.24138Z" fill="white"/>
<path d="M36.2759 7.24138H35.069V8.44828H36.2759V7.24138Z" fill="white"/>
<path d="M38.6897 7.24138H37.4828V8.44828H38.6897V7.24138Z" fill="white"/>
<path d="M41.1034 7.24138H39.8966V8.44828H41.1034V7.24138Z" fill="white"/>
<path d="M43.5172 7.24138H42.3103V8.44828H43.5172V7.24138Z" fill="white"/>
<path d="M45.931 7.24138H44.7241V8.44828H45.931V7.24138Z" fill="white"/>
<path d="M48.3448 7.24138H47.1379V8.44828H48.3448V7.24138Z" fill="white"/>
<path d="M50.7586 7.24138H49.5517V8.44828H50.7586V7.24138Z" fill="white"/>
<path d="M51.9655 7.24138H50.7586V8.44828H51.9655V7.24138Z" fill="white"/>
<path d="M53.1724 7.24138H51.9655V8.44828H53.1724V7.24138Z" fill="white"/>
<path d="M54.3793 7.24138H53.1724V8.44828H54.3793V7.24138Z" fill="white"/>
<path d="M55.5862 7.24138H54.3793V8.44828H55.5862V7.24138Z" fill="white"/>
<path d="M56.7931 7.24138H55.5862V8.44828H56.7931V7.24138Z" fill="white"/>
<path d="M58 7.24138H56.7931V8.44828H58V7.24138Z" fill="white"/>
<path d="M33.8621 8.44828H32.6552V9.65517H33.8621V8.44828Z" fill="white"/>
<path d="M37.4828 8.44828H36.2759V9.65517H37.4828V8.44828Z" fill="white"/>
<path d="M38.6897 8.44828H37.4828V9.65517H38.6897V8.44828Z" fill="white"/>
<path d="M39.8966 8.44828H38.6897V9.65517H39.8966V8.44828Z" fill="white"/>
<path d="M42.3103 8.44828H41.1034V9.65517H42.3103V8.44828Z" fill="white"/>
<path d="M44.7241 8.44828H43.5172V9.65517H44.7241V8.44828Z" fill="white"/>
<path d="M48.3448 8.44828H47.1379V9.65517H48.3448V8.44828Z" fill="white"/>
<path d="M24.2069 9.65517H23V10.8621H24.2069V9.65517Z" fill="white"/>
<path d="M25.4138 9.65517H24.2069V10.8621H25.4138V9.65517Z" fill="white"/>
<path d="M26.6207 9.65517H25.4138V10.8621H26.6207V9.65517Z" fill="white"/>
<path d="M29.0345 9.65517H27.8276V10.8621H29.0345V9.65517Z" fill="white"/>
<path d="M31.4483 9.65517H30.2414V10.8621H31.4483V9.65517Z" fill="white"/>
<path d="M33.8621 9.65517H32.6552V10.8621H33.8621V9.65517Z" fill="white"/>
<path d="M35.069 9.65517H33.8621V10.8621H35.069V9.65517Z" fill="white"/>
<path d="M39.8966 9.65517H38.6897V10.8621H39.8966V9.65517Z" fill="white"/>
<path d="M42.3103 9.65517H41.1034V10.8621H42.3103V9.65517Z" fill="white"/>
<path d="M44.7241 9.65517H43.5172V10.8621H44.7241V9.65517Z" fill="white"/>
<path d="M49.5517 9.65517H48.3448V10.8621H49.5517V9.65517Z" fill="white"/>
<path d="M50.7586 9.65517H49.5517V10.8621H50.7586V9.65517Z" fill="white"/>
<path d="M51.9655 9.65517H50.7586V10.8621H51.9655V9.65517Z" fill="white"/>
<path d="M53.1724 9.65517H51.9655V10.8621H53.1724V9.65517Z" fill="white"/>
<path d="M54.3793 9.65517H53.1724V10.8621H54.3793V9.65517Z" fill="white"/>
<path d="M58 9.65517H56.7931V10.8621H58V9.65517Z" fill="white"/>
<path d="M24.2069 10.8621H23V12.069H24.2069V10.8621Z" fill="white"/>
<path d="M25.4138 10.8621H24.2069V12.069H25.4138V10.8621Z" fill="white"/>
<path d="M26.6207 10.8621H25.4138V12.069H26.6207V10.8621Z" fill="white"/>
<path d="M27.8276 10.8621H26.6207V12.069H27.8276V10.8621Z" fill="white"/>
<path d="M30.2414 10.8621H29.0345V12.069H30.2414V10.8621Z" fill="white"/>
<path d="M32.6552 10.8621H31.4483V12.069H32.6552V10.8621Z" fill="white"/>
<path d="M33.8621 10.8621H32.6552V12.069H33.8621V10.8621Z" fill="white"/>
<path d="M36.2759 10.8621H35.069V12.069H36.2759V10.8621Z" fill="white"/>
<path d="M37.4828 10.8621H36.2759V12.069H37.4828V10.8621Z" fill="white"/>
<path d="M38.6897 10.8621H37.4828V12.069H38.6897V10.8621Z" fill="white"/>
<path d="M41.1034 10.8621H39.8966V12.069H41.1034V10.8621Z" fill="white"/>
<path d="M43.5172 10.8621H42.3103V12.069H43.5172V10.8621Z" fill="white"/>
<path d="M44.7241 10.8621H43.5172V12.069H44.7241V10.8621Z" fill="white"/>
<path d="M45.931 10.8621H44.7241V12.069H45.931V10.8621Z" fill="white"/>
<path d="M48.3448 10.8621H47.1379V12.069H48.3448V10.8621Z" fill="white"/>
<path d="M51.9655 10.8621H50.7586V12.069H51.9655V10.8621Z" fill="white"/>
<path d="M58 10.8621H56.7931V12.069H58V10.8621Z" fill="white"/>
<path d="M26.6207 12.069H25.4138V13.2759H26.6207V12.069Z" fill="white"/>
<path d="M27.8276 12.069H26.6207V13.2759H27.8276V12.069Z" fill="white"/>
<path d="M29.0345 12.069H27.8276V13.2759H29.0345V12.069Z" fill="white"/>
<path d="M30.2414 12.069H29.0345V13.2759H30.2414V12.069Z" fill="white"/>
<path d="M31.4483 12.069H30.2414V13.2759H31.4483V12.069Z" fill="white"/>
<path d="M35.069 12.069H33.8621V13.2759H35.069V12.069Z" fill="white"/>
<path d="M36.2759 12.069H35.069V13.2759H36.2759V12.069Z" fill="white"/>
<path d="M37.4828 12.069H36.2759V13.2759H37.4828V12.069Z" fill="white"/>
<path d="M39.8966 12.069H38.6897V13.2759H39.8966V12.069Z" fill="white"/>
<path d="M41.1034 12.069H39.8966V13.2759H41.1034V12.069Z" fill="white"/>
<path d="M47.1379 12.069H45.931V13.2759H47.1379V12.069Z" fill="white"/>
<path d="M49.5517 12.069H48.3448V13.2759H49.5517V12.069Z" fill="white"/>
<path d="M53.1724 12.069H51.9655V13.2759H53.1724V12.069Z" fill="white"/>
<path d="M54.3793 12.069H53.1724V13.2759H54.3793V12.069Z" fill="white"/>
<path d="M55.5862 12.069H54.3793V13.2759H55.5862V12.069Z" fill="white"/>
<path d="M24.2069 13.2759H23V14.4828H24.2069V13.2759Z" fill="white"/>
<path d="M26.6207 13.2759H25.4138V14.4828H26.6207V13.2759Z" fill="white"/>
<path d="M27.8276 13.2759H26.6207V14.4828H27.8276V13.2759Z" fill="white"/>
<path d="M36.2759 13.2759H35.069V14.4828H36.2759V13.2759Z" fill="white"/>
<path d="M37.4828 13.2759H36.2759V14.4828H37.4828V13.2759Z" fill="white"/>
<path d="M38.6897 13.2759H37.4828V14.4828H38.6897V13.2759Z" fill="white"/>
<path d="M43.5172 13.2759H42.3103V14.4828H43.5172V13.2759Z" fill="white"/>
<path d="M44.7241 13.2759H43.5172V14.4828H44.7241V13.2759Z" fill="white"/>
<path d="M45.931 13.2759H44.7241V14.4828H45.931V13.2759Z" fill="white"/>
<path d="M49.5517 13.2759H48.3448V14.4828H49.5517V13.2759Z" fill="white"/>
<path d="M53.1724 13.2759H51.9655V14.4828H53.1724V13.2759Z" fill="white"/>
<path d="M58 13.2759H56.7931V14.4828H58V13.2759Z" fill="white"/>
<path d="M25.4138 14.4828H24.2069V15.6897H25.4138V14.4828Z" fill="white"/>
<path d="M26.6207 14.4828H25.4138V15.6897H26.6207V14.4828Z" fill="white"/>
<path d="M29.0345 14.4828H27.8276V15.6897H29.0345V14.4828Z" fill="white"/>
<path d="M30.2414 14.4828H29.0345V15.6897H30.2414V14.4828Z" fill="white"/>
<path d="M31.4483 14.4828H30.2414V15.6897H31.4483V14.4828Z" fill="white"/>
<path d="M32.6552 14.4828H31.4483V15.6897H32.6552V14.4828Z" fill="white"/>
<path d="M35.069 14.4828H33.8621V15.6897H35.069V14.4828Z" fill="white"/>
<path d="M37.4828 14.4828H36.2759V15.6897H37.4828V14.4828Z" fill="white"/>
<path d="M38.6897 14.4828H37.4828V15.6897H38.6897V14.4828Z" fill="white"/>
<path d="M39.8966 14.4828H38.6897V15.6897H39.8966V14.4828Z" fill="white"/>
<path d="M41.1034 14.4828H39.8966V15.6897H41.1034V14.4828Z" fill="white"/>
<path d="M43.5172 14.4828H42.3103V15.6897H43.5172V14.4828Z" fill="white"/>
<path d="M45.931 14.4828H44.7241V15.6897H45.931V14.4828Z" fill="white"/>
<path d="M47.1379 14.4828H45.931V15.6897H47.1379V14.4828Z" fill="white"/>
<path d="M51.9655 14.4828H50.7586V15.6897H51.9655V14.4828Z" fill="white"/>
<path d="M54.3793 14.4828H53.1724V15.6897H54.3793V14.4828Z" fill="white"/>
<path d="M55.5862 14.4828H54.3793V15.6897H55.5862V14.4828Z" fill="white"/>
<path d="M58 14.4828H56.7931V15.6897H58V14.4828Z" fill="white"/>
<path d="M24.2069 15.6897H23V16.8966H24.2069V15.6897Z" fill="white"/>
<path d="M25.4138 15.6897H24.2069V16.8966H25.4138V15.6897Z" fill="white"/>
<path d="M26.6207 15.6897H25.4138V16.8966H26.6207V15.6897Z" fill="white"/>
<path d="M29.0345 15.6897H27.8276V16.8966H29.0345V15.6897Z" fill="white"/>
<path d="M30.2414 15.6897H29.0345V16.8966H30.2414V15.6897Z" fill="white"/>
<path d="M33.8621 15.6897H32.6552V16.8966H33.8621V15.6897Z" fill="white"/>
<path d="M38.6897 15.6897H37.4828V16.8966H38.6897V15.6897Z" fill="white"/>
<path d="M42.3103 15.6897H41.1034V16.8966H42.3103V15.6897Z" fill="white"/>
<path d="M45.931 15.6897H44.7241V16.8966H45.931V15.6897Z" fill="white"/>
<path d="M47.1379 15.6897H45.931V16.8966H47.1379V15.6897Z" fill="white"/>
<path d="M48.3448 15.6897H47.1379V16.8966H48.3448V15.6897Z" fill="white"/>
<path d="M49.5517 15.6897H48.3448V16.8966H49.5517V15.6897Z" fill="white"/>
<path d="M50.7586 15.6897H49.5517V16.8966H50.7586V15.6897Z" fill="white"/>
<path d="M51.9655 15.6897H50.7586V16.8966H51.9655V15.6897Z" fill="white"/>
<path d="M53.1724 15.6897H51.9655V16.8966H53.1724V15.6897Z" fill="white"/>
<path d="M56.7931 15.6897H55.5862V16.8966H56.7931V15.6897Z" fill="white"/>
<path d="M24.2069 16.8966H23V18.1034H24.2069V16.8966Z" fill="white"/>
<path d="M25.4138 16.8966H24.2069V18.1034H25.4138V16.8966Z" fill="white"/>
<path d="M26.6207 16.8966H25.4138V18.1034H26.6207V16.8966Z" fill="white"/>
<path d="M27.8276 16.8966H26.6207V18.1034H27.8276V16.8966Z" fill="white"/>
<path d="M30.2414 16.8966H29.0345V18.1034H30.2414V16.8966Z" fill="white"/>
<path d="M31.4483 16.8966H30.2414V18.1034H31.4483V16.8966Z" fill="white"/>
<path d="M32.6552 16.8966H31.4483V18.1034H32.6552V16.8966Z" fill="white"/>
<path d="M33.8621 16.8966H32.6552V18.1034H33.8621V16.8966Z" fill="white"/>
<path d="M35.069 16.8966H33.8621V18.1034H35.069V16.8966Z" fill="white"/>
<path d="M36.2759 16.8966H35.069V18.1034H36.2759V16.8966Z" fill="white"/>
<path d="M37.4828 16.8966H36.2759V18.1034H37.4828V16.8966Z" fill="white"/>
<path d="M38.6897 16.8966H37.4828V18.1034H38.6897V16.8966Z" fill="white"/>
<path d="M41.1034 16.8966H39.8966V18.1034H41.1034V16.8966Z" fill="white"/>
<path d="M42.3103 16.8966H41.1034V18.1034H42.3103V16.8966Z" fill="white"/>
<path d="M45.931 16.8966H44.7241V18.1034H45.931V16.8966Z" fill="white"/>
<path d="M54.3793 16.8966H53.1724V18.1034H54.3793V16.8966Z" fill="white"/>
<path d="M55.5862 16.8966H54.3793V18.1034H55.5862V16.8966Z" fill="white"/>
<path d="M56.7931 16.8966H55.5862V18.1034H56.7931V16.8966Z" fill="white"/>
<path d="M58 16.8966H56.7931V18.1034H58V16.8966Z" fill="white"/>
<path d="M24.2069 18.1034H23V19.3103H24.2069V18.1034Z" fill="white"/>
<path d="M25.4138 18.1034H24.2069V19.3103H25.4138V18.1034Z" fill="white"/>
<path d="M27.8276 18.1034H26.6207V19.3103H27.8276V18.1034Z" fill="white"/>
<path d="M29.0345 18.1034H27.8276V19.3103H29.0345V18.1034Z" fill="white"/>
<path d="M33.8621 18.1034H32.6552V19.3103H33.8621V18.1034Z" fill="white"/>
<path d="M37.4828 18.1034H36.2759V19.3103H37.4828V18.1034Z" fill="white"/>
<path d="M41.1034 18.1034H39.8966V19.3103H41.1034V18.1034Z" fill="white"/>
<path d="M43.5172 18.1034H42.3103V19.3103H43.5172V18.1034Z" fill="white"/>
<path d="M47.1379 18.1034H45.931V19.3103H47.1379V18.1034Z" fill="white"/>
<path d="M50.7586 18.1034H49.5517V19.3103H50.7586V18.1034Z" fill="white"/>
<path d="M53.1724 18.1034H51.9655V19.3103H53.1724V18.1034Z" fill="white"/>
<path d="M56.7931 18.1034H55.5862V19.3103H56.7931V18.1034Z" fill="white"/>
<path d="M31.4483 19.3103H30.2414V20.5172H31.4483V19.3103Z" fill="white"/>
<path d="M33.8621 19.3103H32.6552V20.5172H33.8621V19.3103Z" fill="white"/>
<path d="M42.3103 19.3103H41.1034V20.5172H42.3103V19.3103Z" fill="white"/>
<path d="M45.931 19.3103H44.7241V20.5172H45.931V19.3103Z" fill="white"/>
<path d="M47.1379 19.3103H45.931V20.5172H47.1379V19.3103Z" fill="white"/>
<path d="M49.5517 19.3103H48.3448V20.5172H49.5517V19.3103Z" fill="white"/>
<path d="M50.7586 19.3103H49.5517V20.5172H50.7586V19.3103Z" fill="white"/>
<path d="M51.9655 19.3103H50.7586V20.5172H51.9655V19.3103Z" fill="white"/>
<path d="M53.1724 19.3103H51.9655V20.5172H53.1724V19.3103Z" fill="white"/>
<path d="M54.3793 19.3103H53.1724V20.5172H54.3793V19.3103Z" fill="white"/>
<path d="M55.5862 19.3103H54.3793V20.5172H55.5862V19.3103Z" fill="white"/>
<path d="M58 19.3103H56.7931V20.5172H58V19.3103Z" fill="white"/>
<path d="M24.2069 20.5172H23V21.7241H24.2069V20.5172Z" fill="white"/>
<path d="M27.8276 20.5172H26.6207V21.7241H27.8276V20.5172Z" fill="white"/>
<path d="M29.0345 20.5172H27.8276V21.7241H29.0345V20.5172Z" fill="white"/>
<path d="M30.2414 20.5172H29.0345V21.7241H30.2414V20.5172Z" fill="white"/>
<path d="M33.8621 20.5172H32.6552V21.7241H33.8621V20.5172Z" fill="white"/>
<path d="M35.069 20.5172H33.8621V21.7241H35.069V20.5172Z" fill="white"/>
<path d="M37.4828 20.5172H36.2759V21.7241H37.4828V20.5172Z" fill="white"/>
<path d="M38.6897 20.5172H37.4828V21.7241H38.6897V20.5172Z" fill="white"/>
<path d="M39.8966 20.5172H38.6897V21.7241H39.8966V20.5172Z" fill="white"/>
<path d="M41.1034 20.5172H39.8966V21.7241H41.1034V20.5172Z" fill="white"/>
<path d="M42.3103 20.5172H41.1034V21.7241H42.3103V20.5172Z" fill="white"/>
<path d="M43.5172 20.5172H42.3103V21.7241H43.5172V20.5172Z" fill="white"/>
<path d="M44.7241 20.5172H43.5172V21.7241H44.7241V20.5172Z" fill="white"/>
<path d="M45.931 20.5172H44.7241V21.7241H45.931V20.5172Z" fill="white"/>
<path d="M49.5517 20.5172H48.3448V21.7241H49.5517V20.5172Z" fill="white"/>
<path d="M53.1724 20.5172H51.9655V21.7241H53.1724V20.5172Z" fill="white"/>
<path d="M58 20.5172H56.7931V21.7241H58V20.5172Z" fill="white"/>
<path d="M24.2069 21.7241H23V22.931H24.2069V21.7241Z" fill="white"/>
<path d="M31.4483 21.7241H30.2414V22.931H31.4483V21.7241Z" fill="white"/>
<path d="M33.8621 21.7241H32.6552V22.931H33.8621V21.7241Z" fill="white"/>
<path d="M35.069 21.7241H33.8621V22.931H35.069V21.7241Z" fill="white"/>
<path d="M38.6897 21.7241H37.4828V22.931H38.6897V21.7241Z" fill="white"/>
<path d="M39.8966 21.7241H38.6897V22.931H39.8966V21.7241Z" fill="white"/>
<path d="M42.3103 21.7241H41.1034V22.931H42.3103V21.7241Z" fill="white"/>
<path d="M44.7241 21.7241H43.5172V22.931H44.7241V21.7241Z" fill="white"/>
<path d="M45.931 21.7241H44.7241V22.931H45.931V21.7241Z" fill="white"/>
<path d="M48.3448 21.7241H47.1379V22.931H48.3448V21.7241Z" fill="white"/>
<path d="M51.9655 21.7241H50.7586V22.931H51.9655V21.7241Z" fill="white"/>
<path d="M54.3793 21.7241H53.1724V22.931H54.3793V21.7241Z" fill="white"/>
<path d="M55.5862 21.7241H54.3793V22.931H55.5862V21.7241Z" fill="white"/>
<path d="M58 21.7241H56.7931V22.931H58V21.7241Z" fill="white"/>
<path d="M25.4138 22.931H24.2069V24.1379H25.4138V22.931Z" fill="white"/>
<path d="M27.8276 22.931H26.6207V24.1379H27.8276V22.931Z" fill="white"/>
<path d="M29.0345 22.931H27.8276V24.1379H29.0345V22.931Z" fill="white"/>
<path d="M33.8621 22.931H32.6552V24.1379H33.8621V22.931Z" fill="white"/>
<path d="M35.069 22.931H33.8621V24.1379H35.069V22.931Z" fill="white"/>
<path d="M41.1034 22.931H39.8966V24.1379H41.1034V22.931Z" fill="white"/>
<path d="M43.5172 22.931H42.3103V24.1379H43.5172V22.931Z" fill="white"/>
<path d="M44.7241 22.931H43.5172V24.1379H44.7241V22.931Z" fill="white"/>
<path d="M45.931 22.931H44.7241V24.1379H45.931V22.931Z" fill="white"/>
<path d="M50.7586 22.931H49.5517V24.1379H50.7586V22.931Z" fill="white"/>
<path d="M51.9655 22.931H50.7586V24.1379H51.9655V22.931Z" fill="white"/>
<path d="M53.1724 22.931H51.9655V24.1379H53.1724V22.931Z" fill="white"/>
<path d="M54.3793 22.931H53.1724V24.1379H54.3793V22.931Z" fill="white"/>
<path d="M55.5862 22.931H54.3793V24.1379H55.5862V22.931Z" fill="white"/>
<path d="M56.7931 22.931H55.5862V24.1379H56.7931V22.931Z" fill="white"/>
<path d="M58 22.931H56.7931V24.1379H58V22.931Z" fill="white"/>
<path d="M25.4138 24.1379H24.2069V25.3448H25.4138V24.1379Z" fill="white"/>
<path d="M26.6207 24.1379H25.4138V25.3448H26.6207V24.1379Z" fill="white"/>
<path d="M27.8276 24.1379H26.6207V25.3448H27.8276V24.1379Z" fill="white"/>
<path d="M29.0345 24.1379H27.8276V25.3448H29.0345V24.1379Z" fill="white"/>
<path d="M30.2414 24.1379H29.0345V25.3448H30.2414V24.1379Z" fill="white"/>
<path d="M31.4483 24.1379H30.2414V25.3448H31.4483V24.1379Z" fill="white"/>
<path d="M32.6552 24.1379H31.4483V25.3448H32.6552V24.1379Z" fill="white"/>
<path d="M33.8621 24.1379H32.6552V25.3448H33.8621V24.1379Z" fill="white"/>
<path d="M38.6897 24.1379H37.4828V25.3448H38.6897V24.1379Z" fill="white"/>
<path d="M43.5172 24.1379H42.3103V25.3448H43.5172V24.1379Z" fill="white"/>
<path d="M44.7241 24.1379H43.5172V25.3448H44.7241V24.1379Z" fill="white"/>
<path d="M48.3448 24.1379H47.1379V25.3448H48.3448V24.1379Z" fill="white"/>
<path d="M49.5517 24.1379H48.3448V25.3448H49.5517V24.1379Z" fill="white"/>
<path d="M50.7586 24.1379H49.5517V25.3448H50.7586V24.1379Z" fill="white"/>
<path d="M51.9655 24.1379H50.7586V25.3448H51.9655V24.1379Z" fill="white"/>
<path d="M53.1724 24.1379H51.9655V25.3448H53.1724V24.1379Z" fill="white"/>
<path d="M54.3793 24.1379H53.1724V25.3448H54.3793V24.1379Z" fill="white"/>
<path d="M58 24.1379H56.7931V25.3448H58V24.1379Z" fill="white"/>
<path d="M33.8621 25.3448H32.6552V26.5517H33.8621V25.3448Z" fill="white"/>
<path d="M37.4828 25.3448H36.2759V26.5517H37.4828V25.3448Z" fill="white"/>
<path d="M39.8966 25.3448H38.6897V26.5517H39.8966V25.3448Z" fill="white"/>
<path d="M42.3103 25.3448H41.1034V26.5517H42.3103V25.3448Z" fill="white"/>
<path d="M44.7241 25.3448H43.5172V26.5517H44.7241V25.3448Z" fill="white"/>
<path d="M45.931 25.3448H44.7241V26.5517H45.931V25.3448Z" fill="white"/>
<path d="M48.3448 25.3448H47.1379V26.5517H48.3448V25.3448Z" fill="white"/>
<path d="M53.1724 25.3448H51.9655V26.5517H53.1724V25.3448Z" fill="white"/>
<path d="M54.3793 25.3448H53.1724V26.5517H54.3793V25.3448Z" fill="white"/>
<path d="M55.5862 25.3448H54.3793V26.5517H55.5862V25.3448Z" fill="white"/>
<path d="M56.7931 25.3448H55.5862V26.5517H56.7931V25.3448Z" fill="white"/>
<path d="M24.2069 26.5517H23V27.7586H24.2069V26.5517Z" fill="white"/>
<path d="M25.4138 26.5517H24.2069V27.7586H25.4138V26.5517Z" fill="white"/>
<path d="M26.6207 26.5517H25.4138V27.7586H26.6207V26.5517Z" fill="white"/>
<path d="M27.8276 26.5517H26.6207V27.7586H27.8276V26.5517Z" fill="white"/>
<path d="M29.0345 26.5517H27.8276V27.7586H29.0345V26.5517Z" fill="white"/>
<path d="M30.2414 26.5517H29.0345V27.7586H30.2414V26.5517Z" fill="white"/>
<path d="M31.4483 26.5517H30.2414V27.7586H31.4483V26.5517Z" fill="white"/>
<path d="M37.4828 26.5517H36.2759V27.7586H37.4828V26.5517Z" fill="white"/>
<path d="M38.6897 26.5517H37.4828V27.7586H38.6897V26.5517Z" fill="white"/>
<path d="M39.8966 26.5517H38.6897V27.7586H39.8966V26.5517Z" fill="white"/>
<path d="M41.1034 26.5517H39.8966V27.7586H41.1034V26.5517Z" fill="white"/>
<path d="M42.3103 26.5517H41.1034V27.7586H42.3103V26.5517Z" fill="white"/>
<path d="M45.931 26.5517H44.7241V27.7586H45.931V26.5517Z" fill="white"/>
<path d="M47.1379 26.5517H45.931V27.7586H47.1379V26.5517Z" fill="white"/>
<path d="M48.3448 26.5517H47.1379V27.7586H48.3448V26.5517Z" fill="white"/>
<path d="M50.7586 26.5517H49.5517V27.7586H50.7586V26.5517Z" fill="white"/>
<path d="M53.1724 26.5517H51.9655V27.7586H53.1724V26.5517Z" fill="white"/>
<path d="M58 26.5517H56.7931V27.7586H58V26.5517Z" fill="white"/>
<path d="M24.2069 27.7586H23V28.9655H24.2069V27.7586Z" fill="white"/>
<path d="M31.4483 27.7586H30.2414V28.9655H31.4483V27.7586Z" fill="white"/>
<path d="M35.069 27.7586H33.8621V28.9655H35.069V27.7586Z" fill="white"/>
<path d="M36.2759 27.7586H35.069V28.9655H36.2759V27.7586Z" fill="white"/>
<path d="M38.6897 27.7586H37.4828V28.9655H38.6897V27.7586Z" fill="white"/>
<path d="M41.1034 27.7586H39.8966V28.9655H41.1034V27.7586Z" fill="white"/>
<path d="M42.3103 27.7586H41.1034V28.9655H42.3103V27.7586Z" fill="white"/>
<path d="M47.1379 27.7586H45.931V28.9655H47.1379V27.7586Z" fill="white"/>
<path d="M48.3448 27.7586H47.1379V28.9655H48.3448V27.7586Z" fill="white"/>
<path d="M53.1724 27.7586H51.9655V28.9655H53.1724V27.7586Z" fill="white"/>
<path d="M54.3793 27.7586H53.1724V28.9655H54.3793V27.7586Z" fill="white"/>
<path d="M55.5862 27.7586H54.3793V28.9655H55.5862V27.7586Z" fill="white"/>
<path d="M56.7931 27.7586H55.5862V28.9655H56.7931V27.7586Z" fill="white"/>
<path d="M24.2069 28.9655H23V30.1724H24.2069V28.9655Z" fill="white"/>
<path d="M26.6207 28.9655H25.4138V30.1724H26.6207V28.9655Z" fill="white"/>
<path d="M27.8276 28.9655H26.6207V30.1724H27.8276V28.9655Z" fill="white"/>
<path d="M29.0345 28.9655H27.8276V30.1724H29.0345V28.9655Z" fill="white"/>
<path d="M31.4483 28.9655H30.2414V30.1724H31.4483V28.9655Z" fill="white"/>
<path d="M33.8621 28.9655H32.6552V30.1724H33.8621V28.9655Z" fill="white"/>
<path d="M35.069 28.9655H33.8621V30.1724H35.069V28.9655Z" fill="white"/>
<path d="M39.8966 28.9655H38.6897V30.1724H39.8966V28.9655Z" fill="white"/>
<path d="M42.3103 28.9655H41.1034V30.1724H42.3103V28.9655Z" fill="white"/>
<path d="M44.7241 28.9655H43.5172V30.1724H44.7241V28.9655Z" fill="white"/>
<path d="M47.1379 28.9655H45.931V30.1724H47.1379V28.9655Z" fill="white"/>
<path d="M48.3448 28.9655H47.1379V30.1724H48.3448V28.9655Z" fill="white"/>
<path d="M49.5517 28.9655H48.3448V30.1724H49.5517V28.9655Z" fill="white"/>
<path d="M50.7586 28.9655H49.5517V30.1724H50.7586V28.9655Z" fill="white"/>
<path d="M51.9655 28.9655H50.7586V30.1724H51.9655V28.9655Z" fill="white"/>
<path d="M53.1724 28.9655H51.9655V30.1724H53.1724V28.9655Z" fill="white"/>
<path d="M55.5862 28.9655H54.3793V30.1724H55.5862V28.9655Z" fill="white"/>
<path d="M58 28.9655H56.7931V30.1724H58V28.9655Z" fill="white"/>
<path d="M24.2069 30.1724H23V31.3793H24.2069V30.1724Z" fill="white"/>
<path d="M26.6207 30.1724H25.4138V31.3793H26.6207V30.1724Z" fill="white"/>
<path d="M27.8276 30.1724H26.6207V31.3793H27.8276V30.1724Z" fill="white"/>
<path d="M29.0345 30.1724H27.8276V31.3793H29.0345V30.1724Z" fill="white"/>
<path d="M31.4483 30.1724H30.2414V31.3793H31.4483V30.1724Z" fill="white"/>
<path d="M37.4828 30.1724H36.2759V31.3793H37.4828V30.1724Z" fill="white"/>
<path d="M39.8966 30.1724H38.6897V31.3793H39.8966V30.1724Z" fill="white"/>
<path d="M43.5172 30.1724H42.3103V31.3793H43.5172V30.1724Z" fill="white"/>
<path d="M45.931 30.1724H44.7241V31.3793H45.931V30.1724Z" fill="white"/>
<path d="M47.1379 30.1724H45.931V31.3793H47.1379V30.1724Z" fill="white"/>
<path d="M48.3448 30.1724H47.1379V31.3793H48.3448V30.1724Z" fill="white"/>
<path d="M49.5517 30.1724H48.3448V31.3793H49.5517V30.1724Z" fill="white"/>
<path d="M50.7586 30.1724H49.5517V31.3793H50.7586V30.1724Z" fill="white"/>
<path d="M53.1724 30.1724H51.9655V31.3793H53.1724V30.1724Z" fill="white"/>
<path d="M56.7931 30.1724H55.5862V31.3793H56.7931V30.1724Z" fill="white"/>
<path d="M58 30.1724H56.7931V31.3793H58V30.1724Z" fill="white"/>
<path d="M24.2069 31.3793H23V32.5862H24.2069V31.3793Z" fill="white"/>
<path d="M26.6207 31.3793H25.4138V32.5862H26.6207V31.3793Z" fill="white"/>
<path d="M27.8276 31.3793H26.6207V32.5862H27.8276V31.3793Z" fill="white"/>
<path d="M29.0345 31.3793H27.8276V32.5862H29.0345V31.3793Z" fill="white"/>
<path d="M31.4483 31.3793H30.2414V32.5862H31.4483V31.3793Z" fill="white"/>
<path d="M33.8621 31.3793H32.6552V32.5862H33.8621V31.3793Z" fill="white"/>
<path d="M35.069 31.3793H33.8621V32.5862H35.069V31.3793Z" fill="white"/>
<path d="M36.2759 31.3793H35.069V32.5862H36.2759V31.3793Z" fill="white"/>
<path d="M39.8966 31.3793H38.6897V32.5862H39.8966V31.3793Z" fill="white"/>
<path d="M41.1034 31.3793H39.8966V32.5862H41.1034V31.3793Z" fill="white"/>
<path d="M42.3103 31.3793H41.1034V32.5862H42.3103V31.3793Z" fill="white"/>
<path d="M44.7241 31.3793H43.5172V32.5862H44.7241V31.3793Z" fill="white"/>
<path d="M47.1379 31.3793H45.931V32.5862H47.1379V31.3793Z" fill="white"/>
<path d="M48.3448 31.3793H47.1379V32.5862H48.3448V31.3793Z" fill="white"/>
<path d="M55.5862 31.3793H54.3793V32.5862H55.5862V31.3793Z" fill="white"/>
<path d="M56.7931 31.3793H55.5862V32.5862H56.7931V31.3793Z" fill="white"/>
<path d="M24.2069 32.5862H23V33.7931H24.2069V32.5862Z" fill="white"/>
<path d="M31.4483 32.5862H30.2414V33.7931H31.4483V32.5862Z" fill="white"/>
<path d="M33.8621 32.5862H32.6552V33.7931H33.8621V32.5862Z" fill="white"/>
<path d="M35.069 32.5862H33.8621V33.7931H35.069V32.5862Z" fill="white"/>
<path d="M39.8966 32.5862H38.6897V33.7931H39.8966V32.5862Z" fill="white"/>
<path d="M44.7241 32.5862H43.5172V33.7931H44.7241V32.5862Z" fill="white"/>
<path d="M48.3448 32.5862H47.1379V33.7931H48.3448V32.5862Z" fill="white"/>
<path d="M51.9655 32.5862H50.7586V33.7931H51.9655V32.5862Z" fill="white"/>
<path d="M53.1724 32.5862H51.9655V33.7931H53.1724V32.5862Z" fill="white"/>
<path d="M54.3793 32.5862H53.1724V33.7931H54.3793V32.5862Z" fill="white"/>
<path d="M55.5862 32.5862H54.3793V33.7931H55.5862V32.5862Z" fill="white"/>
<path d="M24.2069 33.7931H23V35H24.2069V33.7931Z" fill="white"/>
<path d="M25.4138 33.7931H24.2069V35H25.4138V33.7931Z" fill="white"/>
<path d="M26.6207 33.7931H25.4138V35H26.6207V33.7931Z" fill="white"/>
<path d="M27.8276 33.7931H26.6207V35H27.8276V33.7931Z" fill="white"/>
<path d="M29.0345 33.7931H27.8276V35H29.0345V33.7931Z" fill="white"/>
<path d="M30.2414 33.7931H29.0345V35H30.2414V33.7931Z" fill="white"/>
<path d="M31.4483 33.7931H30.2414V35H31.4483V33.7931Z" fill="white"/>
<path d="M33.8621 33.7931H32.6552V35H33.8621V33.7931Z" fill="white"/>
<path d="M37.4828 33.7931H36.2759V35H37.4828V33.7931Z" fill="white"/>
<path d="M38.6897 33.7931H37.4828V35H38.6897V33.7931Z" fill="white"/>
<path d="M39.8966 33.7931H38.6897V35H39.8966V33.7931Z" fill="white"/>
<path d="M41.1034 33.7931H39.8966V35H41.1034V33.7931Z" fill="white"/>
<path d="M42.3103 33.7931H41.1034V35H42.3103V33.7931Z" fill="white"/>
<path d="M45.931 33.7931H44.7241V35H45.931V33.7931Z" fill="white"/>
<path d="M51.9655 33.7931H50.7586V35H51.9655V33.7931Z" fill="white"/>
<path d="M55.5862 33.7931H54.3793V35H55.5862V33.7931Z" fill="white"/>
<path d="M56.7931 33.7931H55.5862V35H56.7931V33.7931Z" fill="white"/>
</svg>
