<svg width="27" height="41" viewBox="0 0 27 41" fill="none" xmlns="http://www.w3.org/2000/svg">
<path d="M13.0692 16.0469C17.5359 16.0469 21.01 12.4074 21.01 7.94075C21.01 3.47408 17.3704 0 12.9038 0C8.43709 0 4.96301 3.63951 4.96301 7.94075C4.96301 12.4074 8.60252 16.0469 13.0692 16.0469ZM12.9038 3.30865C13.0692 3.30865 13.0692 3.30865 12.9038 3.30865C15.5507 3.30865 17.7013 5.45927 17.7013 8.10619C17.7013 10.7531 15.5507 12.7383 12.9038 12.7383C10.2568 12.7383 8.27166 10.5877 8.27166 8.10619C8.27166 5.45927 10.4223 3.30865 12.9038 3.30865Z" fill="#707A8A"/>
<path d="M26.6346 24.9802L26.3037 24.4839C22.9951 20.8444 18.363 18.6937 13.4 18.8592C8.43705 18.6937 3.63951 20.8444 0.330864 24.4839L0 24.9802V37.553C0 39.0419 1.15803 40.3654 2.81235 40.3654H23.9877C25.4766 40.3654 26.8 39.0419 26.8 37.553V24.9802H26.6346ZM23.326 37.0567H3.30865V26.1382C5.95557 23.4913 9.59508 22.1678 13.4 22.1678C17.0395 22.0024 20.6791 23.4913 23.326 26.1382V37.0567Z" fill="#707A8A"/>
</svg>
