<svg width="42" height="38" viewBox="0 0 42 38" fill="none" xmlns="http://www.w3.org/2000/svg">
<path d="M20.865 17.6256C24.51 17.6256 27.345 14.6556 27.345 11.0106C27.345 7.36558 24.375 4.53058 20.73 4.53058C17.085 4.53058 14.25 7.50058 14.25 11.0106C14.25 14.6556 17.22 17.6256 20.865 17.6256ZM20.73 7.23058C20.865 7.23058 20.865 7.23058 20.73 7.23058C22.89 7.23058 24.645 8.98558 24.645 11.1456C24.645 13.3056 22.89 14.9256 20.73 14.9256C18.57 14.9256 16.95 13.1706 16.95 11.1456C16.95 8.98558 18.705 7.23058 20.73 7.23058Z" fill="#707A8A"/>
<path d="M40.845 16.8153C38.28 14.5203 34.905 13.3053 31.395 13.4403H30.315C30.045 14.5203 29.64 15.4653 29.1 16.2753C29.91 16.1403 30.585 16.1403 31.395 16.1403C33.96 16.0053 36.525 16.8153 38.55 18.3003V28.0203H41.25V17.2203L40.845 16.8153Z" fill="#707A8A"/>
<path d="M28.29 4.8005C28.965 3.1805 30.855 2.3705 32.61 3.0455C34.23 3.7205 35.04 5.6105 34.365 7.3655C33.825 8.5805 32.61 9.3905 31.395 9.3905C31.125 9.3905 30.72 9.3905 30.45 9.2555C30.585 9.9305 30.585 10.6055 30.585 11.1455V11.9555C30.855 11.9555 31.125 12.0905 31.395 12.0905C34.77 12.0905 37.47 9.3905 37.47 6.1505C37.47 2.7755 34.77 0.0755005 31.53 0.0755005C29.37 0.0755005 27.48 1.1555 26.4 3.0455C27.075 3.4505 27.75 3.9905 28.29 4.8005Z" fill="#707A8A"/>
<path d="M12.9 16.4105C12.36 15.6005 11.955 14.6555 11.685 13.5755H10.605C7.095 13.4405 3.72 14.6555 1.155 16.8155L0.75 17.2205V28.0205H3.45V18.3005C5.61 16.8155 8.04 16.0055 10.605 16.1405C11.415 16.1405 12.225 16.2755 12.9 16.4105Z" fill="#707A8A"/>
<path d="M10.605 11.9556C10.875 11.9556 11.145 11.9556 11.415 11.8206V11.0106C11.415 10.3356 11.415 9.66063 11.55 9.12063C11.28 9.25563 10.875 9.25563 10.605 9.25563C8.84998 9.25563 7.36498 7.77063 7.36498 6.01562C7.36498 4.26062 8.84998 2.77563 10.605 2.77563C11.955 2.77563 13.17 3.58563 13.71 4.80063C14.25 4.12563 15.06 3.45063 15.735 2.91063C13.98 0.0756257 10.335 -0.869374 7.49998 0.885626C4.66498 2.64063 3.71998 6.28563 5.47498 9.12063C6.55498 10.8756 8.44498 11.9556 10.605 11.9556Z" fill="#707A8A"/>
<path d="M31.935 24.9155L31.665 24.5105C28.965 21.5405 25.185 19.7855 21.135 19.9205C17.085 19.7855 13.17 21.5405 10.47 24.5105L10.2 24.9155V35.1755C10.2 36.3905 11.145 37.4705 12.495 37.4705H29.775C30.99 37.4705 32.07 36.3905 32.07 35.1755V24.9155H31.935ZM29.235 34.7705H12.9V25.8605C15.06 23.7005 18.03 22.6205 21.135 22.6205C24.105 22.4855 27.075 23.7005 29.235 25.8605V34.7705Z" fill="#707A8A"/>
</svg>
