<svg width="91" height="92" viewBox="0 0 91 92" fill="none" xmlns="http://www.w3.org/2000/svg">
<path opacity="0.4" d="M88.3 33C88.3 33.1 88.4 33.3 88.4 33.4L88.7 34.6C88.7 34.4 88.7 34.4 88.3 33Z" fill="#1B273F"/>
<path opacity="0.4" d="M89.2 36.7C89.2 36.6 89.2 36.6 89.2 36.5L89.3 36.8L89.4 37.1L89.2 36.7Z" fill="#1B273F"/>
<path opacity="0.4" d="M89.1 55.8C89.1 55.9 89 56.1001 89 56.2001C88.6 57.5001 88.1 59.1 87.6 60.3C87.6 60.2 87.6 60.2 87.6 60.1C88.1 58.8 88.8 57.1 89.1 55.8Z" fill="#1B273F"/>
<path opacity="0.4" d="M87 62.1C87 62 87.1 62 87.1 61.9C86.9 62.6 86.7 63.5 86.4 64.1L86.3 64.4C86.5 63.7 86.8 62.8 87 62.1Z" fill="#1B273F"/>
<path opacity="0.4" d="M12.5 16.1C12.7 16 12.8 16 13.8 15.9L13.7 16C13.7 16 13.7 16.1 13.6 16.1C13.4 16.1 13.2 16.1 13 16.2C13 16.2 12.5 16.3 12.4 16.3C12.4 16.3 12.4 16.2 12.5 16.1Z" fill="#1B273F"/>
<path opacity="0.4" d="M58.6 3.30005H58.5C59.4 3.60005 60.6 4.00005 61.5 4.30005C61.6 4.40005 61.8 4.40005 61.9 4.50005C60.9 4.10005 59.6 3.60005 58.6 3.30005Z" fill="#1B273F"/>
<path opacity="0.4" d="M86.7 62.7L86.8 62.6C85.4 66.3 85.4 66.5 83.6 69.5C83.5 69.6 83.4 69.8 83.3 69.9C85.3 66.3 85.4 66.2 86.7 62.7Z" fill="#1B273F"/>
<path opacity="0.4" d="M29.1 4.49998C29.7 4.29998 29.7 4.29998 30.5 4.09998C30.4 4.09998 30.3001 4.19998 30.2001 4.19998C30.0001 4.29998 29.8 4.29998 29.6 4.29998C29.3 4.39998 29 4.49998 28.8 4.59998C28.9 4.59998 29 4.59998 29.1 4.49998Z" fill="#1B273F"/>
<path opacity="0.4" d="M21.5 8.5C24.5 6.7 25.5001 6.2 29.7001 4.5C28.2001 5.2 26.6 5.7 25.1 6.5C23.9 7.1 22.4 8 21.3 8.7C21.3 8.6 21.4 8.5 21.5 8.5Z" fill="#1B273F"/>
<path opacity="0.4" d="M44 1.40002C44 1.40002 44.1 1.40002 44.2 1.40002C40.3 1.60002 37.2 1.80002 32 3.60002H31.9C35.2 2.60002 37.8 1.70002 44 1.40002Z" fill="#1B273F"/>
<path opacity="0.4" d="M36.7001 3.70007C36.6001 3.70007 36.6 3.80007 36.5 3.80007C34.6 4.00007 32.7 4.00007 30.8 4.20007C31 4.10007 31.3001 4.00007 36.7001 3.70007Z" fill="#1B273F"/>
<path opacity="0.4" d="M40.5 90.3L41 90.4C40.9 90.4 40.7 90.4 40.5 90.3Z" fill="#1B273F"/>
<path opacity="0.4" d="M12.3 75.7C12.4 75.8 12.5 75.9 12.6 76C12.5 75.9 12.4 75.8 12.3 75.7Z" fill="#1B273F"/>
<path opacity="0.4" d="M25.8 86C25.1 85.6 25.1 85.6 24.8 85.2C24.7 85.1 24.8 84.8 24.9 84.6C25 84.6 25.1 84.7 25.1 84.7C25 84.9 24.9 85.1 25 85.3C25.2 85.6 25.3 85.8 26 86.1C26 86.1 25.9 86 25.8 86Z" fill="#1B273F"/>
<path opacity="0.4" d="M2.89995 33C4.29995 29 6.09995 23.9 12.9 17C12.6 17.9 11.4 18.7 10.7 19.4C8.69995 21.6 4.99995 26.3 2.69995 33.4V33.3C2.79995 33.2 2.89995 33.1 2.89995 33Z" fill="#1B273F"/>
<path opacity="0.4" d="M2.40004 35C2.40004 34.9 2.40004 34.8 2.50004 34.8C2.80004 35.4 4.10004 35.9001 9.80004 36.7001C9.80004 36.8001 9.80004 36.9 9.70004 37C4.60004 36.2 2.50004 35.6 2.40004 35C2.40004 35 2.30004 35 2.40004 35Z" fill="#1B273F"/>
<path opacity="0.4" d="M12 75.3L11.9 75.2C15.4 78.7 17.7 80.5 23.9 83.9L24 84C17.8 80.6 15.5 78.8 12 75.3Z" fill="#1B273F"/>
<path opacity="0.4" d="M11.4 74.5C11.3 74.4 11.3 74.4 11.2 74.3C11.7 74.4 12.4 74.4 21.2 74.6C21.2 74.7 21.3 74.7 21.3 74.8C16.6 74.8 11.7 74.6 11.4 74.5Z" fill="#1B273F"/>
<path opacity="0.4" d="M13.6 58.6C13.6 58.7 13.7 58.7 13.7 58.8C9.69998 63.8 7.09998 67.8 10.8 73.9C5.69998 67.7 11.4 61.1 13.6 58.6Z" fill="#1B273F"/>
<path opacity="0.4" d="M1.60001 53.3C1.10001 47.6 3.20001 43.5 9.70001 37.6C9.70001 37.7 9.70001 37.7 9.70001 37.8C3.90001 43.5 1.10001 47.5 1.70001 53.7C1.60001 53.6 1.60001 53.4 1.60001 53.3Z" fill="#1B273F"/>
<path opacity="0.4" d="M2.30005 56.9C2.60005 57 3.00005 57.3 13.3 57.7C13.3 57.8 13.3 57.9 13.3 58C10.5 57.9 2.60005 57.6 2.40005 57.3C2.40005 57.1 2.30005 57 2.30005 56.9Z" fill="#1B273F"/>
<path opacity="0.4" d="M77.7 68.5C77.8 68.4 77.8 68.3 77.8 68.3C80.5 70.6 81.5 72.2 79.7 74.7C79.6 74.8 79.6 74.8 79.5 74.9C80.9 72.9 81 71.4 77.7 68.5C77.7 68.6 77.7 68.6 77.7 68.5Z" fill="#1B273F"/>
<path opacity="0.4" d="M42.9 90.5C42.8 90.5 42.7 90.5 42.6 90.5C42.8 90.5 43 90.5 43.7 90.5C43.8 90.5 43.8 90.5 43.9 90.5C43.2 90.6 43.1 90.5 42.9 90.5Z" fill="#1B273F"/>
<path opacity="0.4" d="M25.8 85.1C25.8 85.1 25.9 85.2 26 85.2C27.9 86.2 29.7 87.6 31.8 88.3C35.8 89.7 37.3 89.9 41.5 90.4C32.4 89.6 27.8 86.4 25.8 85.1Z" fill="#1B273F"/>
<path opacity="0.4" d="M52.8 89.3C52.4 89.5 47 90.4 46.4 90.5C46.4 90.5 46.5 90.5 47.8 90.2C50.2 89.8 51.6 89.5 52.8 89.3Z" fill="#1B273F"/>
<path opacity="0.4" d="M13.3 17.1L13.4 17C11.6 20.4 8.79996 25.6 10.5 35.4C10.4 35.4 10.4 35.5 10.3 35.5C9.69996 31.2 8.89996 24.6 13.3 17.1Z" fill="#1B273F"/>
<path opacity="0.4" d="M29.2 4.80005C25.2 6.70005 20.7 8.90005 15.2 14.8C17.9 12 21.6 8.10005 29.2 4.80005Z" fill="#1B273F"/>
<path opacity="0.4" d="M29.8 4.50002C29.9 4.50002 29.9 4.50002 30 4.40002C27.6 5.70002 23.1 8.20002 24.1 13.8C24 13.9 24 14 23.9 14C23.7 11.7 23.2 7.90002 29.8 4.50002C29.8 4.60002 29.8 4.60002 29.8 4.50002Z" fill="#1B273F"/>
<path opacity="0.4" d="M23.3 14.7C23.2 14.8 23.2 14.8 23.2 14.9C18.3 15.4 16.7 15.6 14.4 16C14.5 15.8 14.8 15.6 23.3 14.7Z" fill="#1B273F"/>
<path opacity="0.4" d="M21.9 75.5C22 75.6 22 75.6 22.1 75.7C21.9 78.6 21.9 80.8 24.7 84C24.6 83.9 21.2 81.6 21.9 75.5Z" fill="#1B273F"/>
<path opacity="0.4" d="M26.5 85.2C26.4 85.2 26.4 85.2 26.5 85.2C31.2 87.4 36 89.5 42.8 90.4H42.9001C38.8001 89.9 34.2 89 26.5 85.2Z" fill="#1B273F"/>
<path opacity="0.4" d="M26.1 84.9C26 84.9 26 84.8 25.9 84.8C29.4 86.2 33 87.5 40 89.4C40 89.4 40 89.4 40.1 89.4C33 87.6 28.4 85.8 26.1 84.9C26.1 84.9 26.2 84.9 26.1 84.9Z" fill="#1B273F"/>
<path opacity="0.4" d="M10.6 38.6C10.6 38.6 10.7 38.6 10.8 38.5C11 42.8 11.3 48.2 14 56.2C13.9 56.2 13.9 56.2 13.8 56.3C12.4 51.9 10.7 46.5 10.6 38.6Z" fill="#1B273F"/>
<path opacity="0.4" d="M23.1 15.8C23.1 15.8 23.2 15.9 23.1 15.8C18.2 21.9 14.9 26.8 11.3 35.3C11.3 35.3 11.2 35.3001 11.2 35.2001C13.9 28.7001 16.7 23.5 23.1 15.8Z" fill="#1B273F"/>
<path opacity="0.4" d="M24.0001 15.8C24.1001 15.8 24.1001 15.7 24.2001 15.7C23.8001 21.9 24.9001 27.9 31.7001 40.4C31.6001 40.4 31.5001 40.5 31.5001 40.5C26.1001 30.6 23.2001 23.4 24.0001 15.8C23.9001 15.8 23.9001 15.8 24.0001 15.8Z" fill="#1B273F"/>
<path opacity="0.4" d="M11.6 37.3C11.6 37.2 11.6 37.2 11.7 37.1C14.7 38 19.1 39.3 30.8 41.6C30.8 41.7 30.8 41.8 30.8 41.8C23.2 40.4 15.7 38.6 11.6 37.3Z" fill="#1B273F"/>
<path opacity="0.4" d="M36 4.30005C32.9 6.30005 29.8 8.30005 25.2 13.6H25.1C27.7 10.7 30.9 7.20005 36 4.30005Z" fill="#1B273F"/>
<path opacity="0.4" d="M41.2 10.7C41.2 10.8 41.2 10.8 41.2 10.9C36 12 30.6 13.2 25.2 14.6L25.2999 14.5C27.5999 13.7 30.1 13.1 41.2 10.7Z" fill="#1B273F"/>
<path opacity="0.4" d="M30.9 42.9C30.9 43 31 43 31 43.1C23.8 48.7 20.2 51.6 15.3 57.1C15.3 57 15.2 57 15.2 56.9C17.3 54.3 20.3 50.8 30.9 42.9Z" fill="#1B273F"/>
<path opacity="0.4" d="M23.1 76C23.2 75.9 23.2 75.9 23.1 76C25.9 78.9 32.3 86.0001 39.9 89.3001C37.8 88.2001 31.2 85.2 23.1 76Z" fill="#1B273F"/>
<path opacity="0.4" d="M14.8 59.5C14.8 59.5 14.9 59.5 15 59.5C16.6 64 17.7 67.3 21.4 73.4H21.3C18.6 69.1 17.1 66.3 14.8 59.5Z" fill="#1B273F"/>
<path opacity="0.4" d="M15.6 58.1C15.6 58 15.6 58 15.6 57.9C20.2 58.4 24.2 58.9 34.1 59.7C34.1 59.8 34.1 59.8 34.1 59.9C26.4 59.4 16.7 58.3 15.6 58.1Z" fill="#1B273F"/>
<path opacity="0.4" d="M23.2999 75.2C23.2999 75.2 23.3 75.1 23.2 75C26.7 76.3 29.3 77.2 36.7 79.7C36.7 79.8 36.7 79.8 36.7 79.9C29.3 77.5 26.9999 76.6 23.2999 75.2C23.2999 75.3 23.2999 75.3 23.2999 75.2Z" fill="#1B273F"/>
<path opacity="0.4" d="M35.6 61.5C35.7 61.5 35.7 61.5 35.8 61.5C36.3 70.1 36.5 73.6 37.7 79C37.6 79 37.6 79 37.5 79C36.9 76 35.9 71.4 35.6 61.5Z" fill="#1B273F"/>
<path opacity="0.4" d="M34.4 60.8C34.5 60.9 34.5 60.9 34.6 61C29.7 65.1 25.1 69.1 22.6 74C22.5 73.9 22.5 73.9001 22.4 73.8001C23.9 71.2001 25.7 68 34.4 60.8Z" fill="#1B273F"/>
<path opacity="0.4" d="M36.9 4C36.9 4 37 4 37.1 4C36.9 5.6 37.5 6.9 41.6 9.9C41.5 10 41.5 10 41.4 10.1C37.7 7.2 36.6 5.8 36.9 4C36.9 4.1 36.9 4.1 36.9 4Z" fill="#1B273F"/>
<path opacity="0.4" d="M44.9 1.40002C45 1.40002 45.1 1.40002 45.2 1.40002C39.7 1.50002 37 2.20002 37.2 3.50002C37.1 3.50002 37.1 3.60002 37 3.60002C36.8 2.30002 39.5 1.50002 44.9 1.40002C44.8 1.40002 44.8 1.40002 44.9 1.40002Z" fill="#1B273F"/>
<path opacity="0.4" d="M45.6 1.40002C45.4 1.50002 45.3001 1.60002 44.4001 1.80002C42.2001 2.40002 40 2.90002 37.8 3.50002C37.9 3.40002 37.9001 3.40002 39.4001 3.00002C39.6001 3.00002 40.2 2.80002 43 2.10002C45.3 1.60002 45.4 1.50002 45.6 1.40002Z" fill="#1B273F"/>
<path opacity="0.4" d="M41 89.8C41.3 89.9 41.5 90.1 41.8 90.2C42.3 90.3 43 90.5 43.5 90.6C42 90.4 41.4 90 41 89.8Z" fill="#1B273F"/>
<path opacity="0.4" d="M69.4 8.30005C69.5 8.40005 69.6 8.40005 69.6 8.50005C69.8 8.70005 70.1 8.90005 70.2 9.10005C70.3 9.20005 70.3 9.50005 70.2 9.70005C70.1 9.60005 70.1 9.60005 70 9.50005C70 9.30005 70 9.00005 69.9 8.90005C69.9 8.60005 69.6 8.40005 69.4 8.30005Z" fill="#1B273F"/>
<path opacity="0.4" d="M37.6 81.1C37.7 81.1 37.7 81.1 37.8 81.2C37.6 83.6 37.2 87.2 40.3 89.3C40.3 89.3 36.7 87.8 37.6 81.1Z" fill="#1B273F"/>
<path opacity="0.4" d="M41.4001 89.7C41.4001 89.7 41.3 89.7 41.3 89.6C44.4 90.1 45.4 90.2 46.1 90.4C46 90.4 45.9 90.4 45.8 90.4C45 90.3 44.2001 90.2 41.4001 89.7Z" fill="#1B273F"/>
<path opacity="0.4" d="M45.8 1.40002C46.2 1.70002 46.5 1.90002 45.8 3.80002C45.3 5.30002 44.0001 7.70003 42.9001 9.60003H42.8C45.6 4.20003 46.7 2.10002 45.8 1.40002Z" fill="#1B273F"/>
<path opacity="0.4" d="M50 87.9C50.1 87.9 50.1 87.9 50 87.9C48.6 89.1 47.7 89.8 46.4 90.3C47.6 89.7 48.2 89.4 50 87.9Z" fill="#1B273F"/>
<path opacity="0.4" d="M38.7 81.1C38.7 81.1 38.7999 81.1 38.7999 81C44.8999 87.1 46.6999 89.2 46.2999 90.3C46.4999 89.2 45.2 87.7 38.7 81.1Z" fill="#1B273F"/>
<path opacity="0.4" d="M49 74.4C49 74.5 48.9999 74.5 49.0999 74.6C42.7999 77.6 41.8999 78 38.7999 79.8C38.7999 79.7 38.8 79.7 38.7 79.7C42.1 77.6 43.7 76.9 49 74.4Z" fill="#1B273F"/>
<path opacity="0.4" d="M39 80.8V80.7C46.2 84.2 48.6 85.4 50.5 87.1L50.4 87.2C48.1 85.3 46.4 84.3 39 80.8Z" fill="#1B273F"/>
<path opacity="0.4" d="M41.7999 11.5C41.7999 11.5 41.9 11.5 42 11.5C37.8 23.1 35.6999 28.9 32.9 40.2C32.9 40.2 32.8 40.2 32.7 40.2C34 34.4 35.9999 26.9 41.7999 11.5Z" fill="#1B273F"/>
<path opacity="0.4" d="M86.7 61.7C86.7 61.7 85.7 63.9 78.2 67.7C78.2 67.6 78.2 67.6 78.3 67.5C81.8 65.5 84.3 64.1 86.7 61.7Z" fill="#1B273F"/>
<path opacity="0.4" d="M51.1 22L51.2 22.1C45.7 28.6 39.4 34.4 33.6 40.7C33.6 40.7 33.5 40.6 33.5 40.5C39.1 34.2 45.4 28.4 51.1 22Z" fill="#1B273F"/>
<path opacity="0.4" d="M36.9 61.2C37 61.1 37 61.1 37 61C47.8 71.1 47.8 71.1 49.5 72.9L49.4 73C48.5 72.2 48.5 72.2 36.9 61.2Z" fill="#1B273F"/>
<path opacity="0.4" d="M37.3 60.2C37.3 60.1 37.3 60 37.3 60C59.7 61.8 59.7001 61.8 62.2001 62C62.2001 62.1 62.2 62.2 62.1 62.3C60.6 62.1 60.6 62.1 37.3 60.2Z" fill="#1B273F"/>
<path opacity="0.4" d="M32.5 43.7C32.6 43.7 32.6 43.7 32.7 43.7C33.4 48.2 33.9 51.7 35.4 58.3C35.3 58.3 35.3 58.3 35.2 58.3C34.5 55.1 33.5 51.1 32.5 43.7Z" fill="#1B273F"/>
<path opacity="0.4" d="M34 42.2C34 42.1 34 42 34 41.9C43.3 42.4 52.6 42.8 61.8 43.3C61.8 43.4 61.8 43.5 61.8 43.6C52.6 43.1 43.3 42.7 34 42.2Z" fill="#1B273F"/>
<path opacity="0.4" d="M62 44.4C62 44.5 62.1 44.6 62.1 44.7C54 49.9 45.4 54.4 37.1 59.3C37.1 59.2 37 59.1 37 59.1C45.3 54.1 53.9 49.6 62 44.4Z" fill="#1B273F"/>
<path opacity="0.4" d="M42.8 11.4C42.9 11.4 42.9001 11.3 42.9001 11.3C45.0001 13.8 45.6 14.6 51 19.9C51 20 51.0001 20 50.9001 20.1C46.1001 15.2 44.8 13.8 42.8 11.4Z" fill="#1B273F"/>
<path opacity="0.4" d="M47.8 2.5C47.9 4 47.5 5.2 43.2 9.8C43.1 9.8 43.1 9.7 43.1 9.7C46.1 6.4 48 4.2 47.8 2.5Z" fill="#1B273F"/>
<path opacity="0.4" d="M56.5 8L56.6 8.1C53.5 8.8 50.2 9.4 43.4 10.4C43.4 10.3 43.4 10.3 43.4 10.2C48.5 9.5 52.5 8.9 56.5 8Z" fill="#1B273F"/>
<path opacity="0.4" d="M54.9 3.09998C59.8 5.19998 65 7.99998 70.4 17H70.3C66.7 11.4 63 6.49998 54.9 3.09998Z" fill="#1B273F"/>
<path opacity="0.4" d="M70.4 10.2C70.4 10.2 73.1 12.4 71.4 17.6C71.3 17.5 71.3 17.5 71.2 17.4C71.9 15.3 72.4 13.3 70.4 10.2Z" fill="#1B273F"/>
<path opacity="0.4" d="M54.2 2.90002C55.1 3.20002 56.2999 4.30002 56.2999 4.40002C57.1999 5.70002 57.1999 5.90002 57.2999 7.30002C57.1999 7.30002 57.1999 7.20002 57.0999 7.20002C56.9999 5.10002 56.7 4.40002 54.2 2.90002Z" fill="#1B273F"/>
<path opacity="0.4" d="M48.3 2.5C50.7 3.7 52.5001 4.8 56.2001 7.2V7.3C52.7001 5 51 4 48.3 2.5Z" fill="#1B273F"/>
<path opacity="0.4" d="M63.5 45.4C63.6 45.4 63.6 45.4 63.8 45.4C64.1 50.8 64.3 54.5 63.9 60.7C63.8 60.7 63.8 60.7 63.7 60.7C63.9 55.2 64 51.9 63.5 45.4Z" fill="#1B273F"/>
<path opacity="0.4" d="M45.7 1.40002C45.6 1.40002 45.6 1.40002 45.7 1.40002C46.1 1.40002 48 1.60002 53 2.50002C53.1 2.50002 53.1 2.50002 53.2 2.60002C48.1 1.60002 46.1 1.40002 45.7 1.40002Z" fill="#1B273F"/>
<path opacity="0.4" d="M45.8 1.40002C46.2 1.50002 46.8001 1.70002 47.2001 1.90002C46.8001 1.70002 46.2 1.50002 45.8 1.40002Z" fill="#1B273F"/>
<path opacity="0.4" d="M48.1 2.20007C48.1 2.20007 48 2.20007 48.1 2.20007C50.9 2.40007 51.6 2.40007 53.2 2.60007C53.3 2.60007 53.3 2.60007 53.4 2.70007C51.9 2.50007 51.1 2.50007 48.1 2.20007Z" fill="#1B273F"/>
<path opacity="0.4" d="M58.3 8.7C58.3 8.6 58.3 8.6 58.3 8.7C63.3 12 65.5001 13.6 69.9001 17.2V17.3C65.4001 13.6 63.2 12 58.3 8.7Z" fill="#1B273F"/>
<path opacity="0.4" d="M57.2 8.59998L57.2999 8.69998C57.2999 10.7 57.2 13.5 52.9 20.1C52.8 20 52.8 20 52.7 20C54.6 16.8 57.3 12.7 57.2 8.59998Z" fill="#1B273F"/>
<path opacity="0.4" d="M75.6 41.3C75.6 41.4 75.6 41.5 75.6 41.6C71.5 42.4 70.2 42.6 64.9 43.5C64.9 43.4 64.9 43.3001 64.9 43.2001C70.3 42.3001 71.6 42.1 75.6 41.3Z" fill="#1B273F"/>
<path opacity="0.4" d="M52.7 22.4C52.8 22.4 52.8 22.3 52.9 22.3C56.3 28.3 59.5 33.9001 62.9 41.9001C62.8 41.9001 62.8 42 62.7 42C59.4 34.8 58.1 32.1 52.7 22.4Z" fill="#1B273F"/>
<path opacity="0.4" d="M70.2 18.3C70.2 18.4 70.3 18.4 70.3 18.5C68.7 18.8 65.5 19.5 53.5 21C53.5 20.9 53.5 20.9 53.5 20.8C68.8 18.6 68.8 18.6 70.2 18.3Z" fill="#1B273F"/>
<path opacity="0.4" d="M71.0999 19.3C71.4999 25 70.5 30.8001 64.4 42.2001C64.3 42.2001 64.2 42.1 64.2 42C67.8 35 71.3999 27.5 71.0999 19.3Z" fill="#1B273F"/>
<path opacity="0.4" d="M50.5 75.2C50.5 75.2 50.6 75.2 50.7 75.1C51.3 78.3 52.3 83.2 51.1 86.7H51C51.4 84.8 52.1 82.2 50.5 75.2Z" fill="#1B273F"/>
<path opacity="0.4" d="M62.3 63.3C62.4 63.4 62.4001 63.4 62.4001 63.5C58.3001 67.2 57.8001 67.6 51.4001 73.1L51.3 73C55 69.7 58.7 66.6 62.3 63.3Z" fill="#1B273F"/>
<path opacity="0.4" d="M51.6 74.3C51.6 74.3 51.6 74.2 51.7 74.1C56 75.2 64 77.1 68.2 79.3L68.1 79.4C64.8 78.1 61.7 76.8 51.6 74.3Z" fill="#1B273F"/>
<path opacity="0.4" d="M51.2 87.6C51.2 87.6 51.2 87.5 51.2 87.6C52.7 88.2 53.2 88.4 53.5 89C53.4 89 53.3999 89 53.2999 89.1C52.9999 88.6 52.7 88.3 51.2 87.6Z" fill="#1B273F"/>
<path opacity="0.4" d="M67.4 80.1C67.4 80.1 66.8 80.9 51.5 87V86.9C63.5 82 63.5 82 67.4 80.1Z" fill="#1B273F"/>
<path opacity="0.4" d="M76.3 69.4C76.3 69.4 76.3 69.5 76.3 69.4C74.2 72.9 73.1 74.7 69.6 78.5H69.5C72.3 75.4 73.5 73.9 76.3 69.4Z" fill="#1B273F"/>
<path opacity="0.4" d="M64.3 63.5C64.3 63.5 64.4 63.4 64.5 63.3C68.1 69.3 69.8001 73.5001 68.8001 78.8001L68.7 78.9001C69.2 75.0001 69.1 71.4 64.3 63.5Z" fill="#1B273F"/>
<path opacity="0.4" d="M58.5 3.30005C64.2 5.00005 68 8.00005 69.3 9.00005C69.3 9.00005 69.3 9.00005 69.2 9.00005C69.2 9.00005 69.2 9.00005 69.1 9.00005C68.4 8.60005 67.7 7.90005 67 7.50005C65.8 6.40005 63.2 4.90005 58.5 3.30005Z" fill="#1B273F"/>
<path opacity="0.4" d="M54.9001 3H54.8C60.5 4.8 63.7001 6.1 68.9001 9L69 9.1C64.8 6.8 61.5001 5.1 54.9001 3Z" fill="#1B273F"/>
<path opacity="0.4" d="M72.2 19.4V19.3C75.8 22.8 78.2 25.2001 81.8 30.2001V30.3C78.9 26.5 77.2 24.2 72.2 19.4Z" fill="#1B273F"/>
<path opacity="0.4" d="M71.7 19.6H71.8C73.4 23.1 76.2 28.9 76.9 39.4H76.8C76 33.2 75.3 27.2 71.7 19.6Z" fill="#1B273F"/>
<path opacity="0.4" d="M76.1 42.5C76.1 42.5 76.2 42.6 76.3 42.6C74.3 46.8 72.1 51.7 64.8 60.9C64.8 60.9 64.7 60.8 64.6 60.8C70.4 53.4 73.3 48.8 76.1 42.5Z" fill="#1B273F"/>
<path opacity="0.4" d="M82.3 56.9C82.3 56.9 82.4 56.9 82.3 56.9C81 60.9 80.3 62.7 78.1 66.6C78.1 66.6 78 66.6 78 66.5C79.8 62.9 80.9 60.9 82.3 56.9Z" fill="#1B273F"/>
<path opacity="0.4" d="M64.9 62.8C64.9 62.7 65 62.6 65 62.6C70.3 64.5 73.1 65.6 76.6 67.5C76.5 67.6 76.5 67.6 76.5 67.7C74.1 66.5 72.1 65.3 64.9 62.8Z" fill="#1B273F"/>
<path opacity="0.4" d="M82 55.6C82 55.7 82 55.7 82 55.8C78.9 57.3 75.4 58.8 65.1 62C65.1 61.9 65.1 61.9 65.1 61.8C75.7 58.2 77.1 57.8 82 55.6Z" fill="#1B273F"/>
<path opacity="0.4" d="M82.2 32.4C82.3 32.5 82.3 32.5 82.3 32.6C81 35.4 80.5 36.5 77.7 40.2C77.6 40.1 77.6 40.1 77.6 40C79.9 37 80.7 35.8 82.2 32.4Z" fill="#1B273F"/>
<path opacity="0.4" d="M77.6 42.6C77.7 42.5 77.7 42.5 77.7 42.4C79.5 45.6 81.3 49 82.6 53.7C82.5 53.8 82.5 53.8 82.5 53.9C81.5 50.8 80.5 47.6 77.6 42.6Z" fill="#1B273F"/>
<path opacity="0.4" d="M67.3 80.7C64.3 83.2 60.5 86.3 54.5 88.7C57.9 87.2 61.6 85.5 67.3 80.7Z" fill="#1B273F"/>
<path opacity="0.4" d="M83 21.7C86.1 27 86.8 28.4 88.6 34.1C86.7 28.3 86.1 26.9 83 21.7Z" fill="#1B273F"/>
<path opacity="0.4" d="M78.1 76.5C78 76.6 78 76.6 77.9 76.7C77.2 77.3 76.1 78.1 69.2 79.6C69.3 79.5 69.3 79.4 69.4 79.4C69.9 79.2 70.5 79.2 71 79.1C72.7 78.7 77 77.7 78.1 76.5Z" fill="#1B273F"/>
<path opacity="0.4" d="M73.4 80.9C73.3 81 73.1 81.1 73 81.2C70 83.3 68.7 84.3 64.4 86.3C66.1 85.4 67.9 84.5 69.6 83.5C70.8 82.8 72.3 81.7 73.4 80.9Z" fill="#1B273F"/>
<path opacity="0.4" d="M68.4001 80.3C68.5001 80.3 68.5 80.2 68.6 80.2C68.4 81.9 68.1 84 64 86.4C63.9 86.4 63.8 86.5 63.8 86.5C65.7 85.3 68.2001 83.7 68.4001 80.3C68.4001 80.3 68.4001 80.4 68.4001 80.3Z" fill="#1B273F"/>
<path opacity="0.4" d="M71.3 10.5L71.2 10.4C74.2 12.4 77.9 15 81.3 19.3L81.4 19.4C79.3 16.9 76.9 14.1 71.3 10.5Z" fill="#1B273F"/>
<path opacity="0.4" d="M71.2 10.7C71.3 10.7 79.3 16.6 82.4 30H82.3C80.9 24.8 79 17.8 71.2 10.7Z" fill="#1B273F"/>
<path opacity="0.4" d="M82.5 21C83.9 23 85.1 26.2 83.1 30.8C83 30.7 83 30.7 83 30.6C83.9 28.2 85 25.2 82.5 21Z" fill="#1B273F"/>
<path opacity="0.4" d="M54.4 2.30005C54.5 2.30005 54.6 2.30005 54.8 2.40005L56.3 2.80005C56.1 2.60005 56.1 2.60005 54.4 2.30005Z" fill="#1B273F"/>
<path opacity="0.4" d="M48.2 1.5C48.3 1.5 48.4 1.5 48.5 1.5C51.6 1.7 53.0999 2.1 53.7999 2.6C53.6999 2.6 53.5999 2.6 53.5999 2.5C53.4999 2.5 53.4 2.4 53.4 2.3C53.3 2.2 52.9 2 52 1.8C50.5 1.6 49 1.5 48.2 1.5Z" fill="#1B273F"/>
<path opacity="0.4" d="M54.1 2.69998C54 2.69998 54 2.69998 53.9 2.59998C55.6 2.69998 56.3 2.69998 57 2.79998C57.1 2.79998 57.2 2.79998 57.3 2.89998C56.6 2.89998 56 2.79998 54.1 2.69998Z" fill="#1B273F"/>
<path opacity="0.4" d="M89.3 37.5C90 42.2 91 49.4 87.7 59.7C89.2 54.4 91.1 47.8 89.3 37.5Z" fill="#1B273F"/>
<path opacity="0.4" d="M83.5 55.9C83.5 55.8 83.6 55.7 83.6 55.7C85.2 57.2 86.5 58.4 87 60.6C87 60.7 86.9 60.8 86.9 60.9C86.5 59.4 86.2 58.3 83.5 55.9Z" fill="#1B273F"/>
<path opacity="0.4" d="M53.4 89.2C53.5 89.2 53.5 89.2 53.6 89.1C53.9 89.3 54.4 89.7 52 90.1C51.8 90.1 51.6 90.2 51.4 90.2C51.3 90.2 51.2 90.2 51.1 90.2C53 90 54.1 89.8 53.4 89.2C53.4 89.3 53.4 89.3 53.4 89.2C53.4 89.3 53.4 89.3 53.4 89.2Z" fill="#1B273F"/>
<path opacity="0.4" d="M62.3 87.3C62.4 87.3 62.4 87.2 62.5 87.2C60.3 88.2 60.2 88.2 58.4 88.7L58.1 88.8C60.4 88.1 60.7 88 62.3 87.3Z" fill="#1B273F"/>
<path opacity="0.4" d="M62.8 87C62.8 87 60.9 87.8 53.8 89.1C53.9 89.1 53.9 89 54 89C56.9 88.3 59.9 87.8 62.8 87Z" fill="#1B273F"/>
<path opacity="0.4" d="M83 33.1H83.1C84.4 39.9 84.8 44.8 83.3 53.5H83.2C84.3 45.9 84.6 41.3 83 33.1Z" fill="#1B273F"/>
<path opacity="0.4" d="M83.5 32C83.5 31.9 83.5 31.8 83.4 31.8C86.4 33.3 87.5 33.9001 88.6 35.4001C88.6 35.5001 88.6 35.6001 88.7 35.7001C87.7 34.3001 87 33.6 83.5 32Z" fill="#1B273F"/>
<path opacity="0.4" d="M89.1 36.9C89.1 37 90.9 44 83.8 54.3C83.8 54.2 83.8 54.2 83.8 54.1C86.1 50.3 89.8 44.6 89.1 36.9Z" fill="#1B273F"/>
<path opacity="0.4" d="M2.79998 33.3C2.59998 34 2.19998 35.5001 2.09998 36.2001C2.29998 35.2001 2.49998 34.3 2.79998 33.3Z" fill="#1B273F"/>
<path opacity="0.4" d="M41.1 90.4C41 90.4 41 90.4 41.1 90.4C41.9 90.5 43 90.6 44.6 90.6H44.5C43.3 90.6 42.2 90.5 41.1 90.4Z" fill="#1B273F"/>
<path opacity="0.4" d="M10.2 73.1C10.3 73.2 12.3 75.6 12.3 75.7C11.6 74.8 10.9 74 10.2 73.1Z" fill="#1B273F"/>
<path opacity="0.4" d="M30.7 4.09998C29.9 4.39998 29.2 4.69998 29.1 4.79998C29.3 4.79998 32.1 3.69998 32.2 3.59998C32.1 3.59998 31.4 3.79998 30.7 4.09998Z" fill="#1B273F"/>
<path opacity="0.4" d="M13.7 16C14.3 15.3 14.9 14.8 15.1 14.8C15.5 14.9 13.9 16.7 13.2 17.1C12.9 17.3 12.8 17.3 12.8 17.1C12.9 16.9 13.2 16.5 13.7 16Z" fill="#1B273F"/>
<path opacity="0.4" d="M24.7 84.4C24 83.9 23.7 83.6 23.8 83.6C24.3 83.6 26.7 85.2 26.5 85.3C26.4 85.4 25.6 85 24.7 84.4Z" fill="#1B273F"/>
<path opacity="0.4" d="M9.69996 36.8C9.79996 36 10.3 35.2 11 35.1C12.1 35.1 12 37.3 11.1 38.2C10.5 38.8 9.69996 38.5 9.69996 37.3C9.59996 37.2 9.69996 37 9.69996 36.8Z" fill="#1B273F"/>
<path opacity="0.4" d="M13.3 57.8C13.1 56.7 13.6 56.2 14.1 56.1C15.5 56.2 16 58.6 15.3 59.3C14.7 59.8 13.6 59.3 13.3 57.8Z" fill="#1B273F"/>
<path opacity="0.4" d="M43.8 90.6C43.1 90.5 42.6 90.5 42.6 90.5C43.4 90.5 44.3 90.7 45.1 90.7C45 90.6 44.5 90.6 43.8 90.6Z" fill="#1B273F"/>
<path opacity="0.4" d="M21.2 74.7C20.8 73.9 20.8 73.4 21.4 73.4C22.6 73.5 23.8 75.4 23.2 75.9C22.9 76.2 21.9 75.8 21.2 74.7Z" fill="#1B273F"/>
<path opacity="0.4" d="M23.3 14.7C23.7 14.2 24.3 13.6 25 13.5C25.8 13.5 25.3 14.6 24.6 15.3C23.8 16.1 23 16.1 22.9 15.6C23 15.2 23.2 14.9 23.3 14.7Z" fill="#1B273F"/>
<path opacity="0.4" d="M36.7 3.70007C37.2 3.40007 37.8 3.20007 38.1 3.20007C38.1 3.20007 38.3 3.20007 38.1 3.30007C37.6 3.80007 36 4.50007 36 4.20007C36 4.10007 36.3 3.90007 36.7 3.70007Z" fill="#1B273F"/>
<path opacity="0.4" d="M40.5 89.6C40 89.4 39.9 89.3 39.9 89.2C39.9 89.2 39.9 89.2 40 89.2C40.4 89.2 41.8 89.8 41.8 89.9C41.6 90 41 89.8 40.5 89.6Z" fill="#1B273F"/>
<path opacity="0.4" d="M30.7 41.9C30.7 40.9 31.4 40.2 32.4 40.2C34.1999 40.2 34.4 42.4 33.5 43.3C32.6 44.2 30.7 43.7 30.7 41.9Z" fill="#1B273F"/>
<path opacity="0.4" d="M36.8 80.2C36.6 79.6 36.9 79.1 37.5 79.1C38.7 79.1 39.3 80.5 38.8 81C38.4 81.5 37.2 81.2 36.8 80.2Z" fill="#1B273F"/>
<path opacity="0.4" d="M34.1 59.9C34 58.8 34.8 58.3 35.6 58.2C37.3 58.2 37.8001 60.2 36.9001 61C36.0001 62 34.2 61.5 34.1 59.9Z" fill="#1B273F"/>
<path opacity="0.4" d="M41.2 10.5C41.3 10.3 41.5 9.59998 42.4 9.59998C43.4 9.59998 43.6 10.7 43 11.3C42.4 11.9 41.1 11.7 41.1 10.9C41.2 10.7 41.2 10.6 41.2 10.5Z" fill="#1B273F"/>
<path opacity="0.4" d="M49 73.8C49.1 73.2 49.5 72.6 50.5 72.6C52 72.7 52 74.2 51.3 74.8C50.4 75.6 48.9 75.2 49 73.9C48.9 73.9 48.9 73.8 49 73.8Z" fill="#1B273F"/>
<path opacity="0.4" d="M46 90.5C46.1 90.4 46.3001 90.3 46.4001 90.3C46.5001 90.3 46.5001 90.3 46.4001 90.4C46.3001 90.5 45.8 90.6 45.8 90.6C45.9 90.6 45.9 90.5 46 90.5Z" fill="#1B273F"/>
<path opacity="0.4" d="M50.6 20.9C50.6 20.3 50.9 19.7 51.9 19.7C53.5 19.7 53.9 21.4 53.2 22.1C52.4 22.9 50.6 22.4 50.6 20.9Z" fill="#1B273F"/>
<path opacity="0.4" d="M47.3 2.20002C47.2 2.10002 47.1 1.90002 47.2 1.90002C47.6 1.90002 48.4 2.40002 48.2 2.50002C48.2 2.60002 47.8 2.50002 47.3 2.20002Z" fill="#1B273F"/>
<path opacity="0.4" d="M50.2 87.3C50.5 86.8 51 86.7 51.3 86.7C51.8 86.7 51.8 87.1 51.3 87.5C50.7 88 50 88.2 50 87.8C50 87.6 50.1 87.5 50.2 87.3Z" fill="#1B273F"/>
<path opacity="0.4" d="M61.9 43.6C61.9 42.6 62.5 41.9 63.4 41.8C65.2 41.8 65.4 44.2 64.5 45C63.6 45.8 61.9 45.4 61.9 43.6Z" fill="#1B273F"/>
<path opacity="0.4" d="M62.2 62.3C62.4 61 63.4 60.7 63.9 60.7C65.5 60.7 65.3 62.6 64.5 63.4C63.6 64.2 62.2 63.9 62.2 62.6C62.1 62.4 62.2 62.3 62.2 62.3Z" fill="#1B273F"/>
<path opacity="0.4" d="M56.4 7.79998C56.3 7.59998 56 7.09998 56.5 7.09998C57.5 7.09998 58.6 8.39998 58.2 8.79998C57.9 8.99998 57 8.69998 56.4 7.79998Z" fill="#1B273F"/>
<path opacity="0.4" d="M53 89.1C53.6 88.9 54.2 88.7 54.4 88.6C54.4 88.6 54.5 88.6 54.4 88.7C54.2 88.9 52.3 89.6 52 89.5C52.2 89.5 52.2 89.5 53 89.1Z" fill="#1B273F"/>
<path opacity="0.4" d="M75.6 41C75.6 40.1 76 39.5 76.7 39.5C78 39.5 78.5 41.9 77.6 42.7C76.9 43.3 75.6 42.7 75.6 41Z" fill="#1B273F"/>
<path opacity="0.4" d="M70 18.1C69.6 17.3 69.8 17 70.2 17C71.2 17 72.6 19 72.1 19.5C71.7 19.8 70.7 19.3 70 18.1Z" fill="#1B273F"/>
<path opacity="0.4" d="M53.4 2.70005C52.6 2.40005 52.4 2.40005 52.4 2.30005C52.8 2.30005 55 2.90005 55 3.10005C54.9 3.10005 54.1 2.90005 53.4 2.70005Z" fill="#1B273F"/>
<path opacity="0.4" d="M67.8 79.7C68.4 79 69 78.6 69.5 78.6C70 78.6 69.8 79.2 69 79.9C68.2 80.7 67.3 81 67.3 80.6C67.3 80.4 67.4 80.1 67.8 79.7Z" fill="#1B273F"/>
<path opacity="0.4" d="M76.3 68C76.7 67.1 77.3 66.6 77.8 66.5C78.7 66.5 78.1 68.2 77.3 69C76.6 69.6 76 69.6 76 68.9C76 68.7 76.1 68.4 76.3 68Z" fill="#1B273F"/>
<path opacity="0.4" d="M82 55.1C82.2 54.4 82.5 53.6 83.1 53.6C84.1 53.6 83.8 56 83 56.8C82.5 57.2 81.9 57.1 81.9 56C81.9 55.8 81.9 55.5 82 55.1Z" fill="#1B273F"/>
<path opacity="0.4" d="M81.8 31.3C81.6 30.6 81.6 29.9 82.1 29.9C83 29.9 84 32.4 83.4 33C83 33.4 82.2 32.8 81.8 31.3Z" fill="#1B273F"/>
<path opacity="0.4" d="M69.6 9.60007C69.1 9.20007 68.6 8.80007 68.8 8.70007C69.3 8.70007 71.6 10.4001 71.4 10.7001C71.4 10.8001 70.9 10.6001 69.6 9.60007Z" fill="#1B273F"/>
<path opacity="0.4" d="M63.2 86.8C64.2 86.4 64.5999 86.2 64.7999 86.1C64.6999 86.3 62 87.4 61.7 87.5C61.7 87.5 61.7 87.5 63.2 86.8Z" fill="#1B273F"/>
<path opacity="0.4" d="M86.8001 61.2C87.1001 60.3 87.4 59.7 87.6 59.6C87.9 59.7 86.9 62.6 86.5 62.8C86.4 62.9 86.4 62.6 86.5 62.2C86.6 61.9 86.7001 61.5 86.8001 61.2Z" fill="#1B273F"/>
<path opacity="0.4" d="M57.1 2.9C56.6 2.8 56 2.6 55.5 2.5C56.2 2.6 58.2 3.2 58.8 3.4C58.8 3.4 58.8 3.4 58.6 3.3C57.8 3.1 57.6 3 57.1 2.9Z" fill="#1B273F"/>
<path opacity="0.4" d="M88.8 35.8C88.6 35.1 88.5 34.2 88.5 34.1C88.6 34.2 89.4 37.2 89.3 37.5C89.3 37.5 89 36.4 88.8 35.8Z" fill="#1B273F"/>
<path opacity="0.4" d="M82 20.2C81.7 19.8 81.4 19.4 81.1 19L81.6 19.7L83 21.8C82.7 21.3 82.3 20.7 82 20.2Z" fill="#1B273F"/>
<path d="M61.6 87.9C61.5 87.9 61.5 87.9 61.4 88C64.8 86.6 66.2 86.1 69.9 83.9C70 83.8 70.1 83.8 70.2 83.7C67.3 85.4 66.2 86.1 61.6 87.9C61.7 87.9 61.7 87.9 61.6 87.9Z" fill="#1B273F"/>
<path d="M73.1 81.6C73.2 81.5 73.3 81.5 73.4 81.4C75.4 79.7 75.4 79.7 76.3 78.6C76.2 78.7 76.2 78.7 76.1 78.8C75.7 79.2 75.2 79.7 74.8 80.1C74.4 80.6 73.7 81.1 73.1 81.6Z" fill="#1B273F"/>
<path d="M61.9 87.7C67.3 85.3 70 83.8 75.5 79.1C70.9 83 68.4 84.9 61.9 87.7Z" fill="#1B273F"/>
<path d="M77.6 14.4C77.5 14.3 77.4 14.2 77.4 14.2C77.3 14.1 77.3 14.1 77.2 14C74.1 11.2 68.5 6.00002 58 2.90002C65.1 5.50002 70.8 7.70002 77.6 14.4Z" fill="#1B273F"/>
<path d="M80 17C79.9 16.9 79.9 16.8 79.8 16.8C79.4 16.4 79 16 78.6 15.6C78.7 15.7 78.7 15.7 78.8 15.8C79.1 16.2 79.7 16.7 80 17Z" fill="#1B273F"/>
<path d="M87.4 35.3L87.5 35.4C87.3 31.7 86.9 26.5 82.4 20.1C82.3 20 82.2 19.8 82.1 19.7C84.2 23 87.2 27.5 87.4 35.3C87.4 35.3 87.4 35.2 87.4 35.3Z" fill="#1B273F"/>
<path d="M58 4.3C58.1 4.3 58.1 4.4 58.2 4.4C58.4 3.9 58.4 3.8 58.1 3.4C57.9 3.1 57.3 2.8 56.9 2.6C56.8 2.6 56.7 2.6 56.6 2.5C57.3 2.8 57.6 3 57.9 3.3C58.2 3.7 58.1 4 58 4.3Z" fill="#1B273F"/>
<path d="M77 14.2C72.4 10 67.6 6.00002 58.1 2.90002C64.1 5.00002 69.7 7.30002 77 14.2Z" fill="#1B273F"/>
<path d="M77.4 14.7C77.4 14.7 73.1 10.3 59 4.80005C59.6 5.30005 60.6 5.50005 61.3 5.70005C70.8 9.70005 75.4 13.2 77.4 14.7Z" fill="#1B273F"/>
<path d="M61.2 88C61.2 88 65 86.6 67.5 83.4C67.4 83.4 67.4 83.5 67.3 83.5C66.9 83.8 66.4999 84.4 66.1999 84.7C66.0999 84.8 64.7 86.4 61.2 88Z" fill="#1B273F"/>
<path d="M78 76.7C84.2 70 86.9 65.2 89.3 56.7C89.4 56.4 89.5 56 89.5 55.7C88.3 60.4 86.2 68.2 78 76.7Z" fill="#1B273F"/>
<path d="M90.6 44.9C90.6 44.8 90.6 44.7 90.6 44.5C90.4 42.4 90.1 40.5 88.1 37.5C88.1 37.6 88.1 37.7 88.1 37.8C88.3 38.4 88.8 39 89.1 39.5C89.1 39.5 90.5 41.8 90.6 44.9Z" fill="#1B273F"/>
<path d="M84.1 50.9L84.2 51C85.6 47.4 87 44 87.4 38.3C87.4 38.2 87.3 38.2 87.3 38.1C86.9 41.7 86.5 45.1 84.1 50.9Z" fill="#1B273F"/>
<path d="M84.4 51.9C84.4 52 84.4 52.1 84.4 52.2C88.3 50.4 90.3 49.2 90.6 47.2C90.6 47.1 90.6 47 90.6 46.9C90.3 48.3 89.6 49.6 84.4 51.9Z" fill="#1B273F"/>
<path d="M50.9 90.4C53.8 89.7 59.1 88.3 66.5 83.7V83.6C63.3 85.5 57.8 88.8 50.9 90.4Z" fill="#1B273F"/>
<path d="M76.4 23.5C76.4 23.6 76.5 23.6 76.5 23.7C78.7 21.1 79.7 19.1 78.5 16C78.4 15.9 78.4 15.9 78.3 15.8C79.2 18.3 79.2 20.1 76.4 23.5C76.4 23.4 76.4 23.4 76.4 23.5Z" fill="#1B273F"/>
<path d="M87.2 35C87.2 35.1 87.2 35.1 87.2 35C86.4 30.5 85.3 24.2 79.3 16.6L79.2 16.5C81.9 20.3 85.6 25.3 87.2 35C87.2 35 87.1 35 87.2 35Z" fill="#1B273F"/>
<path d="M86.7 35.7C86.7 35.3 84 30.9 77 25C77 25 77 25.1 77 25.2C80.7 28.5 83.8 31.3 86.7 35.7Z" fill="#1B273F"/>
<path d="M68.9 82.3L68.8 82.4C70.9 81.4 73.4 80.3 76 78.6C76.1 78.5 76.1 78.5 76.2 78.4C74.2 79.6 72.7 80.6 68.9 82.3Z" fill="#1B273F"/>
<path d="M77.6 76.9C77.7 76.8 85.5 69.7 83.8 53.9L83.7 54C84.3 61.5 84.2 68.4 77.6 76.9Z" fill="#1B273F"/>
<path d="M77 77.5C77 77.5 80.1 74.4 74.6 68.4C74.5 68.5 74.5 68.5 74.4 68.6C76.7 71.3 78.6 73.9 77 77.5Z" fill="#1B273F"/>
<path d="M56.2 2.4C55.1 2.1 49.9 1.3 46 1C55.1 2.2 55.1 2.2 56.2 2.4Z" fill="#1B273F"/>
<path d="M55.5 2.19998C55.6 2.19998 55.6 2.19998 55.7 2.19998C53.2 1.59998 52.2 1.39998 48.5 1.09998H48.1C51.3 1.29998 52.4 1.39998 55.5 2.19998Z" fill="#1B273F"/>
<path d="M48.7 90.9C48.9 90.9 49 90.9 49.2 90.9C54 90.4 55.1999 90.1 59.2999 88.8C56.1999 89.7 53.6 90.5 48.7 90.9Z" fill="#1B273F"/>
<path d="M50.4 90.5C50.3 90.5 50.3 90.5 50.2 90.5C53.9 89.9 56.3 89.4 59.5 88.6C59.6 88.6 59.7 88.5 59.7 88.5C57.3 89.2 54.9 89.8 50.4 90.5Z" fill="#1B273F"/>
<path d="M57.6 86.5C61.7 85.2 63.9 84.4 66.8 83.3C66.9 83.2 66.9 83.2 67 83.1C63.6 84.4 62 85 57.6 86.5Z" fill="#1B273F"/>
<path d="M68.6 81.9C68.6 81.9 72.7 78.5 73.8 69.2L73.7 69.3C73 73.4 72.5 77 68.6 81.9Z" fill="#1B273F"/>
<path d="M50.7 90.4C51 90.3 53.5999 89.8 56.0999 87.5H56C55.5 87.8 54.9999 88.3 54.5999 88.6C53.5999 89.4 51.4 90.2 50.7 90.4Z" fill="#1B273F"/>
<path d="M45.7999 91H46.0999C48.8999 91 49.5999 90.8 49.7999 90.6C49.6999 90.6 49.6999 90.6 49.5999 90.6C49.5999 90.6 49.4999 90.6 49.4999 90.7C49.2999 90.8 48.5999 90.9 48.2999 90.9C47.9999 90.9 47.2999 91 45.7999 91Z" fill="#1B273F"/>
<path d="M45.6 91C46.6 91 47.1 91 49 90.7C49.1 90.7 49.1 90.7 49.2 90.7C47.5 90.9 46.8 91 45.6 91Z" fill="#1B273F"/>
<path d="M83.4 50.7H83.5C83.3 45.7 82.8 37.4 76.7 25.7H76.6C79.8 32.2 83 39.5 83.4 50.7Z" fill="#1B273F"/>
<path d="M74.8 66.5C74.9 66.6 74.9 66.6 74.8 66.5C77.3 63.5 79.8 60.2 82.8 54C82.7 53.9 82.7 53.9 82.7 53.9C80.8 57.9 79.3 60.7 74.8 66.5Z" fill="#1B273F"/>
<path d="M73.6 66.7L73.7 66.6C73.2 63.6 71.9 55.7 61.6 41C61.5 41.1 61.5 41.1 61.4 41.2C66.6 48.9 72.2 58 73.6 66.7Z" fill="#1B273F"/>
<path d="M82.7 51.9C82.7 51.8 82.7 51.7 82.8 51.7C78.1 47.9 72.1 44.6 62.1 40.2C62.1 40.3 62.1 40.3 62 40.4C70.7 44.5 77 47.4 82.7 51.9Z" fill="#1B273F"/>
<path d="M51.1 21.2C51.2 21.2 51.3 21.2 51.3 21.2C50.7 17.8 48.7 7.40002 46.6 2.40002C46.5 2.40002 46.5 2.40002 46.5 2.40002C47.1 3.90002 48.7 8.20003 51.1 21.2Z" fill="#1B273F"/>
<path d="M57 4.2C56.7 3.9 49.6 1.6 46.2 1C48.2 1.5 50.8 2 57 4.2Z" fill="#1B273F"/>
<path d="M57.3 4.39998C57.1 4.29998 57.1 4.29998 55.7 3.99998C52.8 3.39998 49.8 2.79998 46.9 2.09998C46.9 2.09998 46.9 2.09998 46.9 2.19998C50.3 2.89998 53.8 3.59998 57.3 4.39998Z" fill="#1B273F"/>
<path d="M45.7999 91C47.7999 90.8 49.9999 90.6 55.5999 87.5C52.6999 89 49.3999 90.8 45.7999 91Z" fill="#1B273F"/>
<path d="M75 22.7001C75 22.7001 75.1 22.7001 75 22.7001C71.2 15.9001 67 10.4001 59.2 5.20007C64.4 8.90007 69.3 12.8001 75 22.7001Z" fill="#1B273F"/>
<path d="M52.4 21.6L52.5 21.7C57.6 15.9 61.9 9.9 58.5 5.1C58.5 5 58.4 5 58.3 5C60.5 8.4 60.4 12.6 52.4 21.6C52.4 21.6 52.4 21.5 52.4 21.6Z" fill="#1B273F"/>
<path d="M61.7 38.6C61.8 38.7 61.7999 38.7 61.7999 38.8C67.7999 34.2 72.4 30.1 75.5 25.2C75.4 25.1 75.4 25.1 75.3 25C73.1 28.2 70.5 31.8 61.7 38.6Z" fill="#1B273F"/>
<path d="M74.9 24.2C74.9 24.1 74.8 24 74.8 23.9C70.3 23.6 65.3 23.2 53 22.6C53 22.7 53 22.8 53 22.8C58.4 23.2 67.4 23.6 74.9 24.2Z" fill="#1B273F"/>
<path d="M45.6 91C47 91 47.5 90.6 47.3 89.7H47.2C47.2 90 47.2 90.4 47 90.6C46.7 90.9 46.3 91 45.6 91Z" fill="#1B273F"/>
<path d="M47.6 89.2C47.6 89.3 47.6 89.3 47.6 89.2C50.3 88.5 55.6 87.1 55.7 87.1L55.8 87C53.1 87.7 50.4 88.5 47.6 89.2Z" fill="#1B273F"/>
<path d="M73 67.5C73 67.4 73.1 67.4 73.1 67.3C69 64.5 64 62 54.5 58.2C54.5 58.3 54.4 58.3 54.4 58.4C65.1 63 68 64.3 73 67.5Z" fill="#1B273F"/>
<path d="M57.7 86.1C61.9 83 67 78.5 73 69.4C73 69.4 72.9 69.4 72.9 69.3C70.2 73.3 65.7 80 57.7 86.1Z" fill="#1B273F"/>
<path d="M56.5 86.5C56.6 86.5 56.6 86.4 56.7 86.4C55.7 84.3 54 82.8 49.1 79.9C49.1 80 49 80 49 80.1C53.8 83 55.5 84.4 56.5 86.5Z" fill="#1B273F"/>
<path d="M49.1 78.8V78.9C64.6 72.6 70.2 69.8 72.5 68.6C72.5 68.5 72.5 68.4 72.5 68.4C65.5 72 62.3 73.3 49.1 78.8Z" fill="#1B273F"/>
<path d="M50.3 21.7001L50.4 21.6001C42.2 13.8001 40.5 12.2001 38.6 8.70007L38.5 8.80007C40.7 12.7001 43.6 15.6001 50.3 21.7001Z" fill="#1B273F"/>
<path d="M50 22.5C50 22.4 50 22.3 50 22.3C40.1 20.7 35.6 20 28.7 18.5C28.7 18.6 28.6 18.7 28.6 18.7C35.7 20.2 39.9 20.9 50 22.5Z" fill="#1B273F"/>
<path d="M53.5 56C53.6 56 53.6 56.1 53.7 56.1C56.2 50.9 57.6 47.7001 59.9 41.4001C59.8 41.4001 59.8 41.3 59.6 41.3C57.8 46.3 56.8 49.1 53.5 56Z" fill="#1B273F"/>
<path d="M59.5 38.1C59.6 38.1 59.6 38 59.7 38C58 34.3 57.1 32.4 52.4 24C52.4 24 52.3 24.1 52.2 24.1C58.2 35.4 58.2 35.4 59.5 38.1Z" fill="#1B273F"/>
<path d="M26.7 39.2C26.7 39.2 26.6999 39.3 26.7999 39.3C34.5999 34 42.6 28.9 50.4 23.6C50.3 23.5 50.3 23.5 50.2 23.4C42.4 28.7 34.3 33.5 26.7 39.2C26.7 39.2 26.7 39.1 26.7 39.2Z" fill="#1B273F"/>
<path d="M26.9 40.1C26.9 40.2 26.9 40.2 26.9 40.3C30.8 40.4 30.8 40.4 58.7 39.9C58.7 39.8 58.7 39.7 58.7 39.6C48.2 39.7 37.6 39.9 26.9 40.1Z" fill="#1B273F"/>
<path d="M35.1 87.4L35.2 87.5C36.1 85.6 38.3 83.8 46.8 80C46.8 79.9 46.8 79.9 46.7 79.8C40.1 82.8 35.9 85.1 35.1 87.4Z" fill="#1B273F"/>
<path d="M47.2 88.9C47.2 88.9 47.3 88.9 47.2 88.9C47.6 87.6 48.0999 85.6 48.0999 80.5C47.9999 80.5 48 80.5 47.9 80.5C47.9 82.9 47.9 86.6 47.2 88.9Z" fill="#1B273F"/>
<path d="M44.7999 91C41.6999 90.6 38.8 89.4 36.2 88.3C36.2 88.2 39.8999 90.2 44.7999 91Z" fill="#1B273F"/>
<path d="M45.1 91C45 91 44.8 90.9 44.7 90.8C44.8 90.6 44.9 90.4 46.6 89.7C46.6 89.7 46.6 89.7 46.6 89.6C46.2 89.8 45.5 90 45.1 90.3C44.9 90.4 44.7 90.6 44.6 90.8C44.7 90.9 44.7 90.9 45.1 91Z" fill="#1B273F"/>
<path d="M46.6 89.4C46.6 89.4 46.7 89.4 46.6 89.4C43 88.7 39.3 88.3 35.6 87.8C35.7 87.9 35.7 87.9 37 88.1C40.3 88.5 43.5 88.9 46.6 89.4Z" fill="#1B273F"/>
<path d="M28.6 17.2C28.6 17.2 28.6 17.3 28.6 17.2C32 13.9 33.5 12.4 37.3 8.90005C37.3 8.90005 37.2 8.90005 37.2 8.80005C34.3 11.4 31.9 13.7 28.6 17.2Z" fill="#1B273F"/>
<path d="M46.9 78.9L47 78.8C38 73.5 28.7 69 20 63.4C20 63.4 20 63.5 20 63.6C23.1 65.6 23.8 66.1 28 68.5C34.2 72 40.6 75.3 46.9 78.9Z" fill="#1B273F"/>
<path d="M48.2 78.2H48.3C50.3 71.1 52.5 60.5 52.7 59.3C52.6 59.3 52.5 59.3 52.4 59.3C51.4 64.3 50.7 67.6 48.2 78.2C48.1 78.2 48.1 78.2 48.2 78.2Z" fill="#1B273F"/>
<path d="M51.2999 56.9C51.2999 56.8 51.4 56.7 51.5 56.7C33.2 45.7 33.1999 45.7 26.7999 41.1C26.7999 41.2 26.7 41.3 26.7 41.4C32.7 45.6 32.6999 45.6 51.2999 56.9Z" fill="#1B273F"/>
<path d="M19.7999 62.4001C19.7999 62.4001 19.7999 62.5 19.8999 62.6C40.4999 59.5 40.4999 59.5 51.1999 58.1C51.1999 58 51.1999 57.9 51.1999 57.8C36.7999 59.6 28.1999 60.8001 19.7999 62.4001C19.7999 62.3001 19.7999 62.3001 19.7999 62.4001Z" fill="#1B273F"/>
<path d="M46.5 1.69998C46.5 1.69998 46.5 1.79998 46.5 1.69998C46.5 1.59998 46.5 1.39998 46.5 1.29998C46.4 1.19998 46.3 1.09998 46.2 1.09998C46.2 1.09998 46.2 1.09998 46.1 1.09998C46.2 1.19998 46.3 1.29998 46.4 1.39998C46.5 1.49998 46.5 1.59998 46.5 1.69998Z" fill="#1B273F"/>
<path d="M37.5 2.79998C37.5 2.79998 37.4 2.79998 37.4 2.89998C45.6 1.29998 45.6 1.29998 46 1.09998C46 1.09998 46 1.09998 45.9 1.09998C45.7 1.09998 45.7 1.09998 37.5 2.79998Z" fill="#1B273F"/>
<path d="M39.1 7.40005C43.9 4.40005 45.2 3.50005 46.3 2.40005C46.3 2.40005 46.3 2.40005 46.2 2.30005C45.1 3.30005 44.5 3.80005 39.1 7.40005C39.1 7.40005 39.1 7.30005 39.1 7.40005Z" fill="#1B273F"/>
<path d="M37.6 7.60007C37.7 7.50007 37.7 7.50007 37.7 7.50007C36.6 6.20007 35.5 4.80007 36.6 3.20007C36.4 3.30007 35.7 3.70007 36.1 5.40007C36.2 5.90007 36.7 6.60007 37.6 7.60007Z" fill="#1B273F"/>
<path d="M37.3999 2.8C37.3999 2.8 37.2999 2.8 37.2999 2.9C39.5999 2.7 46.0999 2.1 46.0999 2.1C46.0999 2.1 46.0999 2.1 46.0999 2C43.1999 2.3 40.2999 2.6 37.3999 2.8Z" fill="#1B273F"/>
<path d="M34 87.1C30.5 84.2 23.9 78.8 19.2 64.3H19.1C21.2 70.9 25 80.4 34 87.1Z" fill="#1B273F"/>
<path d="M7.19995 47.6C7.19995 47.7 7.19995 47.8 7.19995 47.8C12.1 45.2 15.4 43.8 23.7999 40.9C23.7999 40.8 23.7999 40.7 23.7999 40.6C15.6999 43.4 11.9 45 7.19995 47.6Z" fill="#1B273F"/>
<path d="M18.7999 61.1C18.7999 61.1 18.8999 61.1 18.8999 61.2C20.2999 54.2 21.0999 50.7 24.7999 42C24.6999 42 24.5999 41.9 24.5999 41.9C20.7999 50.8 19.7999 54.8 18.7999 61.1C18.7999 61.1 18.6999 61.1 18.7999 61.1Z" fill="#1B273F"/>
<path d="M25.2 38.5C25.3 38.5 25.3 38.5 25.4 38.5C25.5 30.3 25.6 26.8 27.3 19.8C27.2 19.8 27.2 19.8 27.1 19.8C25.7 25.8 25.1 29.7 25.2 38.5Z" fill="#1B273F"/>
<path d="M24.1 39.4C24.2 39.3 24.2 39.3 24.2 39.1C19.6 35.3 15.8 32.1 12.9 27.4C12.8 27.5 12.8 27.5 12.7 27.6C14.9 31 17 33.7 24.1 39.4Z" fill="#1B273F"/>
<path d="M38.2 90.2C38.4 90.2 38.4 90.2 38.4 90.2C37 89.7 35.8 89.3 35.3 88.1C35.2 88.1 35.2 88 35.1 88C35.5 88.8 35.8 89.4 38.2 90.2C38.2 90.1 38.2 90.1 38.2 90.2Z" fill="#1B273F"/>
<path d="M33.9 87.2C29 84.3 25.9 82.5 20.2 77.7V77.8C23.3 80.3 27 83.5 33.9 87.2Z" fill="#1B273F"/>
<path d="M18.6 75.6L18.7 75.7C17.8 71.7 17.5 69.7 18.5 64.1C18.4 64 18.4 64 18.3 64C17.5 68.8 17.5 71.3 18.6 75.6Z" fill="#1B273F"/>
<path d="M17.4 61.7001C17.4 61.7001 17.4 61.6 17.5 61.5C13.3 57.3 10.3 54.3 7.19998 49.3C7.19998 49.4 7.19998 49.4 7.09998 49.5C9.19998 52.6 11.3 55.8001 17.4 61.7001Z" fill="#1B273F"/>
<path d="M37.2999 2.59998C37.3999 2.59998 37.3999 2.59998 37.4999 2.49998C38.3999 2.19998 39.4999 1.69998 40.3999 1.49998C41.1999 1.29998 42.2999 1.19998 43.0999 1.09998C39.7999 1.39998 37.8999 2.29998 37.2999 2.59998Z" fill="#1B273F"/>
<path d="M27.6 17.2C27.6 17.2 27.7 17.2 27.8 17.1C28.7 12.7 29.9 7.30002 36 3.40002C35.9 3.40002 29.5 5.90003 27.6 17.2Z" fill="#1B273F"/>
<path d="M27.4 5.4C27.3 5.4 27.3 5.5 27.2 5.5C29.4 4.8 31.2 4.2 36 3.1C36.1 3.1 36.1 3 36.2 3C31.5 4.2 29.8 4.7 27.4 5.4Z" fill="#1B273F"/>
<path d="M13.5 25.9C13.5 26 13.5 26 13.5 26.1C16.6 24.2 19.7 22.3 26.2 19.1C26.2 19 26.2 19 26.2 18.9C22.6 20.7 18.2 22.9 13.5 25.9Z" fill="#1B273F"/>
<path d="M26.7 17.8C26.8 17.7 26.8 17.7 26.9 17.6C23.3 13.2 22 9.89998 26.1 6.09998C26.1 6.09998 23.2 7.79998 23.4 11.4C23.5 13.9 25.5 16.3 26.7 17.8Z" fill="#1B273F"/>
<path d="M7.79993 21.7C8.49993 20.7 9.49993 19.3 10.2999 18.3L10.3999 18.2C9.69993 19.1 8.79993 20.3 8.09993 21.2C7.99993 21.4 7.89993 21.5 7.79993 21.7Z" fill="#1B273F"/>
<path d="M11.1 17.1C11.2 17.1 11.2 17 11.3 16.9C11.2 17 11.2 17.1 11.1 17.1Z" fill="#1B273F"/>
<path d="M37.3999 90C32.9999 88.6 26.3999 86.6 19.8999 78H19.7999C23.4999 82.6 27.8999 87.4 37.3999 90Z" fill="#1B273F"/>
<path d="M37.5999 90.1C31.3999 88.4 29.9 88 24.7 85.3C24.7 85.3 28.8999 88 37.5999 90.1Z" fill="#1B273F"/>
<path d="M2.29993 33.7C3.09993 32 4.29993 30.3 11.2999 27.3C11.2999 27.2 11.2999 27.2 11.3999 27C6.29993 29.2 3.29993 30.9 2.39993 33.4C2.39993 33.5 2.29993 33.6 2.29993 33.7Z" fill="#1B273F"/>
<path d="M6.5 46.4C6.5 46.4 6.6 46.4 6.5 46.4C7.3 41.2 8 36.2 11.7 28.3C11.7 28.3 11.6 28.3 11.6 28.2C9.6 32.7 7.4 37.8 6.5 46.4Z" fill="#1B273F"/>
<path d="M11.8 26.2C11.9 26.1 11.9 26.1 12 26C10.4 23.4 9.30004 21.1 11 17.6C10.3 18.3 8.50004 21.2 11.8 26.2Z" fill="#1B273F"/>
<path d="M12.5 25.4C12.6 25.4 12.6 25.3 12.7 25.3C13.8 20.7 15.6 12.9 25.4 6.5C25.3 6.5 15.5 11.4 12.5 25.4Z" fill="#1B273F"/>
<path d="M17.9 75.5C14 70 8.69998 62.4 6.69998 50H6.59998C7.49998 54.8 9.39997 64.8 17.9 75.5Z" fill="#1B273F"/>
<path d="M22.6 84C22.7 84 22.7 84.1 22.8 84.1C20.3 81.6 19.7 80.5 19.2 77.6C19.1 77.5 19.1 77.5 19 77.4C19.5 80.3 20 81.5 22.6 84Z" fill="#1B273F"/>
<path d="M3.49993 61.9C5.59993 66.5 8.49993 70.2 17.8999 76.1C17.8999 76.1 17.8999 76 17.7999 75.9C17.1999 75.3 16.1999 74.9 15.5999 74.5C6.49993 68.6 4.39993 63.8 3.29993 61.5C3.39993 61.7 3.39993 61.8 3.49993 61.9Z" fill="#1B273F"/>
<path d="M0.999983 39.9C0.999983 41.7 0.899982 43.9 5.59998 47.7C5.59998 47.6 5.59998 47.5 5.59998 47.4C2.89998 45 0.699983 42.8 0.999983 39.6C0.999983 39.7 0.999983 39.8 0.999983 39.9Z" fill="#1B273F"/>
<path d="M2 57.2C1.7 55.3 1.4 53.1 5.7 49C5.7 48.9 5.7 48.8 5.6 48.7C3.6 50.7 1.1 53.2 1.9 56.9C1.9 57 2 57.1 2 57.2Z" fill="#1B273F"/>
<path d="M45.2999 91C44.6999 91 42.7999 90.9 39.2999 90.4C39.6999 90.5 42.9999 90.9 45.2999 91Z" fill="#1B273F"/>
<path d="M30.7 88.5C32.2 89 34 89.6 38.4 90.3C31.9 88.9 31.9 88.9 30.4 88.4C30.5 88.4 30.6 88.4 30.7 88.5Z" fill="#1B273F"/>
<path d="M43.3 90.9C42.2 90.8 40.5 90.7 39.2 90.4C39.1 90.4 39 90.4 38.9 90.4C39.5 90.6 40.4 90.8 42.9 91C43 90.9 43.2 90.9 43.3 90.9Z" fill="#1B273F"/>
<path d="M6.4 68.1C8.6 71.6 12.6 78 22 83.8C21.3 83.1 20.1 82.5 19.2 81.9C17.8 81 10.9 76.1 6 67.4C6.2 67.7 6.3 67.9 6.4 68.1Z" fill="#1B273F"/>
<path d="M26.7999 86.9C25.4999 86.2 24.7 85.9 23.9 85.1C23.8 85.1 23.7 85 23.7 85C24.6 85.8 25.1 86.1 26.6 86.8C26.6 86.8 26.6999 86.8 26.7999 86.9Z" fill="#1B273F"/>
<path d="M17.2 80.9C19 82.3 19.8 82.9 22.6 84.3C22.5 84.3 22.5 84.2 22.4 84.2C21.9 83.9 21.2 83.5 20.6 83.2C19.5 82.6 18.2 81.7 17 80.7C17 80.7 17.1 80.8 17.2 80.9Z" fill="#1B273F"/>
<path d="M35.9 2C32.2 2.9 30.3 3.5 27.2 5.3C28.4 4.8 29.4999 4 30.7999 3.6C32.8999 2.8 33.4999 2.6 36.2999 2C36.1999 2 36 2 35.9 2Z" fill="#1B273F"/>
<path d="M28 5.10007C31.7 3.60007 36.1 1.80007 42.6 1.20007H42.7C39.1 1.60007 34.9 2.10007 28 5.10007Z" fill="#1B273F"/>
<path d="M26.8 5.1C26.7 5.2 26.5 5.3 26.4 5.4C26.4 5.5 26.4 5.6 26.4 5.7C26.5 5.7 26.6 5.6 26.6 5.6C26.6 5.5 26.6 5.4 26.6 5.3C26.7 5.2 26.9 5.1 27 5C27 5 26.9 5.1 26.8 5.1Z" fill="#1B273F"/>
<path d="M13 15L11.9 16.3C12.1 16 12.1 16 13.3 14.8C13.1 14.9 13.1 14.9 13 15Z" fill="#1B273F"/>
<path d="M12.2999 15.9C15.0999 13.2 18.3999 10 25.0999 6.50002C25.0999 6.50002 25.1999 6.50002 25.1999 6.40002C21.6999 8.40002 17.2999 10.8 12.2999 15.9Z" fill="#1B273F"/>
<path d="M77.9999 15.4C78.6999 16.2 79.2 16.6 79.3 16.6C79.4 16.4 77.2999 14.2 76.9999 14.1C76.8999 14.2 77.2999 14.6 77.9999 15.4Z" fill="#1B273F"/>
<path d="M76.5 78C75.5 79 75.5 79.1 75.6 79.1C75.9 79.1 78.2 76.8 78 76.7C77.9 76.7 77.6 76.9 76.5 78Z" fill="#1B273F"/>
<path d="M60.0999 88.4C58.6999 88.9 58.7 88.9 58.7 88.9C59 88.9 61.6 87.9 61.9 87.7C61.8 87.8 61.7999 87.8 60.0999 88.4Z" fill="#1B273F"/>
<path d="M56.3999 2.5C58.0999 3 58.0999 3 58.0999 3C57.9999 2.8 55.2999 2.1 54.7999 2C54.7999 2 54.7999 2 55.2999 2.1C55.4999 2.2 55.8999 2.3 56.3999 2.5Z" fill="#1B273F"/>
<path d="M86.9 37C87.2 38.3 87.7 38.8 87.9 38.4C88.3 37.8 87.7 35.1 87 35C86.6 35.1 86.7 36.1 86.9 37Z" fill="#1B273F"/>
<path d="M67.3 82.8C66.5 83.5 66.5 83.7 66.6 83.7C67.2 83.8 69.4 82 69.1 81.7H69C68.7 81.7 68 82.2 67.3 82.8Z" fill="#1B273F"/>
<path d="M82.5999 52.7C82.4999 54 83.1999 54.6 83.7999 54C84.5999 53.3 84.7999 50.7 83.7999 50.6C83.0999 50.6 82.5999 51.5 82.5999 52.7Z" fill="#1B273F"/>
<path d="M74.9 24.2C75.5 25.7 76.7 26.1 77 25.4C77.3 24.7 76.3 22.8 75.2 22.7C74.6 22.7 74.5 23.3 74.9 24.2Z" fill="#1B273F"/>
<path d="M72.7 68C72.3 69.2 72.8 69.7 73.6 69.3C74.7 68.8 75.4 66.7 74.6 66.4C74.5 66.4 74.4 66.4 74.4 66.4C73.7 66.4 73.1 67.1 72.7 68Z" fill="#1B273F"/>
<path d="M57.5999 4.60002C58.6999 5.30002 59.2 5.30002 59.2 5.20002C59.2 4.90002 57.4 3.90002 56.8 3.90002C56.7 3.90002 56.6 3.90002 56.9 4.10002C57 4.20002 57.2999 4.40002 57.5999 4.60002Z" fill="#1B273F"/>
<path d="M49.5 90.6C49.2 90.7 48.8 90.7 48.5 90.8C48.7 90.8 50.7 90.5 51 90.3C50.9 90.3 50.9 90.3 49.5 90.6Z" fill="#1B273F"/>
<path d="M56 86.8C55.5 87.2 55.4 87.5 55.7 87.5C56.4 87.5 58 86.4 57.7 86.1C57.7 86.1 57.6 86.1 57.5 86.1C57.2 86.1 56.6 86.4 56 86.8Z" fill="#1B273F"/>
<path d="M58.8 39.7C58.9 41.5 60.8 41.9 61.7 41C62.5 40.2 62.2 38 60.4 37.9C59.3 37.9 58.7 38.6 58.8 39.7Z" fill="#1B273F"/>
<path d="M45.8 1.00002C45.9 1.00002 46 1.00002 46.1 1.00002C46.2 1.00002 46.3 1.00002 46.3 1.00002C46.3 1.00002 46 0.900024 45.6 0.900024C45.6 1.00002 45.7 1.00002 45.8 1.00002Z" fill="#1B273F"/>
<path d="M51.1 57.7C51.1 59.4 53 59.8 54 58.9C54.9 58.1 54.8 56.1 53.1 55.9H53C51.6 56 51.2 56.9 51.1 57.7Z" fill="#1B273F"/>
<path d="M50 22.8C50.2 24.3 52.1 24.5 52.8 23.7C53.4 23 53 21.3 51.4 21.2C50.4 21.2 49.9 21.9 50 22.8Z" fill="#1B273F"/>
<path d="M46.5999 89.4C46.4999 89.8 46.8 89.9 47.2 89.7C47.6 89.5 47.8 89 47.4 88.9C47.3 88.9 47.2999 88.9 47.2999 88.9C46.9999 88.9 46.6999 89.1 46.5999 89.4Z" fill="#1B273F"/>
<path d="M46 1.99998C46.1 2.19998 46.3 2.39998 46.5 2.39998C46.9 2.39998 46.9 2.09998 46.6 1.79998C46.5 1.69998 46.4 1.59998 46.2 1.59998C46 1.69998 46 1.99998 46 1.99998Z" fill="#1B273F"/>
<path d="M46.7 79.5C46.7 80.6 48.0999 80.9 48.7999 80.2C49.4999 79.5 49.3 78.3 48 78.3C47.1 78.3 46.7 78.9 46.7 79.5Z" fill="#1B273F"/>
<path d="M37.2 8.1C36.9 8.9 37.5 9.1 38.1 8.8C38.9 8.5 39.4 7.4 38.9 7.1C38.8 7.1 38.7 7 38.6 7C37.9 7.1 37.4 7.7 37.2 8.1Z" fill="#1B273F"/>
<path d="M23.9 40.3C23.8 42 25.5 42.5 26.4 41.6C27.3 40.8 27.4 38.5 25.6 38.4C24.8 38.5 23.9 39.1 23.9 40.3Z" fill="#1B273F"/>
<path d="M26.2999 18.5C25.7999 19.7 26.6999 20 27.5999 19.7C28.6999 19.2 29.1999 17.5 28.3999 17.2C28.2999 17.2 28.1999 17.1 28.0999 17.1C27.3999 17.1 26.5999 17.7 26.2999 18.5Z" fill="#1B273F"/>
<path d="M34.6999 87.8C35.4999 88.3 36.2999 88.5 36.2999 88.3C36.2999 88 34.7999 87.1 34.1999 87.1C33.9999 87.1 33.9999 87.2 34.1999 87.4C34.1999 87.5 34.4999 87.7 34.6999 87.8Z" fill="#1B273F"/>
<path d="M17.5 62.9C18 64.3 19.5 64.7 19.9 63.8C20.2 63 19.6 61.1 18.3 61.1C17.3 61.1 17.2 62 17.5 62.9Z" fill="#1B273F"/>
<path d="M36.4 2.90002C35.7 3.20002 35.4999 3.40002 35.5999 3.40002C35.8999 3.50002 38 2.60002 38 2.40002C37.7 2.50002 37 2.70002 36.4 2.90002Z" fill="#1B273F"/>
<path d="M18.4 76.8C19.2 77.8 20.2 78.2 20.3 77.7C20.4 77.1 19 75.4 18.1 75.4C17.7 75.4 17.6 75.9 18.4 76.8Z" fill="#1B273F"/>
<path d="M11.5 26.8001C11 28.0001 11.5 28.6001 12.2 28.3001C13.3 27.8001 14 25.5001 13.2 25.3001C13.1 25.3001 13.1 25.3001 13 25.3001C12.5 25.2001 11.9 25.9001 11.5 26.8001Z" fill="#1B273F"/>
<path d="M44 1C43.2 1 42.6 1.1 42.5 1.1C43.5 1.1 44.5 1 45.6 1C45.1 1 44.5 1 44 1Z" fill="#1B273F"/>
<path d="M38.8 90.3C39.6 90.5 40.4 90.6 40.5 90.6C40.5 90.6 37.6 90 37.4 90C37.4 90.1 38.3 90.3 38.8 90.3Z" fill="#1B273F"/>
<path d="M5.59998 48.3C5.69998 49.9 6.49998 50.4 6.89998 49.8C7.59998 49 7.29998 46.4 6.29998 46.3C5.79998 46.4 5.59998 47.3 5.59998 48.3Z" fill="#1B273F"/>
<path d="M26.2999 5.8C25.7999 6.1 25.2 6.4 25.2 6.5C25.3 6.6 28.1 5.2 28.2 5C27.9 5 26.9999 5.4 26.2999 5.8Z" fill="#1B273F"/>
<path d="M23.2 84.7C23.9 85.1 24.7 85.6 24.8 85.5C24.8 85.3 22.2 83.8 21.9 83.7C21.9 83.8 22.6 84.3 23.2 84.7Z" fill="#1B273F"/>
<path d="M11.2 17.1C10.9 17.5 10.2 18.3 10.2 18.4C10.3 18.4 12.4 15.9 12.4 15.8C12.3 15.8 11.7 16.5 11.2 17.1Z" fill="#1B273F"/>
<path d="M3.00002 34.6L2.90002 34.7C3.80002 29.6 4.40002 27.1 7.70002 21.6C7.80002 21.4 7.90002 21.3 8.00002 21.1C4.90002 26.5 4.00002 28.7 3.00002 34.6Z" fill="#1B273F"/>
<path d="M11.1 17.1C11.2 17 11.2 17 11.3 16.9C11.5 16.8 11.8 16.7 15.8 16.5C15.7 16.6 15.7 16.6 15.6 16.7C13.4 16.9 11.3 17 11.1 17.1Z" fill="#1B273F"/>
<path d="M2.59995 35.6C2.59995 35.7 2.59995 35.8 2.49995 35.9C2.09995 34.8 2.09995 34.6 2.29995 33.7C2.29995 33.6 2.39995 33.5 2.39995 33.4C2.19995 34.5 2.19995 34.6 2.59995 35.6Z" fill="#1B273F"/>
<path d="M3.50002 61.9C3.50002 61.8 3.40002 61.7 3.40002 61.6C3.20002 61 3.00002 60.3 2.90002 59.7C3.10002 60.4 3.20002 61.1 3.50002 61.9Z" fill="#1B273F"/>
<path d="M1 39.9C1 39.8 1 39.7 1 39.6C1.4 38 1.5 37.9 2.3 36.6C2.3 36.7 2.3 36.8 2.3 36.9C2.1 37.3 1.8 37.7 1.6 38.1C1.3 38.6 1.1 39.3 1 39.9Z" fill="#1B273F"/>
<path d="M2.40002 58.1C2.40002 58.2 2.40002 58.3 2.50002 58.3C2.30002 58 2.10002 57.5 2.00002 57.2C2.00002 57.1 1.90002 57 1.90002 56.9L2.40002 58.1C2.40002 58.1 2.30002 58.1 2.40002 58.1Z" fill="#1B273F"/>
<path d="M30.7 88.5C30.6 88.5 30.5 88.4 30.4 88.4C30 88.3 29.6 88.1 29.2 87.9C29.7 88.1 30.2 88.3 30.7 88.5Z" fill="#1B273F"/>
<path d="M45.2 91C45.3 91 45.4 91 45.5 91C44.6 91 44.3 91 43.3 90.9C43.2 90.9 43.1 90.9 43 90.9C43.9 91 44.1 91 45.2 91Z" fill="#1B273F"/>
<path d="M6.39998 68.1C6.29998 67.9 6.19998 67.7 6.09998 67.5C4.29998 63.8 4.09998 63.5 3.09998 60.2V60.3C3.49998 61.2 3.79998 62.4 4.09998 63.3C4.69998 64.8 5.69998 66.7 6.39998 68.1Z" fill="#1B273F"/>
<path d="M28.2 87.4C28.3 87.4 28.3 87.5 28.4 87.5C27.9 87.3 27.3 87 26.8 86.8C26.7 86.8 26.6 86.7 26.5 86.7C27 86.9 27.6 87.2 28.2 87.4C28.1 87.4 28.1 87.4 28.2 87.4Z" fill="#1B273F"/>
<path d="M17.2 80.9C17.1 80.8 17 80.8 16.9 80.7C15.3 79.3 14.6 78.6 13.6 76.9C13.7 77 13.7 77 13.8 77.1C14.1 77.4 14.4 78 14.6 78.3C14.7 78.3 15.3 79.3 17.2 80.9Z" fill="#1B273F"/>
<path d="M35.9 2C36 2 36.2 2 36.3 2C39.1 1.4 40.4 1.2 44 1C40.2 1.2 37.3 1.8 35.9 2Z" fill="#1B273F"/>
<path d="M26.8 5.09998C26.9 5.09998 27 4.99998 27.1 4.99998C27.6 4.79998 28.3 4.49998 31 4.09998C30.9 4.09998 30.8 4.19998 30.8 4.19998C30.5 4.29998 30.2 4.29998 29.9 4.29998C29.7 4.39998 27.6 4.69998 26.8 5.09998Z" fill="#1B273F"/>
<path d="M13 15C13.1 14.9 13.2 14.8 13.3 14.7C15.5 12.6 20 8.30002 30.3 4.40002C29.6 4.80002 28.6 5.10002 27.8 5.40002C25.8 6.20002 22.6 7.80002 20.9 8.80002C16.7 11.5 14.8 13.2 13 15Z" fill="#1B273F"/>
<path d="M32.4 3.59998H32.3C35.6 2.19998 37.8 1.49998 43.5 1.09998C43.6 1.09998 43.6001 1.09998 43.7001 1.09998C39.8001 1.39998 37 1.59998 32.4 3.59998Z" fill="#1B273F"/>
<path d="M31.6 4.09998C31.8 3.99998 32 3.89998 39.3 3.59998C39.3 3.59998 39.3 3.69998 39.2 3.69998C36.7 3.89998 34.1 3.99998 31.6 4.09998Z" fill="#1B273F"/>
<path d="M43.9 91C44 91 44 91 43.9 91C40 90.7 36.2 90.4 30.5 88.4H30.4C34.3 89.6 38 90.7 43.9 91Z" fill="#1B273F"/>
<path d="M27.4 87.1C27.3 87.1 20.3 84.2 14.4 77.5C15.3 78 16 79.1 16.7 79.8C16.9 80 20.9 84.1 27.4 87.1Z" fill="#1B273F"/>
<path d="M28.9 87.7C28.6 87.6 28.5 87.5 28.4 87.4C28.3 87.3 28.3 87.1 28.3 86.9C28.3 86.6 28.8 86.4 29.1 86.2C29.2 86.2 29.2 86.3 29.3 86.3C28.8 86.6 28.6 86.8 28.5 87.1C28.4 87.3 28.6 87.5 28.9 87.7Z" fill="#1B273F"/>
<path d="M2.29999 57.2C1.39999 52.8 0.399989 47.2 2.29999 37.9C1.39999 43.3 0.499989 48.5 2.29999 57.2Z" fill="#1B273F"/>
<path d="M3.40002 34.7C3.40002 34.7 5.50002 27.4 15.2 17.7V17.8C10.5 22.7 6.70002 27 3.40002 34.7Z" fill="#1B273F"/>
<path d="M16.2 38.2C16.2 38.3 16.2 38.3 16.2 38.4C14.1 38.2 6.79995 37.5 3.19995 36.4C3.19995 36.3 3.19995 36.2 3.29995 36.1C5.59995 36.8 8.39995 37.3 16.2 38.2Z" fill="#1B273F"/>
<path d="M28.3 85.5C25.6 84.3 20 81.6 14.5 77.3C14.5 77.2 14.4 77.2 14.4 77.1C17 79 20.9 82 28.3 85.5Z" fill="#1B273F"/>
<path d="M28.1 76.6C28.1 76.6 28.2 76.7 28.2 76.8C22.6 76.8 13.9 76.5 13.9 76.5C13.8 76.4 13.8 76.4 13.7 76.3C15.2 76.3 17.7 76.4 28.1 76.6Z" fill="#1B273F"/>
<path d="M12.3 75C9.70005 72 6.10005 67.8 3.30005 60.4V60.3C4.90005 64.2 6.90005 69.1 12.3 75Z" fill="#1B273F"/>
<path d="M13.3 75.8C13.3 75.8 9.20002 70.7 21.4 60.7C21.4 60.8 21.5 60.8 21.5 60.9C17 64.9 11.4 69.9 13.3 75.8Z" fill="#1B273F"/>
<path d="M2.70003 58.1C2.70003 58 0.500028 51 16.2 39.3C16.2 39.4 16.2 39.4 16.3 39.5C10.6 44 2.90003 50.1 2.70003 58.1Z" fill="#1B273F"/>
<path d="M21.1 59.8C21.1 59.9 21.1 59.9 21.1 60C14.8 59.9 5.00002 59.3 3.00002 59C3.00002 58.9 2.90002 58.8 2.90002 58.7C4.60002 59 7.40003 59.2 21.1 59.8C21.1 59.8 21.1 59.7 21.1 59.8Z" fill="#1B273F"/>
<path d="M80.5 74.4C81.1 73.4 81.6 72.5 81 70.9C81.1 70.8 81.1 70.7 81.2 70.7C81.5 71.8 81.8 72.7 80.7 74.2C80.6 74.2 80.5 74.3 80.5 74.4Z" fill="#1B273F"/>
<path d="M44.4 91C35.5 90.7 31.8 88 30 86.6C30 86.6 30.1 86.6 30.1 86.7C30.6 87 31.1 87.5 31.6 87.8C32.5 88.5 34 89.1 35.1 89.5C38.8 90.5 39.9 90.7 44.4 91Z" fill="#1B273F"/>
<path d="M45.7 91C46.4 91 48.1999 90.9 52.0999 90.3C51.8999 90.3 48.4 90.9 45.7 91Z" fill="#1B273F"/>
<path d="M17.0001 36.9C16.9001 36.9 16.9001 37 16.8001 37C15.4001 32.4 13.3001 25.5 15.8001 17.7C15.9001 17.7 15.9001 17.6 16.0001 17.6C14.5001 23.3 14.2001 28.2 17.0001 36.9C17.0001 36.9 17.1001 36.9 17.0001 36.9Z" fill="#1B273F"/>
<path d="M17.4 15.4C17.4 15.4 17.3 15.4 17.4 15.4C19.9 12.3 23.1 8.40005 29.9 4.80005H30C26.4 6.80005 22.3 9.10005 17.4 15.4Z" fill="#1B273F"/>
<path d="M29.6 14.5L29.5 14.6C28.2 12.3 25.9 8.20002 30.7 4.50002C30.8 4.50002 30.8 4.40002 30.9 4.40002C29 5.90002 26.1 8.40002 29.6 14.5Z" fill="#1B273F"/>
<path d="M17.1 16.6C17.1 16.5 17.2 16.5 17.2 16.4C18.9 16.2 20.5 15.9 28.9 15.3C28.9 15.4 28.8 15.4 28.8 15.5C22.4 16.1 20.3 16.3 17.1 16.6Z" fill="#1B273F"/>
<path d="M29.2 85.5C29.2 85.5 26.5 83.5 28.8 77.4C28.9 77.5 28.9 77.5 29 77.6C27.9 80.6 27.4 82.6 29.2 85.5Z" fill="#1B273F"/>
<path d="M45.0999 91C45.1999 91 45.1999 91 45.0999 91C41.9999 90.7 38.3999 90.2 30.7999 86.7C30.7999 86.7 30.8 86.6 30.7 86.6C35.3 88.7 39.8999 90.6 45.0999 91Z" fill="#1B273F"/>
<path d="M43.2 90.4C43.2 90.4 43.3 90.4 43.2 90.4C36.8 88.7 33.3 87.5 30.5 86.5L30.4 86.4C33.2 87.3 36.6 88.5 43.2 90.4Z" fill="#1B273F"/>
<path d="M21.9 58.3H21.8C20.7 55.3 18.5 49.2 17.5 40.3C17.6 40.3 17.7 40.3 17.7 40.2C18.3 44.4 19.1 50.1 21.9 58.3C22 58.3 22 58.3 21.9 58.3Z" fill="#1B273F"/>
<path d="M18.2 36.9C18.1 36.9 18.1 36.8 18 36.8C20.9 29.6 23.3 24.7 29 16.6H29.1C24.5 23.6 21.9 27.7 18.2 36.9Z" fill="#1B273F"/>
<path d="M42.7 42.3L42.6 42.4C32 26.5 30.6 19.2 30 16.5C30.1 16.5 30.2 16.4 30.2 16.4C31.7 22.8 33.7 27.9 42.7 42.3Z" fill="#1B273F"/>
<path d="M41.8 43.5C41.8 43.6 41.8 43.7 41.8 43.8C34 42.3 26.4 40.9 18.8 39C18.8 38.9 18.8 38.8 18.9 38.7C22.8 39.6 28.2 40.9 41.8 43.5C41.8 43.4 41.8 43.4 41.8 43.5Z" fill="#1B273F"/>
<path d="M30.9 14.2H30.8C32.5 11.7 35.1 7.80005 39.1 4.30005C39.1 4.30005 39.1001 4.30005 39.2001 4.30005C37.0001 6.30005 34.6 8.50005 30.9 14.2Z" fill="#1B273F"/>
<path d="M31.2 15.2C31.2 15.1 31.2 15.1 31.2 15C37 13.7 42.8 12.5 48.5 11.2C48.5 11.3 48.4999 11.3 48.5999 11.4C42.7999 12.7 37 13.8 31.2 15.2Z" fill="#1B273F"/>
<path d="M23.6 59.1C23.6 59 23.5 59 23.5 58.9C25.7 56.9 29.7 53.1 42 44.8C42 44.9 42 45 42 45C27.5 55.5 27.5 55.5 23.6 59.1Z" fill="#1B273F"/>
<path d="M43.2 90.2C41.8 89.4 37.4 86.9 30.2 77.9C30.2 77.9 30.2999 77.9 30.2999 77.8C32.3999 80.5 38.1 87.5 43.2 90.2Z" fill="#1B273F"/>
<path d="M28.6 75.4C26.4 71.5 25 68.7 22.8 61.5C22.9 61.5 22.9 61.5 23 61.5C24.7 66.6 25.7 69.6 28.6 75.4C28.7 75.4 28.7 75.4 28.6 75.4Z" fill="#1B273F"/>
<path d="M44.9 61.9V62C43.2 61.9 38.1 61.6 24 60.2C24 60 24 60 24 59.9C29.2 60.5 33.8 60.9 44.9 61.9Z" fill="#1B273F"/>
<path d="M44.1 81.7C44 81.7 44 81.7 44.1 81.7C43 81.5 39.7 80.4 30.6 77.3C30.6 77.2 30.6 77.2 30.6 77.1C32.2 77.6 32.2 77.6 44.1 81.7C44.1 81.6 44.1 81.6 44.1 81.7Z" fill="#1B273F"/>
<path d="M45.3 81C45.2 81 45.2 81 45.1 81C45.2 78.1 45.3 76 46.3 63.7C46.4 63.7 46.4 63.7 46.6 63.7C45.9 71.5 45.5 76.2 45.3 81Z" fill="#1B273F"/>
<path d="M30 76L29.9 75.9C32 73.2 35 70 45.1 63C45.1 63.1 45.2 63.1 45.2 63.2C37.5 68.8 33.6 71.7 30 76Z" fill="#1B273F"/>
<path d="M48.7 10.4C48.7 10.4 48.7 10.5 48.6 10.5C43 7.3 41.2 5.9 39.9 4C39.9 4 40 4 40 4C41.4 6 43.2 7.2 48.7 10.4Z" fill="#1B273F"/>
<path d="M39.4999 3.4C39.4999 3.4 39.3999 3.4 39.3999 3.5C38.7999 3 37.1999 1.8 41.4999 1.2C42.4999 1.1 43.5999 1 44.1999 1C44.2999 1 44.3999 1 44.4999 1C39.6999 1.2 37.8999 1.9 39.1999 3.2C39.2999 3.3 39.4999 3.4 39.4999 3.4C39.4999 3.4 39.5999 3.4 39.4999 3.4Z" fill="#1B273F"/>
<path d="M40.5 3.5C40.5 3.5 40.5 3.4 40.5 3.5C40.9 3.3 41.5 3.1 41.9 3C45.4 1.9 46.4 1.5 46.5 1.2C46.4 1.1 46.2 1 46 1C46.4 1 46.4 1.1 46.5 1.2C46.3 1.6 45.7 1.9 40.5 3.5Z" fill="#1B273F"/>
<path d="M45.5 91C45.2 91 44.6 90.9 44.6 90.9C44.3 90.8 44 90.7 43.8 90.6C44 90.7 44.1 90.8 44.3 90.8C44.6 90.9 45.1 91 45.5 91Z" fill="#1B273F"/>
<path d="M72.8 10.2C72.7 10.2 72.7 10.1 72.6 10C72.7 10.1 72.8 10.2 72.8 10.2Z" fill="#1B273F"/>
<path d="M43.5 90.3C43.5 90.3 41.4 89.4 44.6 83C44.7 83 44.7 83 44.8 83.1C43.6 85.4 42 88.6 43.5 90.3Z" fill="#1B273F"/>
<path d="M45.7 91C45.7 91 45.8 91 45.9 91C45.7 90.9 45.4 90.9 44.1 90.7C44.1 90.7 44.1 90.7 44 90.7C45.7 91 45.9 91 46 91.1C45.9 91 45.8 91 45.7 91Z" fill="#1B273F"/>
<path d="M50 10.1C49.9 10.1 49.9 10.1 49.8 10C50.3 7.1 51.1 1.7 46.5 1C48.8 1.3 51.3 3 50 10.1Z" fill="#1B273F"/>
<path d="M46.2 91C48.2 90.8 49.9 90.2 52 89.2C49.7 90.2 48.5 90.7 46.2 91Z" fill="#1B273F"/>
<path d="M46.2 91C48.9 90.5 49.8 89 45.7 83C45.8 83 45.7999 83 45.7999 82.9C48.8999 87.5 49.9 90.3 46.2 91Z" fill="#1B273F"/>
<path d="M46.2 81.7C46.2 81.7 46.2 81.6 46.1 81.6C48.2 80.6 48.2 80.6 57 76.6V76.7C53.4 78.4 49.8 80 46.2 81.7Z" fill="#1B273F"/>
<path d="M53.1 88.4C53.1 88.4 53 88.4 53 88.5C52.6 87.2 51.8 85.9 46 82.7C46 82.6 46.1 82.6 46.1 82.5C49.7 84.5 52.9 86.5 53.1 88.4C53.2 88.4 53.2 88.4 53.1 88.4Z" fill="#1B273F"/>
<path d="M44.1 42.1C44 42.1 43.9 42.1 43.8 42C47.7 24.6 49 18.7 49.5 12H49.6C49.2 19.1 48.2 23.5 44.1 42.1Z" fill="#1B273F"/>
<path d="M86 65.8C85.1 67.1 84.4 68.1 81.6 70C81.6 69.9 81.6 69.8 81.7 69.8C82.1 69.4 82.7 69.1 83.1 68.8C83.4 68.6 85.1 67.3 86.1 65.6C86.1 65.7 86 65.7 86 65.8Z" fill="#1B273F"/>
<path d="M44.9 42.6C44.9 42.6 44.8 42.5 44.7 42.4C57.2 28.5 57.2 28.5 60.7 23.1C60.7 23.1 60.8 23.2 60.9 23.2C57.7 28.6 54.4 32.6 44.9 42.6Z" fill="#1B273F"/>
<path d="M57.7999 75C57.6999 75 57.7 75.1 57.7 75.1C55.6 72.1 53.9 69.6 47.7 63.3C47.8 63.2 47.8 63.2 47.9 63.1C52.1 67.6 54.8999 70.6 57.7999 75Z" fill="#1B273F"/>
<path d="M70.7 64.3V64.4C63.2 63.9 55.7 63 48.3 62.3C48.3 62.2 48.3 62.1 48.3 62C57.5 62.9 63.8 63.5 70.7 64.3Z" fill="#1B273F"/>
<path d="M46.4 60.5C46.3 60.5 46.2 60.5 46.2 60.5C44.9 53.4 43.8 46.5 43.7 45.7C43.8 45.7 43.9 45.7 44 45.7C44.8 50.6 45.6 55.6 46.4 60.5Z" fill="#1B273F"/>
<path d="M71.9 45.5C71.9 45.5 71.9 45.6 71.9 45.7C63.1 45.4 54.2 44.7 45.4 44.2C45.4 44 45.4 44 45.4 43.9C57.8 44.5 64 44.9 71.9 45.5Z" fill="#1B273F"/>
<path d="M48.1 61.4C48.1 61.3 48 61.2 48 61.2C58.7 55.3 65.4 51.5 72 46.5C72 46.6 72.1 46.7 72.1 46.8C66.1 51.2 61.2 54.3 48.1 61.4Z" fill="#1B273F"/>
<path d="M60.4 21C60.3 21.1 60.3 21.1 60.3 21.1C57 18 53.7 15 50.5 11.9C50.6 11.9 50.6 11.8 50.6 11.8C53.9 14.9 57.2 17.9 60.4 21C60.5 21 60.5 21 60.4 21Z" fill="#1B273F"/>
<path d="M50.3 10.2C50.2 10.2 50.2 10.1 50.1 10.1C51.7 7.00005 52.8 4.40005 50.7 2.30005C51.1 2.50005 52.1 3.60005 52 5.10005C51.9 6.90005 51.4 8.20005 50.3 10.2Z" fill="#1B273F"/>
<path d="M50.8 11V10.9C60.1 9.00002 60.1001 9.00002 62.2001 8.40002L62.3 8.50002C61.4 8.80002 59.1 9.60002 50.8 11Z" fill="#1B273F"/>
<path d="M76.6 18H76.5C71.7 11.3 67.1 6.79998 57.8 3.09998C65.1 5.99998 70.6 9.39997 76.6 18Z" fill="#1B273F"/>
<path d="M77.5 18.6C77.4 18.5 77.4 18.5 77.3 18.4C77.1 18 77.2 17.4 77.2 16.9C77.1 15.6 76.4 13.6 73.5 10.8C74.6 11.7 77.3 14.2 77.5 18.6Z" fill="#1B273F"/>
<path d="M62.7 7.80002C62.6 7.80002 62.6 7.70002 62.5 7.70002C62.2 7.40002 62.1 6.90002 61.9 6.50002C61 4.80002 58.3 3.50002 57.1 2.90002C58.1 3.20002 59.9 4.30002 60.2 4.60002C61.8 6.00002 61.9 6.10002 62.7 7.80002Z" fill="#1B273F"/>
<path d="M61.5999 7.50002C61.5999 7.60002 61.5999 7.60002 61.5999 7.50002C57.4999 5.20002 55.3 4.00002 51.2 2.40002C55 3.90002 57.3999 5.10002 61.5999 7.50002Z" fill="#1B273F"/>
<path d="M72.3 63C72.2 63 72.2 63 72.1 63C72.9 58.3 73.4 54.9 73.2 47.6C73.3 47.6 73.3 47.6 73.4 47.6C73.5 52.4 73.6 56.2 72.3 63Z" fill="#1B273F"/>
<path d="M55.6 2.4C55.7 2.4 55.7 2.4 55.8 2.5C54.2 2.2 49.9 1.3 46.2 1H46.1C49.8 1.3 54.1 2.1 55.6 2.4C55.5 2.4 55.5 2.4 55.6 2.4Z" fill="#1B273F"/>
<path d="M49.4 1.7C48.6 1.5 47.4 1.2 46.6 1C47.4 1.2 48.5 1.5 49.4 1.7Z" fill="#1B273F"/>
<path d="M55.9 2.5C56 2.5 56 2.5 56.1 2.6C55.1 2.5 53.9 2.4 50.7 2.1C50.7 2.1 50.6 2.1 50.6 2C51.9 2.1 54.1 2.3 55.9 2.5Z" fill="#1B273F"/>
<path d="M76.2 18.2C73.3 15.8 69.7 12.7 64 9.1V9C66.8 10.8 71.4 13.8 76.2 18.2Z" fill="#1B273F"/>
<path d="M62.2 21.1C62.1 21 62.1 21 62 21C63.2 17.9 64.8 13.6 63.1 9.09998C63.1 9.09998 65.7 12.6 62.2 21.1Z" fill="#1B273F"/>
<path d="M74.6 45.6C74.6 45.5 74.6 45.4 74.6 45.3C79.1 44.4 80.1 44.2 83.3 43.4C83.3 43.5 83.3 43.6 83.3 43.7C80.1 44.5 79.1 44.7 74.6 45.6Z" fill="#1B273F"/>
<path d="M72.8 44C72.8 44 72.7 44 72.7 44.1C70 37.4 68.2 33 62.4 23.7C62.5 23.7 62.5 23.6 62.6 23.6C66.1 29.3 69.6 35.2 72.8 44Z" fill="#1B273F"/>
<path d="M62.9001 22.1C62.9001 22 62.9 22 62.8 21.9C74.5 19.9 74.5 19.9 76.7 19.3C76.8 19.4 76.8001 19.5 76.9001 19.5C74.4001 20.2 71.3001 20.9 62.9001 22.1Z" fill="#1B273F"/>
<path d="M74.1 44.3C74 44.2 74 44.2 73.9 44.1C77.7 35.3 79.5 28.6 77.6 20.4C77.7 20.5 81.6 27.4 74.1 44.3Z" fill="#1B273F"/>
<path d="M53.8 88.2C55.4 86.4 57.6 84 58.1 77.3C58.2 77.3 58.2 77.3 58.3 77.2C58 80.3 57.4 84.9 53.8 88.2Z" fill="#1B273F"/>
<path d="M59.5 75.2C59.5 75.2 59.5 75.1 59.4 75.1C66.8 69.1 67.1 68.8 70.6 65.6C70.6 65.6 70.6 65.7 70.7 65.7C67.9 68.3 66.1 70 59.5 75.2Z" fill="#1B273F"/>
<path d="M70.5 81.4C70.4 81.4 70.4001 81.5 70.3001 81.5C69.4001 80.5 68 79 59.3 76.4C59.4 76.3 59.4001 76.3 59.4001 76.2C62.7001 77.3 68.9 79.2 70.5 81.4Z" fill="#1B273F"/>
<path d="M52.9 90.1C52.8 90.1 52.8 90.1 52.7 90.1C52.9 90 53.1999 89.9 53.2999 89.7C53.3999 89.3 53.3999 89.3 53.0999 88.9C53.1999 88.9 53.1999 88.8 53.2999 88.8C53.3999 89 53.5999 89.2 53.5999 89.4C53.4999 89.8 53.5 89.8 52.9 90.1Z" fill="#1B273F"/>
<path d="M53.9 88.5C54.4 88.1 55.2 88 55.8 87.8C62.3 85.5 65.8 84 69.6 82.2C69.6 82.2 65.5 84.6 53.9 88.5Z" fill="#1B273F"/>
<path d="M71.8 80.7C75.1 77.6 76.5 76.3 79.8 71.8C77.2 75.3 76 77 71.8 80.7Z" fill="#1B273F"/>
<path d="M71.2 80.9L71.1 81C73.7 76.7 74.6 73 72.3 65.9C72.4 65.8 72.4 65.8 72.5 65.7C74.2 71.5 74.6 75.6 71.2 80.9Z" fill="#1B273F"/>
<path d="M70.8 8.70002L71.9 9.50002C71.4 9.10002 70.9 8.80002 70.4 8.40002C70.5 8.50002 70.7 8.60002 70.8 8.70002Z" fill="#1B273F"/>
<path d="M71.8 9.50002L71.9 9.60002C67.4 6.70002 64.4 5.20002 57.7 3.00002C57.7 3.00002 57.6 3.00002 57.5 2.90002C63.8 4.90002 66.8 6.30002 71.8 9.50002Z" fill="#1B273F"/>
<path d="M86.9 31.9V32C84.8 28.3 83.4 25.8 78.5 20.5V20.4C81.9 24.2 84 26.5 86.9 31.9C86.9 31.9 86.9 31.8 86.9 31.9Z" fill="#1B273F"/>
<path d="M84.2 41.5H84.1C83.6 36.1 82.9 29.4 78.2 20.7H78.3C80.5 25 83.5 30.8 84.2 41.5Z" fill="#1B273F"/>
<path d="M73 63.3C73 63.3 72.9 63.2 72.9 63.1C77.2 57.5 80.8 52.6 83.6 44.6C83.6 44.7 83.7 44.7 83.7 44.8C82.1 49.3 80.2 54.3 73 63.3Z" fill="#1B273F"/>
<path d="M81.8 69C84 65.2 85.1 63.3 86.6 59.3C85.2 63 84.3 65.1 81.8 69Z" fill="#1B273F"/>
<path d="M80.6 69.9C80.6 70 80.5 70 80.5 70.1C78.8 68.4 77.6 67.4 72.8 65.2C72.9 65.1 72.9 65.1 72.9 64.9C77.1 66.8 78.8 67.9 80.6 69.9Z" fill="#1B273F"/>
<path d="M73.1 64.3C73.1 64.2 73.1 64.1 73.1 64C79.1 61.9 82.9 60.4 86.6 58C86.6 58.1 86.6 58.1 86.6 58.2C84.2 59.8 81.7 61.3 73.1 64.3Z" fill="#1B273F"/>
<path d="M84.9 42.3C84.9 42.2 84.8 42.2 84.8 42.1C86.4 38.8 86.9 37.7 87.5 34.2C87.4 34.2 88 36.2 84.9 42.3Z" fill="#1B273F"/>
<path d="M87.3 56.2L87.2 56.3C87 53 86.7 49.9 84.7 44.8C84.8 44.7 84.8 44.7 84.8 44.6C86 48.1 87.2 51.4 87.3 56.2Z" fill="#1B273F"/>
<path d="M54 89.9C58 88.7 62.4 87.3 69.2 82.7C65.9 84.9 61.5 87.9 54 89.9Z" fill="#1B273F"/>
<path d="M74.8 80.2C74.1 80.7 73.6 81 71 81.7C71.1 81.6 71.1 81.6 71.2 81.5C71.5 81.4 72 81.3 72.3 81.2C74 80.7 74.8 80.2 75 80C75 80.1 74.9 80.1 74.8 80.2Z" fill="#1B273F"/>
<path d="M62.9 87.5C66 86.1 68.1 85 70.1 82.3C70.2 82.3 70.2 82.2 70.3 82.2C69.1 83.8 67.9 85.3 63.2 87.4C63.1 87.4 63 87.5 62.9 87.5Z" fill="#1B273F"/>
<path d="M74.8 11.8L74 11.2L73.9 11.1L74.5 11.6C74.6 11.7 74.7 11.7 74.8 11.8Z" fill="#1B273F"/>
<path d="M87.2 31.7C86.4 31.1 86.4 29.4 86.1 28.5C85.2 25.7 82.4 18.6 74.2 11.4C79.1 15.8 84.1 21.1 87.2 31.7Z" fill="#1B273F"/>
<path d="M86.9 28.2C87.6 30.4 87.6 30.6 87.7 32.6C87.7 32.5 87.6 32.4 87.6 32.4C87.5 31.9 87.6 31.2 87.5 30.7C87.5 29.8 87.1 28.8 86.8 28C86.8 28 86.9 28.1 86.9 28.2Z" fill="#1B273F"/>
<path d="M53 1.6C54 1.8 55.3999 2 56.2999 2.5C55.8999 2.4 55.4 2.1 55 2C54.5 1.9 53.9 1.7 52.7 1.5C52.8 1.6 52.9 1.6 53 1.6Z" fill="#1B273F"/>
<path d="M58.4 2.89998C58 2.79998 57.7 2.79998 56.7 2.69998C56.6 2.69998 56.5 2.59998 56.4 2.59998C57.4 2.69998 57.7 2.69998 58.1 2.79998C58.2 2.79998 58.3 2.79998 58.4 2.89998Z" fill="#1B273F"/>
<path d="M87.7 61.9C88 60.6 88.1 59.9 87.5 58.4C87.5 58.3 87.6 58.2 87.6 58.1C88 59.5 88.3 60.2 87.8 61.6C87.8 61.7 87.7 61.8 87.7 61.9Z" fill="#1B273F"/>
<path d="M49.7 90.8C51 90.7 51.9 90.5 52.4 90.3C52.5 90.3 52.6 90.3 52.7 90.2C52.3 90.4 51.8999 90.5 50.0999 90.7C49.8999 90.8 49.8 90.8 49.7 90.8Z" fill="#1B273F"/>
<path d="M59.7 88.7C58.1 89.2 56.7 89.5 52.9 90.2C55.2 89.7 57.6 89.4 59.9 88.7C59.9 88.7 59.8 88.7 59.7 88.7Z" fill="#1B273F"/>
<path d="M87.7 56C89.1 48.2 89.6 43.9 87.9 35C89.3 41.9 89.6 46.9 87.7 56Z" fill="#1B273F"/>
<path d="M89.4 35.7C88.9 34.6 88.9 34.6 88.1 33.9C88.1 33.8 88.1 33.7 88 33.6C89 34.7 89.1 34.7 89.3 35.4C89.3 35.5 89.4 35.6 89.4 35.7Z" fill="#1B273F"/>
<path d="M90.6 47.3C90.2 51.3 89.9 52.4 87.9 56.6C87.9 56.5 87.9 56.5 87.9 56.4C88.1 55.7 88.7 54.8 89 54.1C89 54.1 90.5 51 90.6 46.9C90.6 47 90.6 47.2 90.6 47.3Z" fill="#1B273F"/>
<path d="M2.89997 58.8C2.99997 59.3 3.29997 60.4 3.19997 60.5C2.89997 60.4 1.99997 57.2 2.19997 57.1C2.39997 57.1 2.59997 57.8 2.89997 58.8Z" fill="#1B273F"/>
<path d="M29.2 87.8C29.7 88 30.1 88.1 30.6 88.4C30.4 88.4 27.6 87.3 27.4 87.1C27.4 87.1 27.4 87.1 29.2 87.8Z" fill="#1B273F"/>
<path d="M3.20001 36.1C3.20001 36.2 3.20001 36.2 3.20001 36.1C2.90001 37.7 2.50001 38 2.30001 37.8C2.00001 37.2 2.70001 34.4 3.20001 34.4C3.30001 34.4 3.60001 34.6 3.20001 36.1C3.30001 36.1 3.30001 36.1 3.20001 36.1Z" fill="#1B273F"/>
<path d="M13.8 76.3C14.6 77.2 14.7 77.5 14.6 77.5C14.2 77.5 12.1 75.2 12.3 75C12.5 75 13.1 75.5 13.8 76.3Z" fill="#1B273F"/>
<path d="M45 1C44.3 1 43.9 1 43.2 1.1C43.2 1.1 44.0999 1 45.5999 1C45.3999 1 45.2 1 45 1Z" fill="#1B273F"/>
<path d="M31.7 4.1C30.6 4.6 30 4.8 29.9 4.8C29.9 4.6 32.3 3.6 32.8 3.5C32.8 3.5 32.6 3.6 31.7 4.1Z" fill="#1B273F"/>
<path d="M17.1 16.6C16.1 17.9 15.3 18.1 15.2 17.7C15.1 17.1 16.6 15.3 17.4 15.3C17.8 15.4 17.5 16 17.1 16.6Z" fill="#1B273F"/>
<path d="M30.1 86.1C31 86.7 30.9 86.8 30.8 86.8C30.3 86.9 28 85.5 28.2 85.2H28.3C28.6 85.2 29.3 85.6 30.1 86.1Z" fill="#1B273F"/>
<path d="M18.8 38.5C18.6 40.3 17.1 40.7 16.5 39.8C15.8 38.9 16.3 36.7 17.7 36.7C18.4 36.7 19 37.3 18.8 38.5Z" fill="#1B273F"/>
<path d="M23.9 59.9C24.2 61.5 22.8 61.9 21.9 61.2C20.8 60.4 20.8 58.3 22.1 58.2C22.2 58.2 22.2 58.2 22.2 58.2C23.3 58.3 23.8 59.2 23.9 59.9Z" fill="#1B273F"/>
<path d="M30.4 76.8C30.8 77.8 30.1 78.2 29.3 77.9C28.3 77.5 27.5 75.9 28.3 75.6C28.5 75.5 28.6 75.5 28.7 75.5C29.6 75.5 30.2 76.2 30.4 76.8Z" fill="#1B273F"/>
<path d="M31.0001 15.5C30.4001 16.7 29.0001 16.9 28.7001 16.2C28.5001 15.6 29.3001 14.1 30.5001 14.1C31.2001 14.1 31.5001 14.7 31.0001 15.5Z" fill="#1B273F"/>
<path d="M40.3 3.69998C39.6 4.39998 38.9 4.39998 38.9 4.09998C38.9 3.79998 39.8 3.09998 40.4 3.09998C40.8 3.09998 40.6 3.39998 40.3 3.69998Z" fill="#1B273F"/>
<path d="M44 90.5C44.3 90.7 44.2999 90.7 44.2999 90.7C44.1999 90.8 43.2 90.4 43.2 90.2C43.2 90.2 43.1999 90.2 43.2999 90.2C43.4999 90.2 43.9 90.5 44 90.5Z" fill="#1B273F"/>
<path d="M45.3999 43.9C45.3999 45.8 43.1999 46.2 42.1999 45.2C41.1999 44.2 41.5999 42.1 43.4999 42C44.4999 42.1 45.3999 42.7 45.3999 43.9Z" fill="#1B273F"/>
<path d="M46.2 82.1C46.1 83.1 44.8 83.3 44.3 82.7C43.8 82.2 43.9 81 45.1 81C45.7 81 46.3 81.4 46.2 82.1Z" fill="#1B273F"/>
<path d="M48.3001 62.1C48.2001 63.8 46.2001 64.1 45.3001 63.2C44.5001 62.3 44.9001 60.5 46.6001 60.5C47.8001 60.5 48.3001 61.3 48.3001 62.1Z" fill="#1B273F"/>
<path d="M50.8 11.2C50.9 12.3 49.7 12.4 49 11.9C48.3 11.3 48.4 10.1 49.4 10H49.5C50.2 10 50.7 10.5 50.8 11.2Z" fill="#1B273F"/>
<path d="M59.5 76.1C59 77.4 57.5 77.7 57.1 76.9C56.8 76.3 57.4 74.8 58.7 74.8C59.6 74.8 59.7 75.5 59.5 76.1Z" fill="#1B273F"/>
<path d="M45.9 1C46.3 1 46.6 1.1 46.6 1.1C46.6 1.1 46.6 1.1 46.5 1.1C46.4 1.1 46.2 1.1 46.1 1.1C45.9 1.1 45.7 1.1 45.6 1.1C45.7 1 45.8 1 45.9 1Z" fill="#1B273F"/>
<path d="M62.8999 22.3C63.1999 23.6 61.9999 24 60.9999 23.4C59.9999 22.8 59.7999 21.1 60.8999 20.8C60.9999 20.8 61.0999 20.8 61.1999 20.8C61.9999 20.8 62.6999 21.4 62.8999 22.3Z" fill="#1B273F"/>
<path d="M50.6 1.99995C51.1 2.19995 51.3 2.39995 51.2 2.39995C51.2 2.39995 51 2.39995 50.4 2.19995C50.4 2.19995 49.4 1.79995 49.4 1.69995C49.6 1.69995 50.2 1.89995 50.6 1.99995Z" fill="#1B273F"/>
<path d="M53.4999 88.8C52.7999 89.2 51.9999 89.4 52.0999 89.2C52.1999 89 53.3999 88.2 53.9999 88.2C54.2999 88.2 54.0999 88.4 53.9999 88.5C53.8999 88.5 53.6999 88.6 53.4999 88.8Z" fill="#1B273F"/>
<path d="M74.6 45.9C74.5 46.9 74 47.5 73.3 47.5C71.7 47.4 71.6 44.9 72.5 44.1C72.8 43.8 73.2 43.8 73.3 43.8C74.1 43.9 74.7 44.8 74.6 45.9Z" fill="#1B273F"/>
<path d="M73.1 64.6C72.6 66.2 71.1 66.5 70.7 65.7C70.3 64.9 71.1 63 72.3 62.9C73.1 63 73.4 63.7 73.1 64.6Z" fill="#1B273F"/>
<path d="M63.5999 8.39996C64.1999 8.99996 64.1999 9.29996 63.7999 9.29996C63.0999 9.29996 61.2999 7.79996 61.5999 7.49996C61.5999 7.49996 61.6999 7.49996 61.7999 7.49996C62.2999 7.39996 63.0999 7.99996 63.5999 8.39996Z" fill="#1B273F"/>
<path d="M52.7 90.2C51.9 90.4 51.2 90.5 51.1 90.5C51.2 90.5 53.9 89.8 54.1 89.8C54 89.9 53.4 90.1 52.7 90.2Z" fill="#1B273F"/>
<path d="M85 43.5C85 44.9 84.3 45.5 83.8 44.9C83 44.2 83 41.5 84 41.5C84.6 41.5 85 42.3 85 43.5Z" fill="#1B273F"/>
<path d="M78.2 19.5C78.7 20.4 78.6 20.8 78.2 20.7C77.4 20.5 75.9 18.3 76.4 18H76.5C76.9 18 77.6 18.6 78.2 19.5Z" fill="#1B273F"/>
<path d="M56.6 2.59995C57.3 2.79995 57.8001 2.99995 57.9001 3.09995C57.7001 3.09995 54.9 2.19995 54.8 2.19995C54.9 2.19995 55.7 2.39995 56.6 2.59995Z" fill="#1B273F"/>
<path d="M70.9 81.8C70 82.5 69.2 82.9 69.2 82.7C69.2 82.4 71.2 80.7 71.8 80.7C72 80.7 71.8 81 71.4 81.5C71.1 81.6 71 81.7 70.9 81.8Z" fill="#1B273F"/>
<path d="M81.3 70.4C80.6 71.6 79.8 72.1 79.8 71.7C79.7 71.1 81 69 81.7 68.9C82 68.9 81.9 69.6 81.3 70.4Z" fill="#1B273F"/>
<path d="M87.7 57.7C87.3 59.1 86.8 59.5 86.6 59.3C86.3 58.8 87 56 87.6 56C87.9 56 87.9 56.7 87.7 57.7Z" fill="#1B273F"/>
<path d="M87.9 33.3C88.2 34.5 88.2 35.1 87.9 35C87.3 34.7 86.5 31.8 87 31.6C87.3 31.6 87.6 32.3 87.9 33.3Z" fill="#1B273F"/>
<path d="M73.1 10.4C73.6 10.8 74.2 11.3 74.2 11.4C74.1 11.4 71.5 9.40005 71.5 9.30005C71.7 9.30005 72.4 9.90005 73.1 10.4Z" fill="#1B273F"/>
</svg>
