<svg width="33" height="30" viewBox="0 0 33 30" fill="none" xmlns="http://www.w3.org/2000/svg">
<path d="M5.0111 9.31344H15.8817L25.6322 0.24643C26.1174 -0.265184 26.9956 0.0703632 26.9956 0.788664V27.8591C26.9884 28.5396 26.177 28.9083 25.6696 28.4358L15.88 19.3361H12.5267V29.2107C12.5267 29.6462 12.1728 30 11.7374 30H7.64572C7.21023 30 6.85639 29.6462 6.85639 29.2107V19.3361H5.0111C2.25357 19.3361 0 17.0825 0 14.325C0 11.5666 2.25314 9.31344 5.0111 9.31344ZM8.14117 11.6742H10.5559V13.7462H8.14117V11.6742ZM32.1602 20.1887C32.8943 20.9228 31.7775 22.0392 31.0439 21.3051L28.5968 18.858C27.8628 18.1244 28.9796 17.0076 29.7132 17.7417L32.1602 20.1887ZM29.7132 10.9065C28.9796 11.6406 27.8628 10.5242 28.5968 9.79018L31.0439 7.34311C31.7775 6.6095 32.8943 7.72586 32.1602 8.4599L29.7132 10.9065ZM28.6483 15.1139C27.6097 15.1139 27.6097 13.5348 28.6483 13.5348H32.1088C33.1473 13.5348 33.1473 15.1139 32.1088 15.1139H28.6483ZM8.43547 23.0887H10.9476V19.3361H8.43547V23.0887ZM12.9617 10.8925V17.7566H15.7299V10.8925H12.9617ZM11.3827 17.7566V10.8925H5.0111C3.12497 10.8925 1.57907 12.4384 1.57907 14.3245C1.57907 16.2107 3.12455 17.7566 5.0111 17.7566H11.3827ZM17.309 10.1176V18.5306L25.4165 26.0521V2.59569L17.309 10.1176Z" fill="#707A8A"/>
</svg>
