<svg width="300" height="321" viewBox="0 0 300 321" fill="none" xmlns="http://www.w3.org/2000/svg">
<g clip-path="url(#clip0)">
<path d="M169.851 65.2368L158.484 77.9837L91.5831 113.951C91.5831 113.951 82.4897 117.605 80.663 119.432C78.8362 121.258 78.8362 136.279 78.3896 138.106C77.9431 139.932 77.9431 178.62 77.9431 178.62L2.84158 265.453C2.84158 265.453 4.66837 274.1 8.7685 277.267C12.8686 280.433 70.1893 319.12 70.1893 319.12H136.157L224.898 209.472L200.785 189.012C200.785 189.012 211.705 180.812 210.325 170.825C210.325 170.825 213.491 159.459 213.045 148.539C213.045 148.539 228.958 138.065 229.892 120.771L234.438 116.671L239.432 123.938L252.625 103.924L263.992 106.644C263.992 106.644 295.372 59.7564 299.959 48.3897C299.959 48.3897 267.645 19.7293 238.092 6.08928C208.498 -7.55077 179.838 6.08928 179.838 6.08928L160.311 40.1894L171.231 48.3897L163.965 60.2029L169.851 65.2368Z" fill="white"/>
<path d="M118.457 138.024C85.8184 170.095 54.56 203.505 26.0214 239.35C17.9023 249.58 9.58026 259.811 2.23249 270.568C2.1513 270.69 2.27309 270.812 2.39487 270.812C2.39487 270.893 2.39487 270.974 2.47606 271.055C12.2596 280.92 23.7481 289.445 35.0336 297.483C46.1567 305.399 57.8482 313.315 70.0674 319.405C71.2447 320.014 72.4219 318.43 71.2041 317.659C65.3177 314.127 59.269 310.92 53.4233 307.307C47.5776 303.694 41.8536 299.959 36.2108 296.062C24.6411 288.106 14.0052 279.134 2.84142 270.65C2.80083 270.609 2.71964 270.609 2.67904 270.609C9.94562 261.719 16.8062 252.503 24.0322 243.572C31.3394 234.56 38.7684 225.589 46.3191 216.779C61.0958 199.567 76.4409 182.801 92.2325 166.522C101.245 157.267 110.419 148.051 119.837 139.202C120.771 138.43 119.269 137.212 118.457 138.024Z" fill="black"/>
<path d="M171.597 318.714C166.766 318.308 161.935 318.593 157.104 318.593C152.273 318.593 147.442 318.593 142.611 318.633C133.031 318.633 123.45 318.674 113.87 318.674C94.6276 318.714 75.3448 318.755 56.1026 318.836C45.1824 318.877 34.2623 318.755 23.3421 319.283C23.0986 319.283 23.0986 319.892 23.3421 319.932C42.5843 320.825 61.8672 320.379 81.1094 320.46C100.352 320.541 119.634 320.541 138.877 320.582C144.357 320.582 149.797 320.582 155.277 320.622C160.717 320.622 166.238 320.947 171.678 320.501C172.287 320.419 172.287 318.755 171.597 318.714Z" fill="black"/>
<path d="M225.913 206.712C201.556 235.859 177.28 265.007 153.004 294.154C149.594 298.254 146.224 302.354 142.895 306.495C139.485 310.717 135.872 314.898 132.99 319.486C132.828 319.729 133.193 319.932 133.396 319.77C137.212 316.279 140.703 312.341 144.073 308.322C141.799 311.204 139.485 314.046 137.212 316.928C137.009 317.172 137.456 317.375 137.618 317.131C160.96 289.648 183.816 261.759 206.752 233.911C213.207 226.076 220.027 218.444 226.157 210.325C226.238 210.203 226.278 210.081 226.319 209.959C226.928 209.229 227.496 208.539 228.105 207.808C229.12 206.671 226.847 205.616 225.913 206.712Z" fill="black"/>
<path d="M72.5842 304.587C68.4028 301.421 63.4908 299.066 59.1065 296.184C54.2756 293.058 49.526 289.77 44.8981 286.36C35.9671 279.783 27.4421 272.72 19.12 265.413C18.9576 265.25 18.6735 265.494 18.8358 265.656C26.7519 273.532 35.3176 280.839 44.2486 287.497C48.4705 290.663 52.8142 293.708 57.2391 296.671C61.8264 299.716 66.6572 303.369 71.7316 305.562C72.3406 305.846 73.2743 305.115 72.5842 304.587Z" fill="black"/>
<path d="M54.763 225.304C48.6737 231.637 43.1121 238.539 37.3476 245.156C31.786 251.57 26.1839 257.943 20.8659 264.52C20.8253 264.56 20.9065 264.641 20.9877 264.601C27.077 258.227 32.8821 251.651 38.7278 245.074C44.3706 238.741 50.3381 232.53 55.6561 225.913C56.0215 225.426 55.169 224.898 54.763 225.304Z" fill="black"/>
<path d="M103.964 255.629C100.96 252.463 96.7791 249.946 93.3285 247.266C89.5937 244.425 85.8995 241.583 82.1241 238.782C74.9793 233.505 67.9563 227.821 60.4462 223.031C60.365 222.99 60.2432 223.112 60.3244 223.153C66.982 229.364 74.4516 234.885 81.5558 240.568C85.0876 243.369 88.66 246.17 92.1918 248.931C95.6018 251.57 99.0524 254.858 102.828 256.969C103.68 257.456 104.695 256.4 103.964 255.629Z" fill="black"/>
<path d="M107.212 261.028C101.164 267.645 95.6019 274.831 89.8374 281.732C83.9105 288.836 78.0241 295.94 72.422 303.288C72.3814 303.329 72.4626 303.41 72.5438 303.369C78.6737 296.793 84.56 289.932 90.4057 283.112C96.4139 276.089 102.747 269.188 108.43 261.881C108.917 261.191 107.699 260.46 107.212 261.028Z" fill="black"/>
<path d="M103.274 260.338C90.4867 260.582 77.6586 260.907 64.871 261.191C64.0185 256.238 63.1254 251.326 62.2323 246.373C61.664 243.085 61.055 239.797 60.4055 236.549C59.7966 233.302 59.3906 229.892 58.3351 226.766C58.2134 226.441 57.6856 226.522 57.6856 226.847C57.6856 233.18 59.2688 239.838 60.2025 246.13C60.9738 251.164 61.7046 256.198 62.4759 261.231C56.2648 261.394 50.0943 261.516 43.8832 261.718C40.6355 261.84 37.3473 261.962 34.0997 262.124C31.055 262.246 27.6856 262.043 24.7627 262.936C24.5192 263.018 24.5192 263.342 24.7627 263.423C27.5638 264.154 30.7303 263.829 33.6125 263.829C36.9008 263.829 40.1484 263.829 43.4366 263.829C49.9319 263.789 56.3866 263.667 62.8818 263.545C62.963 264.154 63.0848 264.763 63.166 265.372C64.1809 271.624 65.1552 277.875 66.1701 284.127C66.6978 287.415 67.2661 290.704 67.7939 294.032C68.2404 296.752 68.3216 299.797 69.5395 302.273C69.8642 302.923 71.1633 302.76 71.2851 302.03C71.6504 299.229 70.7167 296.225 70.2702 293.464C69.7425 290.176 69.1741 286.888 68.6464 283.559C67.5909 277.145 66.4948 270.731 65.3987 264.276C65.3582 264.032 65.3176 263.748 65.277 263.505C77.2526 263.302 89.2688 263.058 101.244 262.815C101.407 262.896 101.61 262.896 101.853 262.896C102.341 262.855 102.828 262.815 103.355 262.774C105.02 262.652 104.979 260.298 103.274 260.338Z" fill="black"/>
<path d="M56.3055 222.219C49.7696 229.405 43.5179 236.874 37.0632 244.141C30.8521 251.123 24.0727 257.984 18.6735 265.575C18.5111 265.819 18.8765 266.022 19.0795 265.859C26.1431 259.486 32.273 251.894 38.6059 244.871C45.0199 237.767 51.5964 230.825 57.9293 223.681C58.863 222.584 57.1986 221.245 56.3055 222.219Z" fill="black"/>
<path d="M110.663 258.796C101.732 252.3 92.8415 245.765 83.9105 239.269C79.5262 236.062 75.1013 232.855 70.6764 229.648C66.698 226.806 62.5573 222.991 57.8482 221.488C57.767 221.448 57.6453 221.57 57.6858 221.651C60.4057 225.71 65.4396 228.593 69.2961 231.516C73.6398 234.804 78.0241 238.011 82.3678 241.258C91.1364 247.713 99.9051 254.127 108.714 260.541C109.973 261.434 112.043 259.811 110.663 258.796Z" fill="black"/>
<path d="M107.862 258.471C102.016 266.428 96.4138 274.425 90.0403 281.976C86.7927 285.832 83.4233 289.567 80.0538 293.342C78.4706 295.088 76.8874 296.793 75.2636 298.498C73.9239 299.919 72.3407 301.34 71.1635 302.923C67.3069 299.716 63.085 296.915 59.066 293.911L45.7507 284.046C41.4476 280.839 37.1445 277.672 32.8414 274.465C30.771 272.923 28.6601 271.38 26.5491 269.878C24.4382 268.335 22.246 266.549 19.8103 265.494C19.4449 265.331 18.6736 265.697 19.0796 266.143C22.246 270 27.1986 272.963 31.177 275.967C35.5613 279.296 39.9862 282.625 44.3705 285.913C48.633 289.12 52.9361 292.368 57.1986 295.575C61.5423 298.863 65.8049 302.395 70.3515 305.359C71.3664 306.008 72.7467 304.75 72.1377 303.816C75.6695 301.38 78.7142 297.767 81.6777 294.763C85.1689 291.231 88.4571 287.537 91.7047 283.802C98.2406 276.17 104.858 268.173 110.257 259.689C111.069 258.268 108.755 257.253 107.862 258.471Z" fill="black"/>
<path d="M130.92 140.866C129.053 139.689 123.978 136.482 122.07 135.386C121.664 135.142 121.055 135.71 121.502 136.035C123.247 137.497 128.2 140.947 130.027 142.287C130.27 141.84 130.555 141.353 130.92 140.866Z" fill="black"/>
<path d="M225.67 205.697C222.869 203.18 219.459 201.231 216.333 199.12L205.94 192.016C199.283 187.47 192.625 182.882 185.967 178.336C180.203 174.398 174.438 170.419 168.633 166.522C167.902 167.009 167.172 167.456 166.4 167.862C177.929 175.778 189.458 183.694 200.988 191.61C204.844 194.249 208.701 196.888 212.557 199.567C216.373 202.165 220.108 205.25 224.208 207.361C225.304 207.848 226.684 206.59 225.67 205.697Z" fill="black"/>
<path d="M120.568 134.492C103.599 150.406 87.5234 167.375 71.7724 184.506C56.1838 201.516 41.0417 218.972 26.5086 236.915C22.3272 242.07 18.2271 247.307 14.2082 252.585C10.311 257.74 5.60193 262.977 2.67906 268.742C2.55727 268.944 2.84144 269.107 3.00382 268.985C3.04442 268.944 3.12561 268.863 3.1662 268.823C3.08501 268.904 3.08501 269.026 3.1662 269.147C7.26634 274.547 12.4626 279.296 17.4152 283.884C22.6114 288.633 27.9294 293.099 33.4098 297.361C44.3705 305.805 56.062 313.559 68.3218 319.932C69.1337 320.379 70.0674 319.851 70.1892 318.958C70.2704 318.511 70.311 318.024 70.3922 317.578C70.5546 316.4 68.5248 316.198 68.1594 317.172C56.5897 310.636 45.3448 303.654 34.7494 295.575C29.3096 291.434 24.0322 287.131 18.9172 282.625C13.8022 278.119 9.05254 273.126 3.85632 268.742C3.69394 268.62 3.45037 268.62 3.32858 268.742C7.30693 264.966 10.5546 260.216 14.0052 255.995C17.6588 251.529 21.3123 247.064 24.9659 242.598C32.4761 233.423 40.0674 224.33 47.7805 215.318C62.882 197.781 78.4707 180.69 94.587 164.046C103.762 154.587 113.18 145.413 122.517 136.116C123.613 134.98 121.705 133.478 120.568 134.492Z" fill="black"/>
<path d="M81.7587 307.835C81.1498 307.023 80.1349 306.576 79.323 306.008C78.3487 305.359 77.3744 304.668 76.2784 304.222C76.0348 304.1 75.7506 304.384 75.9536 304.628C76.7249 305.48 77.6992 306.17 78.5923 306.901C79.4042 307.51 80.1349 308.322 81.1092 308.647C81.5152 308.809 82.0835 308.281 81.7587 307.835Z" fill="black"/>
<path d="M85.7778 304.1C83.4638 304.262 81.4341 303.288 80.2974 301.218C80.1756 301.015 79.8509 301.137 79.8914 301.38C80.5816 303.938 83.3015 305.643 85.8996 305.237C86.6303 305.074 86.4679 304.059 85.7778 304.1Z" fill="black"/>
<path d="M91.2987 298.782C90.5274 298.133 89.5937 297.605 88.7006 297.077C87.7669 296.468 86.8332 295.859 85.8183 295.413C85.6559 295.331 85.4936 295.494 85.6154 295.656C86.3461 296.468 87.2392 297.118 88.0917 297.808C88.9036 298.457 89.6749 299.147 90.5274 299.675C91.0957 300 91.8265 299.229 91.2987 298.782Z" fill="black"/>
<path d="M96.4542 292.896C95.7235 292.206 94.7086 291.718 93.8561 291.191C92.9224 290.622 91.9887 289.973 90.9333 289.526C90.7709 289.445 90.5679 289.607 90.7303 289.77C91.461 290.582 92.3541 291.272 93.166 291.962C93.9373 292.612 94.7086 293.383 95.6017 293.87C96.2513 294.195 97.0632 293.464 96.4542 292.896Z" fill="black"/>
<path d="M100.108 286.319C98.6872 285.223 97.0228 284.371 95.4396 283.518C95.1148 283.356 94.6683 283.762 94.9931 284.046C96.3733 285.183 97.7535 286.36 99.2962 287.253C99.8645 287.618 100.717 286.806 100.108 286.319Z" fill="black"/>
<path d="M103.599 280.474C102.584 279.824 101.569 279.093 100.514 278.525C100.27 278.403 100.027 278.687 100.189 278.89C101.001 279.783 101.975 280.514 102.868 281.286C103.477 281.773 104.289 280.92 103.599 280.474Z" fill="black"/>
<path d="M106.035 275.237C105.791 275.277 105.548 275.277 105.345 275.318C104.817 275.399 104.817 276.211 105.345 276.292C105.588 276.333 105.832 276.333 106.035 276.373C106.4 276.414 106.847 276.252 106.847 275.805C106.887 275.359 106.4 275.196 106.035 275.237Z" fill="black"/>
<path d="M171.718 63.6536C166.481 67.9567 161.366 73.3965 157.023 78.7551C144.235 84.682 131.529 90.6089 119.107 97.3478C109.039 102.828 98.7682 108.43 89.2283 114.966C81.7994 116.062 76.7655 123.735 78.6735 131.083C78.8359 131.732 79.8914 131.488 79.7696 130.798C79.0795 127.064 79.8102 123.654 81.5964 120.893C82.3271 118.823 84.4381 117.524 86.3055 116.509C86.6302 116.346 86.955 116.184 87.3203 116.022C87.6451 115.859 87.9699 115.737 88.2946 115.616C88.254 115.656 88.2134 115.697 88.1728 115.697C89.2689 115.332 90.4056 115.088 91.5829 114.966C101.163 109.364 110.581 103.478 120.365 98.2409C133.315 91.2584 146.59 84.5602 160.189 79.0392C161.204 78.6333 160.27 77.253 159.337 77.659C159.134 77.7402 158.89 77.862 158.687 77.9432C163.721 74.0054 168.836 69.4587 172.977 64.7091C173.667 63.9377 172.489 63.004 171.718 63.6536Z" fill="black"/>
<path d="M236.468 117.118C232.124 105.995 226.116 94.4655 214.75 84.276C204.438 75.0203 188.931 66.3734 172.246 64.0189C172.084 63.9783 172.084 64.1407 172.246 64.1813C189.053 67.9973 203.667 75.7916 213.897 85.5345C224.29 95.3992 229.892 106.238 233.992 116.874C234.317 117.808 236.834 118.092 236.468 117.118Z" fill="black"/>
<path d="M227.902 120.853C226.644 128.972 223.437 135.629 217.916 141.434C212.03 147.564 204.763 151.705 197.131 154.953C181.989 161.407 165.304 165.061 153.166 177.24C148.214 182.233 142.733 189.905 143.017 197.578C143.017 197.618 143.099 197.618 143.099 197.578C144.438 193.762 145.453 189.986 147.524 186.495C149.472 183.166 151.989 180.203 154.75 177.564C160.879 171.719 168.349 167.821 176.021 164.696C187.997 159.824 200.947 156.333 211.664 148.863C211.542 148.985 211.461 149.188 211.461 149.432C211.827 163.315 205.9 176.306 194.695 183.857C194.574 183.938 194.695 184.1 194.817 184.019C206.346 177.483 214.181 163.315 213.044 149.31C213.004 148.66 212.354 148.498 211.867 148.742C214.668 146.793 217.307 144.52 219.743 141.922C224.898 136.36 229.242 128.89 229.486 120.893C229.526 120.041 228.024 120 227.902 120.853Z" fill="black"/>
<path d="M139.323 104.736C136.725 108.43 135.061 112.896 134.005 117.28C133.031 121.258 132.057 126.17 132.95 130.23C133.112 130.961 134.249 130.717 134.33 130.068C134.574 127.835 134.29 125.521 134.452 123.288C134.614 121.096 134.899 118.904 135.386 116.712C136.279 112.53 137.903 108.714 139.567 104.777C139.567 104.736 139.405 104.655 139.323 104.736Z" fill="black"/>
<path d="M142.693 175.291C142.652 175.21 142.53 175.25 142.53 175.332C143.018 180.893 143.342 186.333 142.49 191.894C141.597 197.537 139.486 202.287 137.172 207.361C136.644 208.539 138.268 209.026 138.877 208.133C144.926 199.445 146.549 185.277 142.693 175.291Z" fill="black"/>
<path d="M191.204 158.931C191.164 158.85 191.001 158.809 190.961 158.931C190.352 162.666 190.555 165.954 188.485 169.364C186.577 172.49 183.978 174.032 180.893 175.737C180.325 176.062 180.731 176.834 181.34 176.671C184.587 175.737 187.51 172.977 189.296 170.176C191.245 167.172 192.747 162.382 191.204 158.931Z" fill="black"/>
<path d="M139.851 202.693C136.035 209.229 131.001 214.547 123.654 216.536C120.162 217.47 115.981 217.875 112.449 216.779C109.851 215.968 108.024 213.978 108.877 210.974C109.526 208.701 111.353 207.199 112.936 205.616C117.564 201.069 119.797 195.264 120.731 188.85C121.34 184.628 121.421 180.325 121.583 176.062C121.705 171.759 122.03 167.334 121.624 163.072C121.624 162.991 121.502 162.991 121.502 163.072C119.757 173.018 121.421 183.41 118.701 193.193C117.321 198.106 114.926 201.881 111.313 205.291C109.039 207.442 106.441 210.203 107.131 213.694C108.552 221.042 120.65 219.418 125.399 217.875C132.26 215.643 138.552 210.244 140.866 203.099C141.028 202.49 140.135 202.206 139.851 202.693Z" fill="black"/>
<path d="M134.858 124.303C133.153 130.961 131.326 137.415 128.85 143.83C126.292 150.406 123.369 156.901 121.055 163.599C120.933 163.965 121.583 164.208 121.745 163.884C124.871 157.47 127.51 150.771 130.27 144.195C132.869 137.943 135.629 131.286 136.076 124.466C136.116 123.816 135.02 123.694 134.858 124.303Z" fill="black"/>
<path d="M209.594 167.984C209.553 167.821 209.269 167.862 209.31 168.024C209.756 172.165 209.026 176.306 207.118 180.041C206.184 181.867 205.047 183.572 203.626 185.074C202.327 186.455 200.663 187.348 199.323 188.687C198.674 189.296 199.404 190.392 200.216 190.108C203.911 188.769 206.955 184.465 208.457 180.974C210.284 176.793 210.69 172.327 209.594 167.984Z" fill="black"/>
<path d="M79.4859 127.916C79.4859 127.794 79.2829 127.794 79.2829 127.916C78.268 136.238 78.2274 144.52 78.3898 152.882C78.5116 161.285 78.471 169.729 78.7958 178.133C78.8364 179.31 80.785 179.31 80.785 178.133C80.7038 161.407 80.0542 144.601 79.4859 127.916Z" fill="black"/>
<path d="M232.936 109.77C232.774 108.999 231.475 109.039 231.272 109.77C230.785 111.597 230.744 113.464 230.135 115.25C229.404 117.402 228.43 119.432 226.969 121.137C226.928 121.177 227.009 121.258 227.05 121.218C230.541 118.823 234.032 114.317 232.936 109.77Z" fill="black"/>
<path d="M239.635 120.609C231.515 98.2814 214.181 79.4046 192.422 69.7428C186.658 67.1853 180.487 64.9932 174.154 64.3843C170.825 63.0852 166.928 62.2733 163.478 61.705C163.396 61.6238 163.356 61.5426 163.275 61.502C163.234 61.4614 163.193 61.502 163.234 61.5426C163.275 61.5832 163.275 61.6238 163.315 61.705C163.153 61.6644 162.99 61.6644 162.828 61.6238C162.706 61.5832 162.544 61.7861 162.706 61.8673C162.99 61.9891 163.315 62.1515 163.599 62.2733C164.127 63.207 164.655 64.1407 165.223 65.0338C165.873 66.0487 166.482 67.2259 167.375 68.0378C167.781 68.4438 168.471 67.9566 168.227 67.4695C167.659 66.2922 166.603 65.2368 165.751 64.2219C165.264 63.6535 164.736 63.0852 164.249 62.5169C167.7 64.0189 171.637 65.4803 175.25 66.0487C175.494 66.0893 175.697 65.9675 175.859 65.8051C182.192 67.9567 188.484 70.027 194.492 73.0717C200.988 76.3599 207.036 80.46 212.517 85.2097C223.072 94.3843 231.597 105.954 236.752 118.985C234.723 118.173 232.409 117.564 230.46 117.321C230.095 117.28 229.81 117.686 230.176 117.93C232.246 119.35 235.128 120.609 237.605 121.218C238.051 122.273 240.081 121.827 239.635 120.609Z" fill="black"/>
<path d="M170.42 48.7551C167.659 52.6928 164.655 56.7523 162.544 61.0555C162.463 61.2178 162.666 61.3802 162.828 61.2584C166.279 57.7672 169.121 53.5453 171.962 49.567C172.612 48.6739 170.988 47.9431 170.42 48.7551Z" fill="black"/>
<path d="M253.437 100.636C251.163 104.046 249.012 107.456 246.495 110.704C243.978 113.87 241.096 116.752 238.619 119.919C238.416 120.162 238.822 120.325 239.025 120.203C242.232 117.889 244.952 114.723 247.469 111.678C250.149 108.43 252.706 104.98 254.736 101.326C255.142 100.474 253.924 99.9052 253.437 100.636Z" fill="black"/>
<path d="M264.966 105.71C263.951 102.463 262.003 99.3775 260.257 96.4952C258.39 93.3694 256.4 90.3653 254.249 87.4425C250.108 81.8403 245.44 76.6035 240.365 71.8538C229.973 62.1515 217.875 54.1948 204.722 48.755C197.212 45.6292 189.58 43.4776 181.583 42.1786C181.542 42.1786 181.502 42.2598 181.542 42.2598C208.944 48.5521 233.789 64.0189 250.92 86.387C253.275 89.4722 255.467 92.6387 257.537 95.9269C259.648 99.2963 261.272 103.031 263.464 106.319C263.911 106.928 265.21 106.563 264.966 105.71Z" fill="black"/>
<path d="M264.032 106.806C260.825 105.629 256.887 104.492 253.437 104.452C253.396 104.452 253.356 104.533 253.396 104.533C256.279 106.36 260.257 107.456 263.586 108.146C264.56 108.349 264.966 107.131 264.032 106.806Z" fill="black"/>
<path d="M256.969 94.5872C256.319 95.1962 255.994 96.0893 255.588 96.9012C255.223 97.6725 254.776 98.4438 254.614 99.2963C254.574 99.4993 254.817 99.5805 254.939 99.4587C255.588 98.8903 256.116 98.1596 256.603 97.4695C257.131 96.7794 257.821 96.0487 257.984 95.1962C258.186 94.5467 257.415 94.2219 256.969 94.5872Z" fill="black"/>
<path d="M182.273 42.7063C179.107 41.1231 174.926 40.839 171.475 40.7578C167.537 40.636 163.762 41.1637 159.946 41.935C159.905 41.935 159.905 42.0162 159.986 42.0162C163.802 41.4479 167.7 41.4479 171.516 41.8538C175.088 42.2192 178.498 43.3965 181.989 43.8024C182.558 43.843 182.842 42.9905 182.273 42.7063Z" fill="black"/>
<path d="M171.516 48.1461C168.146 45.7104 163.843 43.843 159.987 42.3816C159.905 42.341 159.784 42.4628 159.865 42.5034C163.153 44.8985 167.091 47.456 170.866 48.8768C171.313 49.0392 172.043 48.5115 171.516 48.1461Z" fill="black"/>
<path d="M176.265 40.7983C175.21 41.4884 174.601 42.7063 173.87 43.7212C173.342 44.4925 172.124 45.6698 172.287 46.6441C172.287 46.7253 172.368 46.7658 172.409 46.7253C173.464 46.5629 174.357 45.2638 175.088 44.5331C175.94 43.6806 177.077 42.8281 177.564 41.6508C177.889 41.0013 176.834 40.433 176.265 40.7983Z" fill="black"/>
<path d="M179.472 6.65763C177.361 9.21514 175.819 12.4222 174.114 15.2233C172.368 18.1055 170.622 20.9878 168.877 23.8701C165.426 29.594 161.57 35.2774 158.687 41.3261C158.444 41.8132 159.134 42.0974 159.418 41.7321C163.64 36.2923 167.091 30.1624 170.785 24.3572C172.571 21.5155 174.398 18.6333 176.184 15.7916C177.93 13.0311 180 10.3112 181.299 7.34775C181.746 6.25167 180.041 5.96751 179.472 6.65763Z" fill="black"/>
<path d="M293.911 60.3653C291.15 63.8971 288.877 67.8755 286.401 71.6103C283.843 75.5074 281.286 79.4046 278.728 83.3018C273.735 90.9337 268.336 98.4844 263.951 106.441C263.748 106.806 264.276 107.009 264.52 106.725C270.162 99.5399 275.034 91.5832 280.149 83.9919C282.666 80.2571 285.183 76.4817 287.659 72.7469C290.217 68.8904 293.099 65.115 295.372 61.0555C295.859 60.203 294.479 59.6346 293.911 60.3653Z" fill="black"/>
<path d="M133.843 131.083C132.869 127.876 131.326 124.993 130.636 121.664C129.946 118.133 129.864 114.56 130.23 110.988C130.23 110.947 130.149 110.947 130.149 110.988C129.418 114.56 129.256 118.173 129.702 121.786C130.108 124.993 130.798 128.85 132.706 131.529C133.031 132.016 134.046 131.773 133.843 131.083Z" fill="black"/>
<path d="M162.869 263.099C147.686 252.138 132.422 241.258 117.199 230.338C109.567 224.858 101.975 219.418 94.3435 213.978C90.8117 211.461 87.2799 209.026 83.7075 206.59C79.7698 203.911 75.7102 200.744 71.3665 198.796C71.3259 198.755 71.2447 198.836 71.2853 198.877C74.4518 202.368 78.7549 205.169 82.4896 208.011C86.1026 210.731 89.7562 213.451 93.4098 216.089C100.879 221.488 108.349 226.847 115.818 232.246C130.879 243.085 145.94 253.965 161.042 264.763C162.26 265.575 164.208 264.032 162.869 263.099Z" fill="black"/>
<path d="M146.103 270.162C146.265 269.878 146.265 269.472 145.981 269.147C144.641 267.645 142.814 266.509 141.191 265.291C139.729 264.235 138.268 263.099 136.603 262.368C137.009 261.516 135.629 260.744 134.98 261.434C131.164 265.21 127.916 269.675 124.465 273.775C120.731 278.2 116.996 282.666 113.261 287.091C105.954 295.819 98.4843 304.506 91.6643 313.599C91.4207 313.924 91.9891 314.249 92.2326 313.965C96.8605 309.093 101.326 303.978 105.751 298.863C106.644 300.325 108.268 301.421 109.526 302.517C110.988 303.735 112.409 305.196 114.114 306.13C114.154 306.13 114.195 306.17 114.195 306.17C111.353 309.378 108.39 312.625 105.994 316.157C105.873 316.319 106.116 316.441 106.238 316.319C110.135 312.95 113.464 308.85 116.915 305.034C120.203 301.461 123.451 297.848 126.698 294.235C133.437 286.806 140.135 279.337 146.793 271.827C147.442 271.137 146.833 270.284 146.103 270.162ZM125.115 293.545C121.827 297.321 118.538 301.137 115.291 304.953C115.25 304.912 115.25 304.912 115.21 304.871C113.911 303.491 112.043 302.517 110.501 301.421C109.08 300.447 107.578 299.229 105.913 298.701C108.755 295.413 111.556 292.084 114.357 288.796C115.088 287.943 115.819 287.091 116.549 286.238C117.645 287.537 119.066 288.552 120.325 289.608C121.867 290.866 123.491 292.49 125.358 293.261C125.277 293.342 125.196 293.424 125.115 293.545ZM126.455 292.003C125.156 290.582 123.329 289.608 121.705 288.593C120.162 287.618 118.579 286.522 116.874 285.832C119.675 282.503 122.517 279.215 125.318 275.886C125.561 275.602 125.805 275.318 126.049 275.034C127.307 276.17 128.768 277.064 130.149 277.997C131.935 279.175 133.721 280.433 135.67 281.367C132.625 284.898 129.54 288.43 126.455 292.003ZM136.888 280.027C136.847 280.027 136.847 280.027 136.888 280.027C133.843 277.875 130.068 275.724 126.495 274.547C129.865 270.649 133.518 266.834 136.482 262.652C137.497 264.195 138.917 265.413 140.257 266.671C141.718 268.011 143.139 269.513 144.844 270.568C144.966 270.649 145.047 270.69 145.169 270.69C142.327 273.775 139.607 276.901 136.888 280.027Z" fill="black"/>
<path d="M104.005 317.05C102.909 315.71 101.123 314.899 99.6616 314.005C98.0783 313.031 96.4951 312.016 94.6683 311.529C94.6277 311.529 94.5871 311.57 94.6277 311.57C95.6832 313.072 97.1852 314.127 98.6061 315.223C99.9863 316.279 101.367 317.618 103.031 318.187C103.599 318.471 104.492 317.659 104.005 317.05Z" fill="black"/>
<path d="M171.069 64.9527C170.947 63.5724 169.323 62.6387 168.146 63.2071L167.537 63.0041C167.212 62.8823 166.766 63.0041 166.482 63.2477C165.507 62.3546 164.452 61.5427 163.356 61.0149C163.234 60.9743 163.031 61.0555 163.071 61.2179C163.802 63.2477 165.507 65.0745 167.009 66.7389C164.939 68.4845 163.234 70.7172 161.488 72.747C159.986 74.4926 158.241 76.2382 156.942 78.1868C151.624 80.6631 146.427 83.5454 141.231 86.2653C134.776 89.5941 128.362 92.9635 121.908 96.2923L103.031 106.116C99.905 107.74 96.7386 109.405 93.6533 111.11C92.1107 111.962 90.4869 112.774 88.9443 113.667C85.5748 113.667 82.246 116.509 80.7034 119.269C77.7805 124.547 78.4707 131.57 78.3895 137.375C78.3083 144.398 78.1459 151.38 78.1865 158.403C78.1865 161.894 78.2271 165.426 78.3083 168.917C78.3489 170.663 78.3895 172.409 78.4301 174.154C78.4706 175.778 78.3083 177.483 78.9984 178.985C79.0796 179.148 79.3232 179.148 79.4043 178.985C80.4598 176.631 80.0133 173.383 80.0945 170.825C80.1757 167.943 80.2163 165.102 80.2568 162.219C80.338 156.171 80.2974 150.122 80.2163 144.073C80.1351 138.43 79.6479 132.544 80.2163 126.942C80.5004 124.1 81.1905 121.137 83.0173 118.863C83.7886 117.889 84.6006 117.199 85.4937 116.712C86.5897 116.468 87.6452 116.103 88.7007 115.697C89.3908 115.616 90.0809 115.535 90.8117 115.535C91.38 115.494 91.8265 114.844 91.5424 114.398C92.4761 113.951 93.4098 113.464 94.3029 113.018C97.5099 111.434 100.636 109.851 103.802 108.187C110.257 104.858 116.671 101.489 123.126 98.1597C129.418 94.8715 135.71 91.6239 142.043 88.3356C148.132 85.1692 154.343 82.2057 160.189 78.6333C160.879 78.3086 161.529 77.9838 162.178 77.659C164.005 76.7659 165.954 75.954 167.496 74.6144C167.618 74.5332 167.496 74.4114 167.375 74.4114C165.345 74.7768 163.396 75.7916 161.529 76.6036C161.448 76.6441 161.326 76.6847 161.245 76.7253C161.001 76.563 160.636 76.4818 160.27 76.6441C159.986 76.7659 159.702 76.8877 159.418 77.0095C160.676 75.8728 161.854 74.655 163.031 73.4777C164.898 71.6509 167.009 69.9053 168.552 67.7944C169.201 67.7132 169.851 67.1854 169.607 66.5359C169.81 66.4953 170.013 66.3735 170.176 66.2517C170.297 66.1705 170.379 66.0487 170.419 65.927C170.785 65.7646 171.109 65.3992 171.069 64.9527Z" fill="black"/>
<path d="M264.479 106.685C264.519 106.522 264.519 106.319 264.519 106.116C264.357 105.142 263.586 104.492 262.693 104.29C262.896 103.884 262.896 103.437 262.611 102.909C255.588 90.0811 245.44 78.552 234.438 68.9715C223.274 59.2286 210.325 50.9472 196.441 45.6698C190.92 43.5994 184.668 41.732 178.62 42.0162C178.457 41.3666 177.686 40.9607 176.996 41.3666C176.509 41.6508 176.062 41.9756 175.656 42.3409C175.453 42.3815 175.21 42.4221 175.007 42.4627V42.4221C175.047 42.3003 175.088 42.1786 175.088 42.0568C175.128 41.9756 175.21 41.8944 175.25 41.8132C175.494 41.4884 175.047 41.2043 174.763 41.2855C174.641 41.2043 174.479 41.1231 174.276 41.0825C171.069 40.5141 167.415 41.1231 164.127 41.3261C163.843 41.2855 163.599 41.2449 163.437 41.2043C162.706 41.0419 162.219 41.529 162.057 42.0162C161.164 41.4072 160.23 40.7983 159.337 40.23C159.296 40.1894 159.174 40.23 159.215 40.3112C160.149 42.4627 161.61 44.2083 163.437 45.7104C164.939 46.9282 166.887 48.4302 168.836 48.8362C168.308 49.8105 167.781 50.7442 167.253 51.6779C165.548 54.6007 163.762 57.5642 162.625 60.7712C162.584 60.8524 162.706 60.893 162.747 60.8118C165.223 58.1731 167.131 55.0879 169.08 52.0838C169.08 52.0838 169.08 52.0432 169.12 52.0432C169.161 52.0432 169.161 52.0026 169.201 52.0026C170.013 51.3531 170.663 50.5818 171.312 49.7699C172.043 49.161 172.774 48.552 173.464 47.9431C174.601 46.9282 176.021 45.7915 177.158 44.5737C182.801 45.142 188.362 46.1569 193.802 48.1055C200.785 50.6224 207.442 54.1542 213.735 57.9702C225.71 65.2367 236.549 74.4519 245.643 85.0879C249.256 89.3098 252.463 93.7347 255.467 98.322C254.046 99.8646 253.234 102.179 252.057 103.843C251.813 104.168 251.975 104.695 252.341 104.858C252.097 104.898 251.854 104.939 251.61 105.02C251.569 105.02 251.529 105.101 251.57 105.142C253.031 106.319 255.061 106.644 256.887 107.091C259.08 107.659 261.353 108.268 263.626 108.43C264.844 108.511 265.128 107.294 264.479 106.685Z" fill="black"/>
<path d="M298.214 50.3789C298.173 50.5007 298.092 50.5819 298.051 50.7037C298.011 50.7443 298.051 50.7849 298.092 50.8255C296.955 50.6631 294.438 56.5494 293.951 57.4831C292.612 59.8782 291.231 62.2734 289.892 64.6685C287.091 69.5805 284.127 74.4114 281.123 79.2016C278.16 83.8701 275.115 88.4168 271.867 92.9229C270.244 95.1556 268.62 97.3884 266.955 99.5399C265.21 101.773 263.099 103.965 261.8 106.482C261.069 107.903 262.896 108.877 263.992 107.984C266.103 106.279 267.727 103.884 269.351 101.773C271.137 99.4993 272.882 97.1448 274.587 94.7903C277.916 90.203 281.083 85.5345 284.046 80.7037C287.05 75.9134 289.811 70.9608 292.368 65.9269C293.586 63.5318 294.763 61.0961 295.859 58.6198C297.037 56.0217 298.417 53.4236 298.863 50.5819C298.904 50.2571 298.376 50.0135 298.214 50.3789Z" fill="black"/>
<path d="M255.588 97.6319C253.802 98.9716 252.828 101.448 251.651 103.315C250.27 105.467 248.849 107.618 247.347 109.689C244.262 113.992 240.771 118.011 237.036 121.746C235.818 122.963 237.848 124.587 238.944 123.491C242.72 119.675 246.13 115.575 249.174 111.15C250.717 108.917 252.138 106.644 253.396 104.249C254.37 102.382 255.994 99.9459 255.913 97.7943C255.913 97.5913 255.71 97.5507 255.588 97.6319Z" fill="black"/>
<path d="M237.158 116.955C236.63 116.874 236.184 116.712 235.819 116.428C235.453 115.859 235.088 115.291 234.722 114.723C234.52 114.438 234.235 114.236 233.911 114.154C234.073 113.748 234.154 113.342 234.195 112.896C234.195 112.855 234.154 112.815 234.114 112.855C233.586 113.221 233.18 113.667 232.774 114.195C232.733 114.276 232.652 114.317 232.612 114.398C232.409 114.52 232.206 114.723 232.124 114.966C232.084 115.007 232.043 115.047 232.043 115.088C231.191 115.129 230.501 115.981 230.663 116.671C230.46 117.24 230.744 117.849 231.434 118.011C232.571 118.336 233.708 118.62 234.844 118.945C235.453 119.229 236.103 119.391 236.793 119.432C238.295 119.513 238.741 117.24 237.158 116.955Z" fill="black"/>
<path d="M238.295 121.746C238.011 121.502 237.686 121.299 237.361 121.137C237.321 120.893 237.239 120.69 237.036 120.528C236.062 119.756 234.722 119.513 233.586 119.107C233.139 118.944 232.571 118.741 232.043 118.579C232.043 118.539 232.043 118.498 232.043 118.457C231.962 117.727 231.312 117.28 230.663 117.158C231.15 116.549 231.597 115.9 232.043 115.25C232.449 114.601 231.475 114.032 230.947 114.479C227.091 118.051 224.695 122.842 221.407 126.901C221.367 126.942 221.448 126.982 221.488 126.942C223.275 124.831 225.345 122.923 227.293 120.974C227.334 121.299 227.699 121.543 228.024 121.34C228.268 121.177 228.43 121.015 228.633 120.812C228.268 122.923 228.024 125.034 227.375 127.104C226.36 130.271 224.939 133.275 223.153 136.035C220.636 139.932 217.348 143.667 213.653 146.712C212.598 146.184 211.055 146.59 211.177 147.97C211.177 148.173 211.218 148.376 211.218 148.579C210.609 149.026 210 149.432 209.35 149.797C209.269 149.838 209.31 149.959 209.432 149.919C210.04 149.675 210.649 149.432 211.258 149.188C211.624 156.17 210.812 162.706 207.361 169.039C204.154 174.966 199.526 179.066 194.492 183.248C194.289 183.166 194.086 183.085 193.883 183.004C193.762 182.963 193.681 183.085 193.721 183.166C193.802 183.329 193.924 183.451 194.046 183.613C193.68 183.897 193.356 184.181 192.99 184.465C192.909 184.506 192.99 184.587 193.072 184.587C193.518 184.465 194.005 184.303 194.452 184.141C196.157 186.292 198.593 188.038 200.622 189.783C203.18 191.976 205.778 194.087 208.417 196.198C211.055 198.308 213.735 200.379 216.373 202.449C218.484 204.114 220.555 206.103 222.869 207.564C199.486 236.346 175.859 264.926 152.476 293.708C149.107 297.848 145.737 301.989 142.449 306.17C139.161 310.311 135.71 314.411 132.909 318.917C132.381 319.77 133.64 320.501 134.289 319.892C134.614 319.567 134.939 319.242 135.304 318.917C135.426 319.12 135.629 319.283 135.873 319.364C139.851 320.622 144.438 320.216 148.579 320.216C153.207 320.216 157.835 320.176 162.463 320.135C166.928 320.095 171.394 320.054 175.859 320.013C180.568 319.973 185.074 319.729 189.743 319.283C190.392 319.242 190.392 318.43 189.743 318.349C185.237 317.903 180.893 317.578 176.346 317.497C171.718 317.415 167.091 317.334 162.463 317.253C157.997 317.172 153.532 317.091 149.066 317.05C145.372 317.009 141.272 316.644 137.537 317.375C137.699 317.009 137.862 316.644 137.943 316.238C143.099 310.798 147.767 304.75 152.476 299.026C158.444 291.759 164.452 284.533 170.419 277.267C182.314 262.733 194.249 248.2 206.143 233.667C212.923 225.386 219.702 217.145 226.522 208.863C226.847 208.498 226.928 208.133 226.888 207.767C227.131 207.28 227.131 206.631 226.603 206.062C224.33 203.505 220.961 201.597 218.2 199.567C215.48 197.537 212.76 195.507 210.04 193.478C207.767 191.813 205.494 190.189 203.139 188.566C206.021 186.942 208.376 183.816 209.716 181.055C211.421 177.564 213.126 171.962 211.624 168.146C211.461 167.74 211.137 167.456 210.771 167.334C213.613 161.407 215.44 154.344 214.628 147.889C214.628 147.767 214.587 147.645 214.547 147.564C218.809 145.21 222.381 142.043 225.304 137.862C227.293 135.061 228.877 131.976 230.054 128.769C230.866 126.495 231.8 123.775 232.043 121.177C232.206 121.258 232.409 121.34 232.571 121.421C234.154 122.233 235.778 123.288 237.564 123.41C238.417 123.532 239.066 122.354 238.295 121.746ZM208.782 174.154C208.538 176.265 207.929 178.417 207.036 180.325C205.697 183.248 203.708 185.359 201.759 187.713C199.77 186.333 197.699 184.79 195.507 183.694C201.109 181.218 205.697 176.143 208.782 170.988C208.823 172.043 208.904 173.099 208.782 174.154Z" fill="black"/>
<path d="M31.0148 232.896C41.2042 220.717 51.6372 208.782 62.3138 197.091C68.322 190.514 74.4925 184.059 80.6224 177.564C81.759 176.346 80.8659 174.925 79.6887 174.52C79.6075 170.257 78.7144 165.873 78.4708 161.61C78.1866 157.104 78.1054 152.598 78.146 148.092C78.1866 143.586 78.4302 139.08 78.755 134.614C79.0797 129.743 79.0797 124.668 79.851 119.878C79.851 119.838 79.8105 119.838 79.7699 119.878C78.7144 124.547 77.2935 128.971 76.6034 133.721C75.9133 138.349 75.5073 143.017 75.2638 147.686C75.0202 152.354 75.0202 157.023 75.142 161.691C75.3044 166.319 75.1826 171.515 76.441 176.022C76.4816 176.143 76.5222 176.265 76.6034 176.387C55.3314 198.511 35.0743 221.894 16.0351 245.967C10.5141 252.95 4.38419 260.013 0.0810764 267.848C-0.121901 268.254 0.121672 268.579 0.446435 268.701C0.446435 268.741 0.40584 268.782 0.40584 268.823C0.324649 269.107 0.324649 269.35 0.40584 269.553C0.40584 269.594 0.40584 269.594 0.365244 269.635C0.040481 270.649 1.17715 271.258 2.07025 271.015C3.49109 272.882 5.1961 274.547 6.77932 276.252C9.21504 278.85 11.7726 281.326 14.3707 283.762C19.6481 288.714 25.169 293.505 30.9336 297.848C40.7577 305.237 51.1501 311.57 62.1515 316.969C60.7306 317.009 59.3098 317.05 57.9295 317.009C53.9106 317.009 49.9322 317.009 45.9133 317.05C42.0567 317.05 38.2408 317.05 34.3842 317.212C30.7712 317.334 26.7117 317.131 23.2611 318.349C22.9363 318.471 22.9363 318.796 23.2611 318.917C26.5493 320.095 30.4464 319.932 33.897 320.054C37.916 320.216 41.8943 320.216 45.9133 320.257C49.7698 320.298 53.5858 320.338 57.4424 320.338C61.2178 320.338 65.1961 320.663 68.9309 320.176C69.7022 320.095 70.1082 319.445 70.1487 318.796C70.4735 318.187 70.3923 317.415 69.4992 317.009C56.7523 310.798 44.4519 303.369 33.0851 294.925C27.4424 290.744 22.0026 286.4 16.8064 281.651C14.1677 279.256 11.6102 276.739 9.09326 274.262C7.30706 272.517 5.64265 270.609 3.77526 268.985C4.50598 267.767 5.23669 266.549 5.96741 265.331C6.25158 264.804 5.84562 264.317 5.35848 264.235C9.09326 260.013 12.5033 255.426 16.0757 251.082C20.9877 244.993 25.9809 238.944 31.0148 232.896Z" fill="black"/>
</g>
<defs>
<clipPath id="clip0">
<rect width="300" height="320.704" fill="white"/>
</clipPath>
</defs>
</svg>
